<svg width="1251" height="414" viewBox="0 0 1251 414" fill="none" xmlns="http://www.w3.org/2000/svg">
<mask id="path-1-inside-1_148_13" fill="white">
<path fill-rule="evenodd" clip-rule="evenodd" d="M247.479 44.9411L138 44.1149L137.581 99.6465L247.06 100.473L247.479 44.9411ZM147.786 58.99C145.695 58.9742 143.987 60.6566 143.971 62.7477L143.962 64.0098C143.946 66.1008 145.628 67.8088 147.72 67.8246L237.33 68.5008C239.421 68.5166 241.129 66.8342 241.145 64.7431L241.155 63.481C241.17 61.39 239.488 59.682 237.397 59.6662L147.786 58.99Z"/>
</mask>
<path fill-rule="evenodd" clip-rule="evenodd" d="M247.479 44.9411L138 44.1149L137.581 99.6465L247.06 100.473L247.479 44.9411ZM147.786 58.99C145.695 58.9742 143.987 60.6566 143.971 62.7477L143.962 64.0098C143.946 66.1008 145.628 67.8088 147.72 67.8246L237.33 68.5008C239.421 68.5166 241.129 66.8342 241.145 64.7431L241.155 63.481C241.17 61.39 239.488 59.682 237.397 59.6662L147.786 58.99Z" fill="black"/>
<path d="M138 44.1149L138.015 42.115L136.015 42.0999L136 44.0999L138 44.1149ZM247.479 44.9411L249.479 44.9562L249.494 42.9563L247.494 42.9412L247.479 44.9411ZM137.581 99.6465L135.581 99.6315L135.566 101.631L137.566 101.646L137.581 99.6465ZM247.06 100.473L247.045 102.473L249.045 102.488L249.06 100.488L247.06 100.473ZM143.971 62.7477L145.971 62.7628L145.971 62.7628L143.971 62.7477ZM147.786 58.99L147.771 60.9899L147.786 58.99ZM143.962 64.0098L141.962 63.9947L141.962 63.9947L143.962 64.0098ZM147.72 67.8246L147.735 65.8246L147.735 65.8246L147.72 67.8246ZM237.33 68.5008L237.345 66.5009L237.33 68.5008ZM241.145 64.7431L243.145 64.7582L243.145 64.7582L241.145 64.7431ZM241.155 63.481L243.155 63.4961L243.155 63.4961L241.155 63.481ZM237.397 59.6662L237.412 57.6663L237.412 57.6663L237.397 59.6662ZM137.985 46.1149L247.464 46.9411L247.494 42.9412L138.015 42.115L137.985 46.1149ZM139.581 99.6616L140 44.13L136 44.0999L135.581 99.6315L139.581 99.6616ZM247.075 98.4728L137.596 97.6466L137.566 101.646L247.045 102.473L247.075 98.4728ZM245.479 44.926L245.06 100.458L249.06 100.488L249.479 44.9562L245.479 44.926ZM145.971 62.7628C145.979 61.7762 146.785 60.9825 147.771 60.9899L147.801 56.9901C144.606 56.9659 141.996 59.537 141.971 62.7326L145.971 62.7628ZM145.962 64.0248L145.971 62.7628L141.971 62.7326L141.962 63.9947L145.962 64.0248ZM147.735 65.8246C146.748 65.8172 145.954 65.0114 145.962 64.0248L141.962 63.9947C141.938 67.1903 144.509 69.8004 147.704 69.8245L147.735 65.8246ZM237.345 66.5009L147.735 65.8246L147.704 69.8245L237.315 70.5007L237.345 66.5009ZM239.145 64.728C239.138 65.7146 238.332 66.5083 237.345 66.5009L237.315 70.5007C240.511 70.5249 243.121 67.9538 243.145 64.7582L239.145 64.728ZM239.155 63.466L239.145 64.728L243.145 64.7582L243.155 63.4961L239.155 63.466ZM237.382 61.6662C238.368 61.6736 239.162 62.4794 239.155 63.466L243.155 63.4961C243.179 60.3005 240.608 57.6904 237.412 57.6663L237.382 61.6662ZM147.771 60.9899L237.382 61.6662L237.412 57.6663L147.801 56.9901L147.771 60.9899Z" fill="white" mask="url(#path-1-inside-1_148_13)"/>
<circle cx="189.915" cy="202.981" r="125.212" transform="rotate(27.4324 189.915 202.981)" fill="black" stroke="white" stroke-width="2"/>
<circle cx="191.022" cy="203.729" r="97.8141" transform="rotate(27.4324 191.022 203.729)" fill="black" fill-opacity="0.51" stroke="white" stroke-width="1.26212"/>
<circle cx="190.059" cy="203.37" r="89.6104" transform="rotate(27.4324 190.059 203.37)" stroke="white" stroke-width="3.78635"/>
<path d="M197.857 227L185.365 227L185.365 188.736L180.227 188.736L180.227 182.016L196.275 171.659L197.857 171.659L197.857 227Z" fill="white"/>
<path d="M93.7063 271.074C92.6251 269.477 92.1971 267.951 92.4225 266.497C92.6689 265.046 93.5401 263.815 95.0362 262.801L99.2983 259.915C100.794 258.902 102.255 258.555 103.681 258.873C105.128 259.195 106.392 260.155 107.473 261.751C108.401 263.122 108.792 264.526 108.647 265.963C108.501 267.4 107.699 268.612 106.241 269.6L106.052 269.727L104.941 268.087L105.13 267.959C106.098 267.303 106.617 266.485 106.685 265.503C106.775 264.525 106.53 263.609 105.952 262.754C105.211 261.66 104.364 261.005 103.411 260.789C102.478 260.577 101.516 260.807 100.522 261.479L96.0341 264.519C95.0409 265.191 94.4635 266.004 94.3019 266.957C94.1614 267.914 94.4615 268.939 95.2022 270.033C95.7811 270.888 96.5411 271.455 97.4822 271.735C98.4193 272.035 99.3719 271.858 100.34 271.203L100.529 271.075L101.64 272.716L101.451 272.843C99.9926 273.831 98.5692 274.125 97.1808 273.727C95.7924 273.328 94.6342 272.444 93.7063 271.074Z" fill="white"/>
<path d="M99.8634 279.206L98.655 277.843L99.1494 277.405L114.53 271.719L115.844 273.202L108.363 287.803L107.869 288.241L106.57 286.775L108.683 282.772L104.122 277.624L99.8634 279.206ZM113.187 274.187L105.776 276.95L109.537 281.194L113.187 274.187Z" fill="white"/>
<path d="M111.259 291.673L109.764 290.373L120.227 278.344L125.262 282.723C126.361 283.68 126.936 284.743 126.985 285.912C127.046 287.092 126.583 288.249 125.596 289.383C124.062 291.147 122.293 291.631 120.289 290.834L118.91 297.452L118.476 297.951L116.998 296.665L118.475 289.588L115.399 286.913L111.259 291.673ZM120.571 280.967L116.55 285.59L119.832 288.445C120.543 289.062 121.256 289.341 121.973 289.28C122.711 289.218 123.409 288.809 124.067 288.053C125.402 286.518 125.331 285.107 123.853 283.822L120.571 280.967Z" fill="white"/>
<path d="M122.428 300.312L120.909 299.306L121.273 298.755L134.665 289.293L136.318 290.387L132.858 306.424L132.493 306.975L130.86 305.894L131.869 301.481L126.134 297.684L122.428 300.312ZM134.005 292.024L127.558 296.606L132.286 299.736L134.005 292.024Z" fill="white"/>
<path d="M140.583 310.782L138.798 309.923L144.952 297.138L140.581 295.034L141.342 293.454L151.849 298.512L151.088 300.092L146.737 297.997L140.583 310.782Z" fill="white"/>
<path d="M157.815 318.011L148.48 314.561L154.007 299.607L163.321 303.049L162.713 304.694L155.258 301.939L153.426 306.895L159.877 309.279L159.269 310.924L152.818 308.54L150.946 313.603L158.423 316.366L157.815 318.011Z" fill="white"/>
<path d="M167.244 320.699L165.361 320.366L168.14 304.667L170.024 305.001L173.683 313.859L180.16 306.795L181.977 307.117L179.198 322.815L177.314 322.482L179.482 310.237L173.863 316.366L172.585 316.14L169.408 308.477L167.244 320.699Z" fill="white"/>
<path d="M186.101 322.786L184.12 322.719L184.659 306.785L186.64 306.852L186.101 322.786Z" fill="white"/>
<path d="M201.958 322.444L191.824 322.524L191.699 306.582L193.68 306.566L193.791 320.755L201.945 320.691L201.958 322.444Z" fill="white"/>
<path d="M205.583 322.119L203.768 322.284L203.708 321.626L208.243 305.868L210.216 305.688L217.544 320.366L217.604 321.024L215.653 321.202L213.682 317.127L206.832 317.751L205.583 322.119ZM209.435 308.412L207.269 316.019L212.916 315.505L209.435 308.412Z" fill="white"/>
<path d="M221.585 319.606L219.713 320.254L214.5 305.188L216.222 304.592L227.726 313.602L223.712 302.001L225.584 301.353L230.797 316.419L229.075 317.015L217.579 308.027L221.585 319.606Z" fill="white"/>
<path d="M238.463 311.013C239.652 310.512 240.45 309.805 240.856 308.893C241.271 307.96 241.254 306.962 240.806 305.899L238.72 300.945C238.272 299.882 237.572 299.18 236.621 298.839C235.679 298.478 234.613 298.548 233.423 299.049C232.22 299.556 231.418 300.273 231.017 301.2C230.611 302.112 230.632 303.1 231.08 304.164L233.166 309.117C233.614 310.181 234.309 310.893 235.252 311.253C236.189 311.6 237.259 311.52 238.463 311.013ZM231.305 309.802L229.289 305.017C228.599 303.38 228.561 301.88 229.173 300.518C229.8 299.15 230.981 298.101 232.716 297.37C234.451 296.639 236.02 296.53 237.422 297.044C238.839 297.551 239.892 298.623 240.581 300.26L242.597 305.046C243.287 306.683 243.318 308.185 242.692 309.553C242.079 310.915 240.905 311.962 239.17 312.692C237.435 313.423 235.859 313.535 234.443 313.028C233.04 312.515 231.994 311.44 231.305 309.802Z" fill="white"/>
<path d="M257.033 300.641L248.531 305.901L247.74 304.623L249.25 297.93L249.647 296.105C249.745 295.598 249.81 295.111 249.842 294.645C249.94 293.62 249.75 292.72 249.27 291.946C248.767 291.132 248.135 290.63 247.375 290.44C246.619 290.229 245.835 290.375 245.021 290.878C244.182 291.398 243.691 292.076 243.549 292.914C243.42 293.744 243.64 294.634 244.21 295.585L242.661 296.543C241.824 295.133 241.543 293.798 241.817 292.539C242.118 291.264 242.888 290.243 244.127 289.476C245.419 288.678 246.668 288.431 247.875 288.738C249.087 289.024 250.061 289.76 250.796 290.948C251.443 291.994 251.706 293.17 251.586 294.477C251.522 295.123 251.446 295.679 251.359 296.144C251.291 296.525 251.155 297.171 250.952 298.083L249.767 303.181L256.159 299.227L257.033 300.641Z" fill="white"/>
<path d="M263.382 290.537L259.511 285.613C258.855 284.778 258.09 284.297 257.219 284.171C256.338 284.033 255.485 284.288 254.662 284.935C253.838 285.583 253.389 286.351 253.316 287.24C253.244 288.107 253.537 288.958 254.194 289.794L258.065 294.718C258.722 295.553 259.48 296.039 260.34 296.174C261.211 296.3 262.059 296.039 262.882 295.392C263.706 294.744 264.16 293.982 264.243 293.105C264.326 292.229 264.039 291.373 263.382 290.537ZM263.91 296.699C262.657 297.684 261.369 298.098 260.047 297.939C258.737 297.772 257.576 297.043 256.562 295.754L252.818 290.992C251.804 289.702 251.371 288.402 251.517 287.089C251.675 285.767 252.381 284.614 253.634 283.628C254.9 282.634 256.187 282.22 257.497 282.388C258.819 282.546 259.987 283.27 261 284.559L264.744 289.321C265.758 290.61 266.186 291.916 266.027 293.238C265.881 294.55 265.175 295.704 263.91 296.699Z" fill="white"/>
<path d="M277.373 284.043L270.253 291.062L269.198 289.992L269.182 283.131L269.164 281.262C269.146 280.747 269.101 280.258 269.029 279.796C268.897 278.775 268.511 277.94 267.871 277.291C267.2 276.61 266.472 276.261 265.688 276.245C264.905 276.207 264.172 276.524 263.491 277.196C262.788 277.889 262.461 278.659 262.509 279.508C262.567 280.346 262.98 281.165 263.747 281.965L262.45 283.244C261.32 282.055 260.749 280.816 260.737 279.528C260.746 278.218 261.27 277.051 262.308 276.028C263.389 274.962 264.552 274.444 265.798 274.474C267.043 274.483 268.156 274.985 269.137 275.98C270 276.856 270.519 277.944 270.692 279.244C270.773 279.889 270.823 280.448 270.841 280.92C270.86 281.307 270.871 281.967 270.875 282.901L270.854 288.135L276.206 282.859L277.373 284.043Z" fill="white"/>
<path d="M285.056 274.737L278.723 282.474L277.56 281.522L276.814 274.702L276.597 272.846C276.524 272.335 276.427 271.854 276.307 271.402C276.067 270.401 275.594 269.612 274.889 269.035C274.149 268.429 273.388 268.16 272.607 268.227C271.824 268.273 271.13 268.666 270.524 269.406C269.899 270.17 269.655 270.971 269.793 271.809C269.94 272.636 270.438 273.407 271.286 274.12L270.132 275.53C268.882 274.468 268.182 273.297 268.033 272.017C267.903 270.714 268.3 269.498 269.223 268.37C270.185 267.195 271.286 266.557 272.528 266.454C273.767 266.331 274.927 266.711 276.008 267.596C276.96 268.375 277.591 269.402 277.901 270.676C278.051 271.309 278.16 271.859 278.228 272.327C278.288 272.71 278.369 273.365 278.473 274.293L279.009 279.5L283.769 273.684L285.056 274.737Z" fill="white"/>
<mask id="path-23-inside-2_148_13" fill="white">
<path fill-rule="evenodd" clip-rule="evenodd" d="M542.934 44.9411L433.455 44.1149L433.036 99.6465L542.515 100.473L542.934 44.9411ZM443.241 58.99C441.15 58.9742 439.442 60.6566 439.427 62.7477L439.417 64.0098C439.401 66.1008 441.084 67.8088 443.175 67.8246L532.785 68.5008C534.876 68.5166 536.584 66.8342 536.6 64.7431L536.61 63.481C536.626 61.39 534.943 59.682 532.852 59.6662L443.241 58.99Z"/>
</mask>
<path fill-rule="evenodd" clip-rule="evenodd" d="M542.934 44.9411L433.455 44.1149L433.036 99.6465L542.515 100.473L542.934 44.9411ZM443.241 58.99C441.15 58.9742 439.442 60.6566 439.427 62.7477L439.417 64.0098C439.401 66.1008 441.084 67.8088 443.175 67.8246L532.785 68.5008C534.876 68.5166 536.584 66.8342 536.6 64.7431L536.61 63.481C536.626 61.39 534.943 59.682 532.852 59.6662L443.241 58.99Z" fill="black"/>
<path d="M433.455 44.1149L433.47 42.115L431.47 42.0999L431.455 44.0999L433.455 44.1149ZM542.934 44.9411L544.934 44.9562L544.949 42.9563L542.949 42.9412L542.934 44.9411ZM433.036 99.6465L431.036 99.6315L431.021 101.631L433.021 101.646L433.036 99.6465ZM542.515 100.473L542.5 102.473L544.5 102.488L544.515 100.488L542.515 100.473ZM439.427 62.7477L441.426 62.7628L441.426 62.7628L439.427 62.7477ZM443.241 58.99L443.226 60.9899L443.241 58.99ZM439.417 64.0098L437.417 63.9947L437.417 63.9947L439.417 64.0098ZM443.175 67.8246L443.19 65.8246L443.19 65.8246L443.175 67.8246ZM532.785 68.5008L532.8 66.5009L532.785 68.5008ZM536.6 64.7431L538.6 64.7582L538.6 64.7582L536.6 64.7431ZM536.61 63.481L538.61 63.4961L538.61 63.4961L536.61 63.481ZM532.852 59.6662L532.867 57.6663L532.867 57.6663L532.852 59.6662ZM433.44 46.1149L542.919 46.9411L542.949 42.9412L433.47 42.115L433.44 46.1149ZM435.036 99.6616L435.455 44.13L431.455 44.0999L431.036 99.6315L435.036 99.6616ZM542.53 98.4728L433.051 97.6466L433.021 101.646L542.5 102.473L542.53 98.4728ZM540.934 44.926L540.515 100.458L544.515 100.488L544.934 44.9562L540.934 44.926ZM441.426 62.7628C441.434 61.7762 442.24 60.9825 443.226 60.9899L443.256 56.9901C440.061 56.9659 437.451 59.537 437.427 62.7326L441.426 62.7628ZM441.417 64.0248L441.426 62.7628L437.427 62.7326L437.417 63.9947L441.417 64.0248ZM443.19 65.8246C442.203 65.8172 441.409 65.0114 441.417 64.0248L437.417 63.9947C437.393 67.1903 439.964 69.8004 443.16 69.8245L443.19 65.8246ZM532.8 66.5009L443.19 65.8246L443.16 69.8245L532.77 70.5007L532.8 66.5009ZM534.6 64.728C534.593 65.7146 533.787 66.5083 532.8 66.5009L532.77 70.5007C535.966 70.5249 538.576 67.9538 538.6 64.7582L534.6 64.728ZM534.61 63.466L534.6 64.728L538.6 64.7582L538.61 63.4961L534.61 63.466ZM532.837 61.6662C533.824 61.6736 534.617 62.4794 534.61 63.466L538.61 63.4961C538.634 60.3005 536.063 57.6904 532.867 57.6663L532.837 61.6662ZM443.226 60.9899L532.837 61.6662L532.867 57.6663L443.256 56.9901L443.226 60.9899Z" fill="white" mask="url(#path-23-inside-2_148_13)"/>
<circle cx="485.37" cy="202.981" r="125.212" transform="rotate(27.4324 485.37 202.981)" fill="black" stroke="white" stroke-width="2"/>
<circle cx="486.477" cy="203.729" r="97.8141" transform="rotate(27.4324 486.477 203.729)" fill="black" fill-opacity="0.51" stroke="white" stroke-width="1.26212"/>
<circle cx="485.057" cy="203.37" r="89.6104" transform="rotate(27.4324 485.057 203.37)" stroke="white" stroke-width="3.78635"/>
<path d="M503.239 227L466.239 227L466.239 216.88L483 200.12C486.268 196.852 488.376 194.428 489.325 192.847C490.273 191.265 490.748 189.5 490.748 187.55C490.748 185.968 490.221 184.598 489.167 183.439C488.165 182.279 486.689 181.699 484.739 181.699C480.259 181.699 478.019 184.519 478.019 190.159L466.319 190.159C466.319 184.15 468.031 179.354 471.457 175.77C474.936 172.239 479.442 170.473 484.976 170.473C490.932 170.473 495.439 172.16 498.495 175.533C501.605 178.959 503.16 182.964 503.16 187.55C503.16 191.344 502.422 194.533 500.946 197.116C499.471 199.698 496.598 203.019 492.329 207.077L483.237 215.774L503.239 215.774L503.239 227Z" fill="white"/>
<path d="M389.161 271.074C388.08 269.477 387.652 267.951 387.878 266.497C388.124 265.046 388.995 263.815 390.491 262.801L394.753 259.915C396.249 258.902 397.71 258.555 399.136 258.873C400.583 259.195 401.847 260.155 402.928 261.751C403.856 263.122 404.247 264.526 404.102 265.963C403.956 267.4 403.155 268.612 401.696 269.6L401.508 269.727L400.397 268.087L400.585 267.959C401.553 267.303 402.072 266.485 402.14 265.503C402.23 264.525 401.986 263.609 401.407 262.754C400.666 261.66 399.819 261.005 398.866 260.789C397.933 260.577 396.971 260.807 395.978 261.479L391.489 264.519C390.496 265.191 389.919 266.004 389.757 266.957C389.617 267.914 389.917 268.939 390.657 270.033C391.236 270.888 391.996 271.455 392.937 271.735C393.874 272.035 394.827 271.858 395.795 271.203L395.984 271.075L397.095 272.716L396.906 272.843C395.448 273.831 394.024 274.125 392.636 273.727C391.247 273.328 390.089 272.444 389.161 271.074Z" fill="white"/>
<path d="M395.318 279.206L394.11 277.843L394.604 277.405L409.985 271.719L411.299 273.202L403.818 287.803L403.324 288.241L402.025 286.775L404.138 282.772L399.577 277.624L395.318 279.206ZM408.642 274.187L401.231 276.95L404.992 281.194L408.642 274.187Z" fill="white"/>
<path d="M406.714 291.673L405.219 290.373L415.682 278.344L420.717 282.723C421.817 283.68 422.391 284.743 422.44 285.912C422.501 287.092 422.038 288.249 421.051 289.383C419.517 291.147 417.748 291.631 415.744 290.834L414.365 297.452L413.931 297.951L412.453 296.665L413.93 289.588L410.854 286.913L406.714 291.673ZM416.026 280.967L412.005 285.59L415.287 288.445C415.998 289.062 416.711 289.341 417.428 289.28C418.166 289.218 418.864 288.809 419.522 288.053C420.857 286.518 420.786 285.107 419.308 283.822L416.026 280.967Z" fill="white"/>
<path d="M417.883 300.312L416.364 299.306L416.728 298.755L430.121 289.293L431.773 290.387L428.313 306.424L427.948 306.975L426.315 305.894L427.324 301.481L421.589 297.684L417.883 300.312ZM429.46 292.024L423.013 296.606L427.742 299.736L429.46 292.024Z" fill="white"/>
<path d="M436.038 310.782L434.253 309.923L440.407 297.138L436.036 295.034L436.797 293.454L447.304 298.512L446.543 300.092L442.192 297.997L436.038 310.782Z" fill="white"/>
<path d="M453.271 318.011L443.935 314.561L449.462 299.607L458.776 303.049L458.168 304.694L450.713 301.939L448.881 306.895L455.332 309.279L454.724 310.924L448.273 308.54L446.402 313.603L453.879 316.366L453.271 318.011Z" fill="white"/>
<path d="M462.7 320.699L460.816 320.366L463.595 304.667L465.479 305.001L469.138 313.859L475.615 306.795L477.432 307.117L474.653 322.815L472.769 322.482L474.937 310.237L469.318 316.366L468.04 316.14L464.863 308.477L462.7 320.699Z" fill="white"/>
<path d="M481.556 322.786L479.575 322.719L480.114 306.785L482.095 306.852L481.556 322.786Z" fill="white"/>
<path d="M497.413 322.444L487.279 322.524L487.154 306.582L489.135 306.566L489.246 320.755L497.4 320.691L497.413 322.444Z" fill="white"/>
<path d="M501.038 322.119L499.223 322.284L499.163 321.626L503.698 305.868L505.671 305.688L512.999 320.366L513.059 321.024L511.108 321.202L509.137 317.127L502.287 317.751L501.038 322.119ZM504.89 308.412L502.724 316.019L508.371 315.505L504.89 308.412Z" fill="white"/>
<path d="M517.04 319.606L515.168 320.254L509.955 305.188L511.677 304.592L523.181 313.602L519.167 302.001L521.039 301.353L526.252 316.419L524.53 317.015L513.034 308.027L517.04 319.606Z" fill="white"/>
<path d="M533.918 311.013C535.107 310.512 535.905 309.805 536.311 308.893C536.726 307.96 536.709 306.962 536.261 305.899L534.175 300.945C533.727 299.882 533.027 299.18 532.077 298.839C531.134 298.478 530.068 298.548 528.878 299.049C527.675 299.556 526.873 300.273 526.472 301.2C526.066 302.112 526.087 303.1 526.535 304.164L528.621 309.117C529.069 310.181 529.765 310.893 530.707 311.253C531.644 311.6 532.714 311.52 533.918 311.013ZM526.76 309.802L524.744 305.017C524.054 303.38 524.016 301.88 524.628 300.518C525.255 299.15 526.436 298.101 528.171 297.37C529.906 296.639 531.475 296.53 532.877 297.044C534.294 297.551 535.347 298.623 536.036 300.26L538.052 305.046C538.742 306.683 538.773 308.185 538.147 309.553C537.534 310.915 536.36 311.962 534.625 312.692C532.89 313.423 531.314 313.535 529.898 313.028C528.495 312.515 527.449 311.44 526.76 309.802Z" fill="white"/>
<path d="M552.488 300.641L543.986 305.901L543.195 304.623L544.705 297.93L545.102 296.105C545.2 295.598 545.265 295.111 545.297 294.645C545.395 293.62 545.205 292.72 544.725 291.946C544.222 291.132 543.59 290.63 542.83 290.44C542.074 290.229 541.29 290.375 540.476 290.878C539.637 291.398 539.146 292.076 539.004 292.914C538.875 293.744 539.095 294.634 539.666 295.585L538.116 296.543C537.279 295.133 536.998 293.798 537.272 292.539C537.573 291.264 538.343 290.243 539.582 289.476C540.874 288.678 542.123 288.431 543.33 288.738C544.542 289.024 545.516 289.76 546.251 290.948C546.898 291.994 547.161 293.17 547.041 294.477C546.977 295.123 546.901 295.679 546.814 296.144C546.746 296.525 546.61 297.171 546.407 298.083L545.222 303.181L551.614 299.227L552.488 300.641Z" fill="white"/>
<path d="M558.838 290.537L554.967 285.613C554.31 284.778 553.545 284.297 552.674 284.171C551.793 284.033 550.941 284.288 550.117 284.935C549.293 285.583 548.845 286.351 548.771 287.24C548.699 288.107 548.992 288.958 549.649 289.794L553.52 294.718C554.177 295.553 554.935 296.039 555.795 296.174C556.666 296.3 557.514 296.039 558.338 295.392C559.161 294.744 559.615 293.982 559.698 293.105C559.781 292.229 559.494 291.373 558.838 290.537ZM559.365 296.699C558.112 297.684 556.824 298.098 555.502 297.939C554.192 297.772 553.031 297.043 552.017 295.754L548.273 290.992C547.259 289.702 546.826 288.402 546.972 287.089C547.13 285.767 547.836 284.614 549.089 283.628C550.355 282.634 551.642 282.22 552.952 282.388C554.274 282.546 555.442 283.27 556.455 284.559L560.2 289.321C561.213 290.61 561.641 291.916 561.482 293.238C561.336 294.55 560.63 295.704 559.365 296.699Z" fill="white"/>
<path d="M572.829 284.043L565.709 291.062L564.653 289.992L564.638 283.131L564.619 281.262C564.601 280.747 564.556 280.258 564.484 279.796C564.352 278.775 563.966 277.94 563.326 277.291C562.655 276.61 561.927 276.261 561.143 276.245C560.36 276.207 559.628 276.524 558.946 277.196C558.244 277.889 557.916 278.659 557.964 279.508C558.022 280.346 558.435 281.165 559.202 281.965L557.905 283.244C556.775 282.055 556.204 280.816 556.192 279.528C556.201 278.218 556.725 277.051 557.763 276.028C558.844 274.962 560.007 274.444 561.253 274.474C562.498 274.483 563.611 274.985 564.592 275.98C565.455 276.856 565.974 277.944 566.147 279.244C566.228 279.889 566.278 280.448 566.296 280.92C566.315 281.307 566.326 281.967 566.33 282.901L566.309 288.135L571.661 282.859L572.829 284.043Z" fill="white"/>
<path d="M580.511 274.737L574.178 282.474L573.015 281.522L572.269 274.702L572.052 272.846C571.979 272.335 571.883 271.854 571.762 271.402C571.522 270.401 571.049 269.612 570.344 269.035C569.604 268.429 568.843 268.16 568.062 268.227C567.279 268.273 566.585 268.666 565.979 269.406C565.354 270.17 565.11 270.971 565.248 271.809C565.395 272.636 565.893 273.407 566.741 274.12L565.587 275.53C564.337 274.468 563.638 273.297 563.488 272.017C563.358 270.714 563.755 269.498 564.678 268.37C565.64 267.195 566.741 266.557 567.983 266.454C569.222 266.331 570.382 266.711 571.463 267.596C572.415 268.375 573.046 269.402 573.356 270.676C573.506 271.309 573.615 271.859 573.683 272.327C573.743 272.71 573.824 273.365 573.928 274.293L574.464 279.5L579.224 273.684L580.511 274.737Z" fill="white"/>
<mask id="path-45-inside-3_148_13" fill="white">
<path fill-rule="evenodd" clip-rule="evenodd" d="M838.391 44.9411L728.912 44.1149L728.493 99.6465L837.972 100.473L838.391 44.9411ZM738.698 58.99C736.607 58.9742 734.899 60.6566 734.884 62.7477L734.874 64.0098C734.858 66.1008 736.541 67.8088 738.632 67.8246L828.242 68.5008C830.334 68.5166 832.041 66.8342 832.057 64.7431L832.067 63.481C832.083 61.39 830.4 59.682 828.309 59.6662L738.698 58.99Z"/>
</mask>
<path fill-rule="evenodd" clip-rule="evenodd" d="M838.391 44.9411L728.912 44.1149L728.493 99.6465L837.972 100.473L838.391 44.9411ZM738.698 58.99C736.607 58.9742 734.899 60.6566 734.884 62.7477L734.874 64.0098C734.858 66.1008 736.541 67.8088 738.632 67.8246L828.242 68.5008C830.334 68.5166 832.041 66.8342 832.057 64.7431L832.067 63.481C832.083 61.39 830.4 59.682 828.309 59.6662L738.698 58.99Z" fill="black"/>
<path d="M728.912 44.1149L728.927 42.115L726.927 42.0999L726.912 44.0999L728.912 44.1149ZM838.391 44.9411L840.391 44.9562L840.406 42.9563L838.406 42.9412L838.391 44.9411ZM728.493 99.6465L726.493 99.6315L726.478 101.631L728.478 101.646L728.493 99.6465ZM837.972 100.473L837.957 102.473L839.957 102.488L839.972 100.488L837.972 100.473ZM734.884 62.7477L736.883 62.7628L736.883 62.7628L734.884 62.7477ZM738.698 58.99L738.683 60.9899L738.698 58.99ZM734.874 64.0098L732.874 63.9947L732.874 63.9947L734.874 64.0098ZM738.632 67.8246L738.647 65.8246L738.647 65.8246L738.632 67.8246ZM828.242 68.5008L828.258 66.5009L828.242 68.5008ZM832.057 64.7431L834.057 64.7582L834.057 64.7582L832.057 64.7431ZM832.067 63.481L834.067 63.4961L834.067 63.4961L832.067 63.481ZM828.309 59.6662L828.324 57.6663L828.324 57.6663L828.309 59.6662ZM728.897 46.1149L838.376 46.9411L838.406 42.9412L728.927 42.115L728.897 46.1149ZM730.493 99.6616L730.912 44.13L726.912 44.0999L726.493 99.6315L730.493 99.6616ZM837.987 98.4728L728.508 97.6466L728.478 101.646L837.957 102.473L837.987 98.4728ZM836.391 44.926L835.972 100.458L839.972 100.488L840.391 44.9562L836.391 44.926ZM736.883 62.7628C736.891 61.7762 737.697 60.9825 738.683 60.9899L738.713 56.9901C735.518 56.9659 732.908 59.537 732.884 62.7326L736.883 62.7628ZM736.874 64.0248L736.883 62.7628L732.884 62.7326L732.874 63.9947L736.874 64.0248ZM738.647 65.8246C737.66 65.8172 736.867 65.0114 736.874 64.0248L732.874 63.9947C732.85 67.1903 735.421 69.8004 738.617 69.8245L738.647 65.8246ZM828.258 66.5009L738.647 65.8246L738.617 69.8245L828.227 70.5007L828.258 66.5009ZM830.057 64.728C830.05 65.7146 829.244 66.5083 828.258 66.5009L828.227 70.5007C831.423 70.5249 834.033 67.9538 834.057 64.7582L830.057 64.728ZM830.067 63.466L830.057 64.728L834.057 64.7582L834.067 63.4961L830.067 63.466ZM828.294 61.6662C829.281 61.6736 830.074 62.4794 830.067 63.466L834.067 63.4961C834.091 60.3005 831.52 57.6904 828.324 57.6663L828.294 61.6662ZM738.683 60.9899L828.294 61.6662L828.324 57.6663L738.713 56.9901L738.683 60.9899Z" fill="white" mask="url(#path-45-inside-3_148_13)"/>
<circle cx="780.827" cy="202.981" r="125.212" transform="rotate(27.4324 780.827 202.981)" fill="black" stroke="white" stroke-width="2"/>
<circle cx="781.934" cy="203.729" r="97.8141" transform="rotate(27.4324 781.934 203.729)" fill="black" fill-opacity="0.51" stroke="white" stroke-width="1.26212"/>
<circle cx="781.059" cy="203.37" r="89.6104" transform="rotate(27.4324 781.059 203.37)" stroke="white" stroke-width="3.78635"/>
<path d="M794.711 223.521C791.285 226.631 786.515 228.186 780.401 228.186C774.288 228.186 769.439 226.42 765.855 222.889C762.271 219.358 760.452 214.377 760.4 207.947L772.258 207.947C772.416 213.955 775.236 216.96 780.718 216.96C782.826 216.96 784.46 216.406 785.619 215.299C786.779 214.14 787.359 212.585 787.359 210.635C787.359 206.313 784.802 204.152 779.69 204.152L776.528 204.152L776.528 192.926L779.69 192.926C784.012 192.926 786.173 191.002 786.173 187.154C786.173 185.468 785.646 184.15 784.592 183.201C783.537 182.2 782.114 181.699 780.322 181.699C775.842 181.699 773.576 184.308 773.523 189.526L761.664 189.526C761.664 183.465 763.298 178.774 766.566 175.454C769.887 172.133 774.472 170.473 780.322 170.473C785.909 170.473 790.31 171.896 793.525 174.742C796.74 177.588 798.348 181.357 798.348 186.048C798.348 190.896 796.371 194.849 792.418 197.906C794.579 198.855 796.345 200.515 797.715 202.887C799.138 205.259 799.85 207.894 799.85 210.793C799.85 216.169 798.137 220.412 794.711 223.521Z" fill="white"/>
<path d="M684.618 271.074C683.537 269.477 683.109 267.951 683.335 266.497C683.581 265.046 684.452 263.815 685.948 262.801L690.21 259.915C691.707 258.902 693.167 258.555 694.593 258.873C696.04 259.195 697.304 260.155 698.385 261.751C699.313 263.122 699.704 264.526 699.559 265.963C699.413 267.4 698.612 268.612 697.153 269.6L696.965 269.727L695.854 268.087L696.042 267.959C697.01 267.303 697.529 266.485 697.597 265.503C697.687 264.525 697.443 263.609 696.864 262.754C696.123 261.66 695.276 261.005 694.323 260.789C693.39 260.577 692.428 260.807 691.435 261.479L686.946 264.519C685.953 265.191 685.376 266.004 685.214 266.957C685.074 267.914 685.374 268.939 686.114 270.033C686.693 270.888 687.453 271.455 688.394 271.735C689.331 272.035 690.284 271.858 691.252 271.203L691.441 271.075L692.552 272.716L692.363 272.843C690.905 273.831 689.481 274.125 688.093 273.727C686.705 273.328 685.546 272.444 684.618 271.074Z" fill="white"/>
<path d="M690.775 279.206L689.567 277.843L690.061 277.405L705.442 271.719L706.756 273.202L699.275 287.803L698.781 288.241L697.482 286.775L699.595 282.772L695.034 277.624L690.775 279.206ZM704.099 274.187L696.688 276.95L700.449 281.194L704.099 274.187Z" fill="white"/>
<path d="M702.171 291.673L700.676 290.373L711.139 278.344L716.174 282.723C717.274 283.68 717.848 284.743 717.897 285.912C717.958 287.092 717.495 288.249 716.508 289.383C714.974 291.147 713.205 291.631 711.201 290.834L709.822 297.452L709.388 297.951L707.91 296.665L709.387 289.588L706.311 286.913L702.171 291.673ZM711.483 280.967L707.462 285.59L710.744 288.445C711.455 289.062 712.168 289.341 712.885 289.28C713.623 289.218 714.321 288.809 714.979 288.053C716.314 286.518 716.243 285.107 714.765 283.822L711.483 280.967Z" fill="white"/>
<path d="M713.34 300.312L711.821 299.306L712.185 298.755L725.578 289.293L727.23 290.387L723.77 306.424L723.405 306.975L721.772 305.894L722.781 301.481L717.046 297.684L713.34 300.312ZM724.917 292.024L718.47 296.606L723.199 299.736L724.917 292.024Z" fill="white"/>
<path d="M731.495 310.782L729.71 309.923L735.864 297.138L731.493 295.034L732.254 293.454L742.761 298.512L742 300.092L737.65 297.997L731.495 310.782Z" fill="white"/>
<path d="M748.728 318.011L739.392 314.561L744.919 299.607L754.233 303.049L753.625 304.694L746.17 301.939L744.338 306.895L750.789 309.279L750.181 310.924L743.73 308.54L741.859 313.603L749.336 316.366L748.728 318.011Z" fill="white"/>
<path d="M758.157 320.699L756.273 320.366L759.052 304.667L760.936 305.001L764.595 313.859L771.073 306.795L772.889 307.117L770.11 322.815L768.226 322.482L770.394 310.237L764.775 316.366L763.497 316.14L760.32 308.477L758.157 320.699Z" fill="white"/>
<path d="M777.013 322.786L775.032 322.719L775.571 306.785L777.552 306.852L777.013 322.786Z" fill="white"/>
<path d="M792.87 322.444L782.736 322.524L782.611 306.582L784.592 306.566L784.703 320.755L792.857 320.691L792.87 322.444Z" fill="white"/>
<path d="M796.495 322.119L794.68 322.284L794.62 321.626L799.155 305.868L801.128 305.688L808.456 320.366L808.516 321.024L806.565 321.202L804.594 317.127L797.744 317.751L796.495 322.119ZM800.347 308.412L798.181 316.019L803.828 315.505L800.347 308.412Z" fill="white"/>
<path d="M812.497 319.606L810.625 320.254L805.412 305.188L807.134 304.592L818.638 313.602L814.624 302.001L816.496 301.353L821.709 316.419L819.987 317.015L808.491 308.027L812.497 319.606Z" fill="white"/>
<path d="M829.375 311.013C830.564 310.512 831.362 309.805 831.769 308.893C832.183 307.96 832.166 306.962 831.718 305.899L829.632 300.945C829.184 299.882 828.484 299.18 827.534 298.839C826.591 298.478 825.525 298.548 824.335 299.049C823.132 299.556 822.33 300.273 821.929 301.2C821.523 302.112 821.544 303.1 821.992 304.164L824.078 309.117C824.526 310.181 825.222 310.893 826.164 311.253C827.101 311.6 828.171 311.52 829.375 311.013ZM822.217 309.802L820.201 305.017C819.511 303.38 819.473 301.88 820.085 300.518C820.712 299.15 821.893 298.101 823.628 297.37C825.363 296.639 826.932 296.53 828.334 297.044C829.751 297.551 830.804 298.623 831.493 300.26L833.509 305.046C834.199 306.683 834.23 308.185 833.604 309.553C832.991 310.915 831.817 311.962 830.082 312.692C828.347 313.423 826.771 313.535 825.355 313.028C823.952 312.515 822.906 311.44 822.217 309.802Z" fill="white"/>
<path d="M847.945 300.641L839.443 305.901L838.652 304.623L840.162 297.93L840.559 296.105C840.657 295.598 840.722 295.111 840.754 294.645C840.852 293.62 840.662 292.72 840.182 291.946C839.679 291.132 839.047 290.63 838.287 290.44C837.531 290.229 836.747 290.375 835.933 290.878C835.094 291.398 834.603 292.076 834.461 292.914C834.332 293.744 834.552 294.634 835.123 295.585L833.573 296.543C832.736 295.133 832.455 293.798 832.729 292.539C833.03 291.264 833.8 290.243 835.039 289.476C836.331 288.678 837.58 288.431 838.787 288.738C839.999 289.024 840.973 289.76 841.708 290.948C842.355 291.994 842.618 293.17 842.498 294.477C842.434 295.123 842.358 295.679 842.271 296.144C842.203 296.525 842.067 297.171 841.864 298.083L840.679 303.181L847.071 299.227L847.945 300.641Z" fill="white"/>
<path d="M854.295 290.537L850.424 285.613C849.767 284.778 849.002 284.297 848.131 284.171C847.25 284.033 846.398 284.288 845.574 284.935C844.75 285.583 844.302 286.351 844.228 287.24C844.156 288.107 844.449 288.958 845.106 289.794L848.977 294.718C849.634 295.553 850.392 296.039 851.252 296.174C852.123 296.3 852.971 296.039 853.795 295.392C854.618 294.744 855.072 293.982 855.155 293.105C855.238 292.229 854.951 291.373 854.295 290.537ZM854.822 296.699C853.569 297.684 852.281 298.098 850.959 297.939C849.649 297.772 848.488 297.043 847.474 295.754L843.73 290.992C842.716 289.702 842.283 288.402 842.429 287.089C842.587 285.767 843.293 284.614 844.546 283.628C845.812 282.634 847.099 282.22 848.409 282.388C849.731 282.546 850.899 283.27 851.912 284.559L855.657 289.321C856.67 290.61 857.098 291.916 856.939 293.238C856.793 294.55 856.087 295.704 854.822 296.699Z" fill="white"/>
<path d="M868.286 284.043L861.166 291.062L860.11 289.992L860.095 283.131L860.076 281.262C860.058 280.747 860.013 280.258 859.941 279.796C859.809 278.775 859.423 277.94 858.783 277.291C858.112 276.61 857.384 276.261 856.6 276.245C855.817 276.207 855.085 276.524 854.403 277.196C853.701 277.889 853.373 278.659 853.421 279.508C853.479 280.346 853.892 281.165 854.659 281.965L853.362 283.244C852.232 282.055 851.661 280.816 851.649 279.528C851.658 278.218 852.182 277.051 853.22 276.028C854.301 274.962 855.464 274.444 856.71 274.474C857.955 274.483 859.068 274.985 860.049 275.98C860.912 276.856 861.431 277.944 861.604 279.244C861.685 279.889 861.735 280.448 861.753 280.92C861.772 281.307 861.783 281.967 861.787 282.901L861.766 288.135L867.118 282.859L868.286 284.043Z" fill="white"/>
<path d="M875.968 274.737L869.635 282.474L868.472 281.522L867.726 274.702L867.509 272.846C867.436 272.335 867.34 271.854 867.219 271.402C866.979 270.401 866.506 269.612 865.801 269.035C865.061 268.429 864.3 268.16 863.519 268.227C862.736 268.273 862.042 268.666 861.436 269.406C860.811 270.17 860.567 270.971 860.705 271.809C860.852 272.636 861.35 273.407 862.198 274.12L861.044 275.53C859.794 274.468 859.095 273.297 858.945 272.017C858.815 270.714 859.212 269.498 860.135 268.37C861.097 267.195 862.198 266.557 863.44 266.454C864.679 266.331 865.839 266.711 866.92 267.596C867.872 268.375 868.503 269.402 868.814 270.676C868.963 271.309 869.072 271.859 869.14 272.327C869.2 272.71 869.281 273.365 869.385 274.293L869.921 279.5L874.681 273.684L875.968 274.737Z" fill="white"/>
<mask id="path-67-inside-4_148_13" fill="white">
<path fill-rule="evenodd" clip-rule="evenodd" d="M1133.85 44.9411L1024.37 44.1149L1023.95 99.6465L1133.43 100.473L1133.85 44.9411ZM1034.15 58.99C1032.06 58.9742 1030.35 60.6566 1030.34 62.7477L1030.33 64.0098C1030.31 66.1008 1032 67.8088 1034.09 67.8246L1123.7 68.5008C1125.79 68.5166 1127.5 66.8342 1127.51 64.7431L1127.52 63.481C1127.54 61.39 1125.86 59.682 1123.76 59.6662L1034.15 58.99Z"/>
</mask>
<path fill-rule="evenodd" clip-rule="evenodd" d="M1133.85 44.9411L1024.37 44.1149L1023.95 99.6465L1133.43 100.473L1133.85 44.9411ZM1034.15 58.99C1032.06 58.9742 1030.35 60.6566 1030.34 62.7477L1030.33 64.0098C1030.31 66.1008 1032 67.8088 1034.09 67.8246L1123.7 68.5008C1125.79 68.5166 1127.5 66.8342 1127.51 64.7431L1127.52 63.481C1127.54 61.39 1125.86 59.682 1123.76 59.6662L1034.15 58.99Z" fill="black"/>
<path d="M1024.37 44.1149L1024.38 42.115L1022.38 42.0999L1022.37 44.0999L1024.37 44.1149ZM1133.85 44.9411L1135.85 44.9562L1135.86 42.9563L1133.86 42.9412L1133.85 44.9411ZM1023.95 99.6465L1021.95 99.6315L1021.93 101.631L1023.93 101.646L1023.95 99.6465ZM1133.43 100.473L1133.41 102.473L1135.41 102.488L1135.43 100.488L1133.43 100.473ZM1030.34 62.7477L1032.34 62.7628L1032.34 62.7628L1030.34 62.7477ZM1034.15 58.99L1034.14 60.9899L1034.15 58.99ZM1030.33 64.0098L1028.33 63.9947L1028.33 63.9947L1030.33 64.0098ZM1034.09 67.8246L1034.1 65.8246L1034.1 65.8246L1034.09 67.8246ZM1123.7 68.5008L1123.71 66.5009L1123.7 68.5008ZM1127.51 64.7431L1129.51 64.7582L1129.51 64.7582L1127.51 64.7431ZM1127.52 63.481L1129.52 63.4961L1129.52 63.4961L1127.52 63.481ZM1123.76 59.6662L1123.78 57.6663L1123.78 57.6663L1123.76 59.6662ZM1024.35 46.1149L1133.83 46.9411L1133.86 42.9412L1024.38 42.115L1024.35 46.1149ZM1025.95 99.6616L1026.37 44.13L1022.37 44.0999L1021.95 99.6315L1025.95 99.6616ZM1133.44 98.4728L1023.96 97.6466L1023.93 101.646L1133.41 102.473L1133.44 98.4728ZM1131.85 44.926L1131.43 100.458L1135.43 100.488L1135.85 44.9562L1131.85 44.926ZM1032.34 62.7628C1032.35 61.7762 1033.15 60.9825 1034.14 60.9899L1034.17 56.9901C1030.97 56.9659 1028.36 59.537 1028.34 62.7326L1032.34 62.7628ZM1032.33 64.0248L1032.34 62.7628L1028.34 62.7326L1028.33 63.9947L1032.33 64.0248ZM1034.1 65.8246C1033.12 65.8172 1032.32 65.0114 1032.33 64.0248L1028.33 63.9947C1028.31 67.1903 1030.88 69.8004 1034.07 69.8245L1034.1 65.8246ZM1123.71 66.5009L1034.1 65.8246L1034.07 69.8245L1123.68 70.5007L1123.71 66.5009ZM1125.51 64.728C1125.5 65.7146 1124.7 66.5083 1123.71 66.5009L1123.68 70.5007C1126.88 70.5249 1129.49 67.9538 1129.51 64.7582L1125.51 64.728ZM1125.52 63.466L1125.51 64.728L1129.51 64.7582L1129.52 63.4961L1125.52 63.466ZM1123.75 61.6662C1124.74 61.6736 1125.53 62.4794 1125.52 63.466L1129.52 63.4961C1129.55 60.3005 1126.97 57.6904 1123.78 57.6663L1123.75 61.6662ZM1034.14 60.9899L1123.75 61.6662L1123.78 57.6663L1034.17 56.9901L1034.14 60.9899Z" fill="white" mask="url(#path-67-inside-4_148_13)"/>
<circle cx="1076.28" cy="202.981" r="125.212" transform="rotate(27.4324 1076.28 202.981)" fill="black" stroke="white" stroke-width="2"/>
<circle cx="1077.39" cy="203.729" r="97.8141" transform="rotate(27.4324 1077.39 203.729)" fill="black" fill-opacity="0.51" stroke="white" stroke-width="1.26212"/>
<circle cx="1076.06" cy="203.37" r="89.6104" transform="rotate(27.4324 1076.06 203.37)" stroke="white" stroke-width="3.78635"/>
<path d="M1091.03 227L1078.85 227L1078.85 217.75L1054.97 217.75L1054.97 208.184L1071.97 171.659L1082.49 171.659L1082.49 176.165L1068.57 206.524L1078.85 206.524L1078.85 194.507L1091.03 194.507L1091.03 206.524L1096.88 206.524L1096.88 217.75L1091.03 217.75L1091.03 227Z" fill="white"/>
<path d="M980.073 271.074C978.992 269.477 978.564 267.951 978.79 266.497C979.036 265.046 979.907 263.815 981.403 262.801L985.665 259.915C987.162 258.902 988.622 258.555 990.048 258.873C991.495 259.195 992.759 260.155 993.84 261.751C994.768 263.122 995.159 264.526 995.014 265.963C994.869 267.4 994.067 268.612 992.608 269.6L992.42 269.727L991.309 268.087L991.497 267.959C992.465 267.303 992.984 266.485 993.052 265.503C993.142 264.525 992.898 263.609 992.319 262.754C991.578 261.66 990.731 261.005 989.778 260.789C988.846 260.577 987.883 260.807 986.89 261.479L982.401 264.519C981.408 265.191 980.831 266.004 980.669 266.957C980.529 267.914 980.829 268.939 981.569 270.033C982.148 270.888 982.908 271.455 983.849 271.735C984.787 272.035 985.739 271.858 986.707 271.203L986.896 271.075L988.007 272.716L987.818 272.843C986.36 273.831 984.936 274.125 983.548 273.727C982.16 273.328 981.001 272.444 980.073 271.074Z" fill="white"/>
<path d="M986.231 279.206L985.022 277.843L985.517 277.405L1000.9 271.719L1002.21 273.202L994.73 287.803L994.236 288.241L992.937 286.775L995.05 282.772L990.489 277.624L986.231 279.206ZM999.554 274.187L992.143 276.95L995.904 281.194L999.554 274.187Z" fill="white"/>
<path d="M997.626 291.673L996.131 290.373L1006.59 278.344L1011.63 282.723C1012.73 283.68 1013.3 284.743 1013.35 285.912C1013.41 287.092 1012.95 288.249 1011.96 289.383C1010.43 291.147 1008.66 291.631 1006.66 290.834L1005.28 297.452L1004.84 297.951L1003.37 296.665L1004.84 289.588L1001.77 286.913L997.626 291.673ZM1006.94 280.967L1002.92 285.59L1006.2 288.445C1006.91 289.062 1007.62 289.341 1008.34 289.28C1009.08 289.218 1009.78 288.809 1010.43 288.053C1011.77 286.518 1011.7 285.107 1010.22 283.822L1006.94 280.967Z" fill="white"/>
<path d="M1008.8 300.312L1007.28 299.306L1007.64 298.755L1021.03 289.293L1022.68 290.387L1019.23 306.424L1018.86 306.975L1017.23 305.894L1018.24 301.481L1012.5 297.684L1008.8 300.312ZM1020.37 292.024L1013.92 296.606L1018.65 299.736L1020.37 292.024Z" fill="white"/>
<path d="M1026.95 310.782L1025.16 309.923L1031.32 297.138L1026.95 295.034L1027.71 293.454L1038.22 298.512L1037.46 300.092L1033.1 297.997L1026.95 310.782Z" fill="white"/>
<path d="M1044.18 318.011L1034.85 314.561L1040.37 299.607L1049.69 303.049L1049.08 304.694L1041.62 301.939L1039.79 306.895L1046.24 309.279L1045.64 310.924L1039.18 308.54L1037.31 313.603L1044.79 316.366L1044.18 318.011Z" fill="white"/>
<path d="M1053.61 320.699L1051.73 320.366L1054.51 304.667L1056.39 305.001L1060.05 313.859L1066.53 306.795L1068.34 307.117L1065.57 322.815L1063.68 322.482L1065.85 310.237L1060.23 316.366L1058.95 316.14L1055.78 308.477L1053.61 320.699Z" fill="white"/>
<path d="M1072.47 322.786L1070.49 322.719L1071.03 306.785L1073.01 306.852L1072.47 322.786Z" fill="white"/>
<path d="M1088.33 322.444L1078.19 322.524L1078.07 306.582L1080.05 306.566L1080.16 320.755L1088.31 320.691L1088.33 322.444Z" fill="white"/>
<path d="M1091.95 322.119L1090.14 322.284L1090.08 321.626L1094.61 305.868L1096.58 305.688L1103.91 320.366L1103.97 321.024L1102.02 321.202L1100.05 317.127L1093.2 317.751L1091.95 322.119ZM1095.8 308.412L1093.64 316.019L1099.28 315.505L1095.8 308.412Z" fill="white"/>
<path d="M1107.95 319.606L1106.08 320.254L1100.87 305.188L1102.59 304.592L1114.09 313.602L1110.08 302.001L1111.95 301.353L1117.16 316.419L1115.44 317.015L1103.95 308.027L1107.95 319.606Z" fill="white"/>
<path d="M1124.83 311.013C1126.02 310.512 1126.82 309.805 1127.22 308.893C1127.64 307.96 1127.62 306.962 1127.17 305.899L1125.09 300.945C1124.64 299.882 1123.94 299.18 1122.99 298.839C1122.05 298.478 1120.98 298.548 1119.79 299.049C1118.59 299.556 1117.79 300.273 1117.38 301.2C1116.98 302.112 1117 303.1 1117.45 304.164L1119.53 309.117C1119.98 310.181 1120.68 310.893 1121.62 311.253C1122.56 311.6 1123.63 311.52 1124.83 311.013ZM1117.67 309.802L1115.66 305.017C1114.97 303.38 1114.93 301.88 1115.54 300.518C1116.17 299.15 1117.35 298.101 1119.08 297.37C1120.82 296.639 1122.39 296.53 1123.79 297.044C1125.21 297.551 1126.26 298.623 1126.95 300.26L1128.96 305.046C1129.65 306.683 1129.69 308.185 1129.06 309.553C1128.45 310.915 1127.27 311.962 1125.54 312.692C1123.8 313.423 1122.23 313.535 1120.81 313.028C1119.41 312.515 1118.36 311.44 1117.67 309.802Z" fill="white"/>
<path d="M1143.4 300.641L1134.9 305.901L1134.11 304.623L1135.62 297.93L1136.01 296.105C1136.11 295.598 1136.18 295.111 1136.21 294.645C1136.31 293.62 1136.12 292.72 1135.64 291.946C1135.13 291.132 1134.5 290.63 1133.74 290.44C1132.99 290.229 1132.2 290.375 1131.39 290.878C1130.55 291.398 1130.06 292.076 1129.92 292.914C1129.79 293.744 1130.01 294.634 1130.58 295.585L1129.03 296.543C1128.19 295.133 1127.91 293.798 1128.18 292.539C1128.48 291.264 1129.25 290.243 1130.49 289.476C1131.79 288.678 1133.03 288.431 1134.24 288.738C1135.45 289.024 1136.43 289.76 1137.16 290.948C1137.81 291.994 1138.07 293.17 1137.95 294.477C1137.89 295.123 1137.81 295.679 1137.73 296.144C1137.66 296.525 1137.52 297.171 1137.32 298.083L1136.13 303.181L1142.53 299.227L1143.4 300.641Z" fill="white"/>
<path d="M1149.75 290.537L1145.88 285.613C1145.22 284.778 1144.46 284.297 1143.59 284.171C1142.7 284.033 1141.85 284.288 1141.03 284.935C1140.21 285.583 1139.76 286.351 1139.68 287.24C1139.61 288.107 1139.9 288.958 1140.56 289.794L1144.43 294.718C1145.09 295.553 1145.85 296.039 1146.71 296.174C1147.58 296.3 1148.43 296.039 1149.25 295.392C1150.07 294.744 1150.53 293.982 1150.61 293.105C1150.69 292.229 1150.41 291.373 1149.75 290.537ZM1150.28 296.699C1149.02 297.684 1147.74 298.098 1146.41 297.939C1145.1 297.772 1143.94 297.043 1142.93 295.754L1139.18 290.992C1138.17 289.702 1137.74 288.402 1137.88 287.089C1138.04 285.767 1138.75 284.614 1140 283.628C1141.27 282.634 1142.55 282.22 1143.86 282.388C1145.19 282.546 1146.35 283.27 1147.37 284.559L1151.11 289.321C1152.13 290.61 1152.55 291.916 1152.39 293.238C1152.25 294.55 1151.54 295.704 1150.28 296.699Z" fill="white"/>
<path d="M1163.74 284.043L1156.62 291.062L1155.57 289.992L1155.55 283.131L1155.53 281.262C1155.51 280.747 1155.47 280.258 1155.4 279.796C1155.26 278.775 1154.88 277.94 1154.24 277.291C1153.57 276.61 1152.84 276.261 1152.06 276.245C1151.27 276.207 1150.54 276.524 1149.86 277.196C1149.16 277.889 1148.83 278.659 1148.88 279.508C1148.93 280.346 1149.35 281.165 1150.11 281.965L1148.82 283.244C1147.69 282.055 1147.12 280.816 1147.1 279.528C1147.11 278.218 1147.64 277.051 1148.67 276.028C1149.76 274.962 1150.92 274.444 1152.16 274.474C1153.41 274.483 1154.52 274.985 1155.5 275.98C1156.37 276.856 1156.89 277.944 1157.06 279.244C1157.14 279.889 1157.19 280.448 1157.21 280.92C1157.23 281.307 1157.24 281.967 1157.24 282.901L1157.22 288.135L1162.57 282.859L1163.74 284.043Z" fill="white"/>
<path d="M1171.42 274.737L1165.09 282.474L1163.93 281.522L1163.18 274.702L1162.96 272.846C1162.89 272.335 1162.79 271.854 1162.67 271.402C1162.43 270.401 1161.96 269.612 1161.26 269.035C1160.52 268.429 1159.76 268.16 1158.97 268.227C1158.19 268.273 1157.5 268.666 1156.89 269.406C1156.27 270.17 1156.02 270.971 1156.16 271.809C1156.31 272.636 1156.8 273.407 1157.65 274.12L1156.5 275.53C1155.25 274.468 1154.55 273.297 1154.4 272.017C1154.27 270.714 1154.67 269.498 1155.59 268.37C1156.55 267.195 1157.65 266.557 1158.89 266.454C1160.13 266.331 1161.29 266.711 1162.38 267.596C1163.33 268.375 1163.96 269.402 1164.27 270.676C1164.42 271.309 1164.53 271.859 1164.6 272.327C1164.65 272.71 1164.74 273.365 1164.84 274.293L1165.38 279.5L1170.14 273.684L1171.42 274.737Z" fill="white"/>
</svg>
