<svg width="405" height="222" viewBox="0 0 405 222" fill="none" xmlns="http://www.w3.org/2000/svg">
<g style="mix-blend-mode:luminosity">
<g style="mix-blend-mode:luminosity">
<mask id="path-1-inside-1_391_75" fill="white">
<path fill-rule="evenodd" clip-rule="evenodd" d="M0 0L0 222L405 222L405 0L0 0ZM391.5 111C391.5 104.925 386.575 100 380.5 100C374.425 100 369.5 104.925 369.5 111C369.5 117.075 374.425 122 380.5 122C386.575 122 391.5 117.075 391.5 111Z"/>
</mask>
<path fill-rule="evenodd" clip-rule="evenodd" d="M0 0L0 222L405 222L405 0L0 0ZM391.5 111C391.5 104.925 386.575 100 380.5 100C374.425 100 369.5 104.925 369.5 111C369.5 117.075 374.425 122 380.5 122C386.575 122 391.5 117.075 391.5 111Z" fill="#FCFCFC"/>
<path d="M0 222H-0.5L-0.5 222.5H0L0 222ZM0 0L0 -0.5H-0.5L-0.5 0H0ZM405 222V222.5H405.5V222H405ZM405 0H405.5V-0.5H405V0ZM0.5 222L0.5 0H-0.5L-0.5 222H0.5ZM405 221.5L0 221.5L0 222.5L405 222.5V221.5ZM404.5 0L404.5 222H405.5L405.5 0H404.5ZM0 0.5L405 0.5V-0.5L0 -0.5L0 0.5ZM380.5 100.5C386.299 100.5 391 105.201 391 111H392C392 104.649 386.851 99.5 380.5 99.5V100.5ZM370 111C370 105.201 374.701 100.5 380.5 100.5V99.5C374.149 99.5 369 104.649 369 111H370ZM380.5 121.5C374.701 121.5 370 116.799 370 111H369C369 117.351 374.149 122.5 380.5 122.5V121.5ZM391 111C391 116.799 386.299 121.5 380.5 121.5V122.5C386.851 122.5 392 117.351 392 111H391Z" fill="#565656" mask="url(#path-1-inside-1_391_75)"/>
</g>
<line x1="14.5" y1="20" x2="390.5" y2="20" stroke="black" stroke-opacity="0.5"/>
<line x1="14.5" y1="142" x2="109.5" y2="142" stroke="black" stroke-opacity="0.5"/>
<line x1="140.5" y1="142" x2="235.5" y2="142" stroke="black" stroke-opacity="0.5"/>
<line x1="266.5" y1="142" x2="361.5" y2="142" stroke="black" stroke-opacity="0.5"/>
<path d="M21.428 31.5H15.268V25.9H15.732V31.084H18.116V25.9H18.58V31.084H20.964V25.9H21.428V31.5ZM23.1473 31.5H22.6833V25.9H23.1473V28.476H24.2033L25.9713 25.9H26.4033V26.06L24.6033 28.66L26.4993 31.34V31.5H26.0433L24.2113 28.892H23.1473V31.5ZM30.6982 29.644V27.756C30.6982 27.276 30.5516 26.9 30.2582 26.628C29.9702 26.3507 29.5702 26.212 29.0582 26.212C28.5462 26.212 28.1436 26.3507 27.8502 26.628C27.5622 26.9 27.4182 27.276 27.4182 27.756V29.644C27.4182 30.124 27.5622 30.5027 27.8502 30.78C28.1436 31.052 28.5462 31.188 29.0582 31.188C29.5702 31.188 29.9702 31.052 30.2582 30.78C30.5516 30.5027 30.6982 30.124 30.6982 29.644ZM29.0582 31.62C28.4022 31.62 27.8876 31.444 27.5142 31.092C27.1409 30.7347 26.9542 30.244 26.9542 29.62V27.78C26.9542 27.156 27.1409 26.668 27.5142 26.316C27.8876 25.9587 28.4022 25.78 29.0582 25.78C29.7036 25.78 30.2156 25.9587 30.5942 26.316C30.9729 26.6733 31.1623 27.1613 31.1623 27.78V29.62C31.1623 30.2387 30.9729 30.7267 30.5942 31.084C30.2156 31.4413 29.7036 31.62 29.0582 31.62ZM31.6561 31.5V31.068C32.0828 31.068 32.3815 30.8947 32.5521 30.548C32.7175 30.212 32.8001 29.5747 32.8001 28.636V25.9H36.1201V31.5H35.6561V26.316H33.2561V28.628C33.2561 29.6787 33.1308 30.4227 32.8801 30.86C32.6295 31.2867 32.2215 31.5 31.6561 31.5ZM37.2386 31.5H36.8146V31.34L38.9826 25.9H39.4546L41.6306 31.34V31.5H41.1746L40.5506 29.916H37.8706L37.2386 31.5ZM39.2146 26.516L38.0146 29.516H40.4066L39.2146 26.516ZM44.5676 31.5H44.1036V25.9H44.5676V28.476H45.6236L47.3916 25.9H47.8236V26.06L46.0236 28.66L47.9196 31.34V31.5H47.4636L45.6316 28.892H44.5676V31.5ZM48.4767 31.5H48.0527V31.34L50.2207 25.9H50.6927L52.8687 31.34V31.5H52.4127L51.7887 29.916H49.1087L48.4767 31.5ZM50.4527 26.516L49.2527 29.516H51.6447L50.4527 26.516ZM54.0311 31.5H53.5671V25.9H55.8391C56.3137 25.9 56.6844 26.0493 56.9511 26.348C57.2177 26.6413 57.3511 27.044 57.3511 27.556C57.3511 28.068 57.2177 28.4707 56.9511 28.764C56.6844 29.0573 56.3137 29.204 55.8391 29.204H54.0311V31.5ZM54.0311 26.316V28.788H55.7671C56.1084 28.788 56.3777 28.6787 56.5751 28.46C56.7777 28.2413 56.8791 27.94 56.8791 27.556C56.8791 27.172 56.7777 26.8707 56.5751 26.652C56.3777 26.428 56.1084 26.316 55.7671 26.316H54.0311ZM57.7917 31.5H57.3677V31.34L59.5357 25.9H60.0077L62.1837 31.34V31.5H61.7277L61.1037 29.916H58.4237L57.7917 31.5ZM59.7677 26.516L58.5677 29.516H60.9597L59.7677 26.516ZM64.0697 31.5H63.6057V26.316H61.8377V25.9H65.8377V26.316H64.0697V31.5ZM68.3079 31.62C67.7426 31.62 67.2626 31.4627 66.8679 31.148C66.4839 30.828 66.2919 30.3747 66.2919 29.788V29.708H66.7559V29.788C66.7559 30.2253 66.9079 30.5693 67.2119 30.82C67.5213 31.0653 67.8866 31.188 68.3079 31.188C68.8306 31.188 69.2359 31.0547 69.5239 30.788C69.8119 30.5213 69.9559 30.1507 69.9559 29.676V28.892H67.5479V28.476H69.9559V27.724C69.9559 27.2493 69.8119 26.8787 69.5239 26.612C69.2359 26.3453 68.8306 26.212 68.3079 26.212C67.8866 26.212 67.5213 26.3347 67.2119 26.58C66.9079 26.8307 66.7559 27.1747 66.7559 27.612V27.692H66.2919V27.612C66.2919 27.0253 66.4839 26.5747 66.8679 26.26C67.2573 25.94 67.7373 25.78 68.3079 25.78C68.9693 25.78 69.4866 25.9533 69.8599 26.3C70.2333 26.6467 70.4199 27.132 70.4199 27.756V29.644C70.4199 30.268 70.2333 30.7533 69.8599 31.1C69.4866 31.4467 68.9693 31.62 68.3079 31.62ZM74.6361 30.996H74.2521L72.8921 29.348L74.2521 27.7H74.6361V27.876L73.4121 29.348L74.6361 30.82V30.996ZM76.2521 30.996H75.8681L74.5081 29.348L75.8681 27.7H76.2521V27.876L75.0281 29.348L76.2521 30.82V30.996ZM77.7183 31.5H77.2543V25.9H77.7183V28.476H78.7743L80.5423 25.9H80.9743V26.06L79.1743 28.66L81.0703 31.34V31.5H80.6143L78.7823 28.892H77.7183V31.5ZM81.7153 31.5H81.2833V31.34L83.1553 28.652L81.3393 26.06V25.9H81.8033L83.4433 28.284L85.1073 25.9H85.5393V26.06L83.7233 28.652L85.6033 31.34V31.5H85.1393L83.4273 29.02L81.7153 31.5ZM86.8137 31.5H86.3817V25.9H86.8457V30.684L89.9737 25.9H90.4057V31.5H89.9417V26.716L86.8137 31.5ZM91.8162 31.5H91.3682V31.34L92.7282 29.172C92.3336 29.1133 92.0269 28.9453 91.8082 28.668C91.5896 28.3907 91.4802 28.0173 91.4802 27.548C91.4802 27.0307 91.6136 26.628 91.8802 26.34C92.1522 26.0467 92.5336 25.9 93.0242 25.9H95.2722V31.5H94.8082V29.212H93.2322L91.8162 31.5ZM93.1042 28.796H94.8082V26.316H93.1042C92.7416 26.316 92.4589 26.4253 92.2562 26.644C92.0589 26.8627 91.9602 27.1667 91.9602 27.556C91.9602 27.9507 92.0589 28.2573 92.2562 28.476C92.4589 28.6893 92.7416 28.796 93.1042 28.796ZM96.6529 27.7L98.0129 29.348L96.6529 30.996H96.2689V30.82L97.4929 29.348L96.2689 27.876V27.7H96.6529ZM98.2689 27.7L99.6289 29.348L98.2689 30.996H97.8849V30.82L99.1089 29.348L97.8849 27.876V27.7H98.2689Z" fill="black" fill-opacity="0.8"/>
<path d="M15.76 152.5H15.151V147.6H15.76V149.77H16.544L17.965 147.6H18.532V147.803L17.076 150.008L18.623 152.297V152.5H18.021L16.551 150.309H15.76V152.5ZM20.8668 152.045C21.2634 152.045 21.5738 151.94 21.7978 151.73C22.0264 151.515 22.1408 151.231 22.1408 150.876V149.224C22.1408 148.869 22.0264 148.587 21.7978 148.377C21.5738 148.162 21.2634 148.055 20.8668 148.055C20.4654 148.055 20.1528 148.162 19.9288 148.377C19.7048 148.587 19.5928 148.869 19.5928 149.224V150.876C19.5928 151.231 19.7048 151.515 19.9288 151.73C20.1528 151.94 20.4654 152.045 20.8668 152.045ZM18.9838 150.848V149.252C18.9838 148.706 19.1518 148.277 19.4878 147.964C19.8284 147.651 20.2881 147.495 20.8668 147.495C21.4454 147.495 21.9028 147.651 22.2388 147.964C22.5794 148.277 22.7498 148.706 22.7498 149.252V150.848C22.7498 151.394 22.5794 151.823 22.2388 152.136C21.9028 152.449 21.4454 152.605 20.8668 152.605C20.2881 152.605 19.8284 152.449 19.4878 152.136C19.1518 151.823 18.9838 151.394 18.9838 150.848ZM23.1249 152.5V151.94C23.4983 151.94 23.7503 151.807 23.8809 151.541C24.0163 151.27 24.0839 150.752 24.0839 149.987V147.6H27.0659V152.5H26.4569V148.139H24.6579V150.05C24.6579 150.96 24.5366 151.595 24.2939 151.954C24.0559 152.318 23.6663 152.5 23.1249 152.5ZM28.6821 152.5H28.1221V147.6H28.7311V151.443L31.1881 147.6H31.7481V152.5H31.1391V148.657L28.6821 152.5ZM36.0398 152.5H35.4308V150.421C35.0668 150.547 34.7004 150.61 34.3318 150.61C33.1744 150.61 32.5958 150.12 32.5958 149.14V147.6H33.2048V149.077C33.2048 149.726 33.5944 150.05 34.3738 150.05C34.7564 150.05 35.1088 149.985 35.4308 149.854V147.6H36.0398V152.5ZM40.1588 152.5H37.0998V147.6H40.1518V148.139H37.7088V149.763H39.8228V150.302H37.7088V151.961H40.1588V152.5ZM42.6104 152.605C42.0177 152.605 41.5557 152.451 41.2244 152.143C40.8977 151.83 40.7344 151.396 40.7344 150.841V149.259C40.7344 148.704 40.8977 148.272 41.2244 147.964C41.5557 147.651 42.0177 147.495 42.6104 147.495C43.119 147.495 43.5437 147.637 43.8844 147.922C44.225 148.207 44.3954 148.62 44.3954 149.161V149.231H43.7864V149.161C43.7864 148.802 43.6674 148.529 43.4294 148.342C43.196 148.151 42.9207 148.055 42.6034 148.055C42.1974 148.055 41.8847 148.158 41.6654 148.363C41.4507 148.564 41.3434 148.848 41.3434 149.217V150.883C41.3434 151.252 41.4507 151.539 41.6654 151.744C41.8847 151.945 42.1974 152.045 42.6034 152.045C42.9207 152.045 43.196 151.949 43.4294 151.758C43.6674 151.571 43.7864 151.298 43.7864 150.939V150.869H44.3954V150.939C44.3954 151.48 44.225 151.893 43.8844 152.178C43.5437 152.463 43.119 152.605 42.6104 152.605ZM46.8536 152.5H46.2446V148.139H44.7536V147.6H48.3376V148.139H46.8536V152.5ZM51.1349 152.5H48.9019V147.6H50.9599C51.3799 147.6 51.7043 147.712 51.9329 147.936C52.1616 148.155 52.2759 148.473 52.2759 148.888C52.2759 149.415 52.0636 149.77 51.6389 149.952C52.1896 150.111 52.4649 150.514 52.4649 151.163C52.4649 151.592 52.3483 151.924 52.1149 152.157C51.8816 152.386 51.5549 152.5 51.1349 152.5ZM49.5109 150.281V151.961H51.0299C51.2959 151.961 51.4989 151.889 51.6389 151.744C51.7836 151.599 51.8559 151.394 51.8559 151.128C51.8559 150.857 51.7836 150.65 51.6389 150.505C51.4989 150.356 51.2959 150.281 51.0299 150.281H49.5109ZM49.5109 148.139V149.763H50.8689C51.1256 149.763 51.3216 149.693 51.4569 149.553C51.5969 149.408 51.6669 149.208 51.6669 148.951C51.6669 148.69 51.5969 148.489 51.4569 148.349C51.3216 148.209 51.1209 148.139 50.8549 148.139H49.5109ZM54.9868 152.045C55.3835 152.045 55.6938 151.94 55.9178 151.73C56.1465 151.515 56.2609 151.231 56.2609 150.876V149.224C56.2609 148.869 56.1465 148.587 55.9178 148.377C55.6938 148.162 55.3835 148.055 54.9868 148.055C54.5855 148.055 54.2728 148.162 54.0488 148.377C53.8248 148.587 53.7128 148.869 53.7128 149.224V150.876C53.7128 151.231 53.8248 151.515 54.0488 151.73C54.2728 151.94 54.5855 152.045 54.9868 152.045ZM53.1038 150.848V149.252C53.1038 148.706 53.2718 148.277 53.6078 147.964C53.9485 147.651 54.4082 147.495 54.9868 147.495C55.5655 147.495 56.0228 147.651 56.3589 147.964C56.6995 148.277 56.8698 148.706 56.8698 149.252V150.848C56.8698 151.394 56.6995 151.823 56.3589 152.136C56.0228 152.449 55.5655 152.605 54.9868 152.605C54.4082 152.605 53.9485 152.449 53.6078 152.136C53.2718 151.823 53.1038 151.394 53.1038 150.848ZM61.5152 152.5H59.2822V147.6H61.3402C61.7602 147.6 62.0845 147.712 62.3132 147.936C62.5418 148.155 62.6562 148.473 62.6562 148.888C62.6562 149.415 62.4438 149.77 62.0192 149.952C62.5698 150.111 62.8452 150.514 62.8452 151.163C62.8452 151.592 62.7285 151.924 62.4952 152.157C62.2618 152.386 61.9352 152.5 61.5152 152.5ZM59.8912 150.281V151.961H61.4102C61.6762 151.961 61.8792 151.889 62.0192 151.744C62.1638 151.599 62.2362 151.394 62.2362 151.128C62.2362 150.857 62.1638 150.65 62.0192 150.505C61.8792 150.356 61.6762 150.281 61.4102 150.281H59.8912ZM59.8912 148.139V149.763H61.2492C61.5058 149.763 61.7018 149.693 61.8372 149.553C61.9772 149.408 62.0472 149.208 62.0472 148.951C62.0472 148.69 61.9772 148.489 61.8372 148.349C61.7018 148.209 61.5012 148.139 61.2352 148.139H59.8912ZM65.6541 152.5H63.6241V147.6H64.2331V149.553H65.6541C66.0834 149.553 66.4194 149.686 66.6621 149.952C66.9048 150.213 67.0261 150.57 67.0261 151.023C67.0261 151.485 66.9048 151.847 66.6621 152.108C66.4194 152.369 66.0834 152.5 65.6541 152.5ZM64.2331 150.092V151.961H65.5841C65.8361 151.961 66.0344 151.879 66.1791 151.716C66.3284 151.548 66.4031 151.317 66.4031 151.023C66.4031 150.734 66.3284 150.507 66.1791 150.344C66.0344 150.176 65.8361 150.092 65.5841 150.092H64.2331ZM68.4401 152.5H67.8311V147.6H68.4401V152.5ZM70.1062 152.5H69.4972V147.6H73.0602V152.5H72.4512V148.139H70.1062V152.5ZM74.7494 152.5V152.297L75.2884 151.177L73.5594 147.803V147.6H74.1264L75.5964 150.498L76.8704 147.6H77.4094V147.803L75.3304 152.5H74.7494ZM79.6436 152.605C79.051 152.605 78.589 152.451 78.2576 152.143C77.931 151.83 77.7676 151.396 77.7676 150.841V149.259C77.7676 148.704 77.931 148.272 78.2576 147.964C78.589 147.651 79.051 147.495 79.6436 147.495C80.1523 147.495 80.577 147.637 80.9176 147.922C81.2583 148.207 81.4286 148.62 81.4286 149.161V149.231H80.8196V149.161C80.8196 148.802 80.7006 148.529 80.4626 148.342C80.2293 148.151 79.954 148.055 79.6366 148.055C79.2306 148.055 78.918 148.158 78.6986 148.363C78.484 148.564 78.3766 148.848 78.3766 149.217V150.883C78.3766 151.252 78.484 151.539 78.6986 151.744C78.918 151.945 79.2306 152.045 79.6366 152.045C79.954 152.045 80.2293 151.949 80.4626 151.758C80.7006 151.571 80.8196 151.298 80.8196 150.939V150.869H81.4286V150.939C81.4286 151.48 81.2583 151.893 80.9176 152.178C80.577 152.463 80.1523 152.605 79.6436 152.605ZM82.8859 152.5H82.2769V147.6H82.8859V149.77H83.6699L85.0909 147.6H85.6579V147.803L84.2019 150.008L85.7489 152.297V152.5H85.1469L83.6769 150.309H82.8859V152.5ZM86.927 152.5H86.318V147.6H86.927V149.77H89.314V147.6H89.923V152.5H89.314V150.309H86.927V152.5ZM91.5412 152.5H90.9812V147.6H91.5902V151.443L94.0472 147.6H94.6072V152.5H93.9982V148.657L91.5412 152.5ZM96.2739 152.5H95.6649V147.6H96.2739V149.77H97.0579L98.4789 147.6H99.0459V147.803L97.5899 150.008L99.1369 152.297V152.5H98.5349L97.0649 150.309H96.2739V152.5ZM101.381 152.045C101.777 152.045 102.088 151.94 102.312 151.73C102.54 151.515 102.655 151.231 102.655 150.876V149.224C102.655 148.869 102.54 148.587 102.312 148.377C102.088 148.162 101.777 148.055 101.381 148.055C100.979 148.055 100.667 148.162 100.443 148.377C100.219 148.587 100.107 148.869 100.107 149.224V150.876C100.107 151.231 100.219 151.515 100.443 151.73C100.667 151.94 100.979 152.045 101.381 152.045ZM99.4977 150.848V149.252C99.4977 148.706 99.6657 148.277 100.002 147.964C100.342 147.651 100.802 147.495 101.381 147.495C101.959 147.495 102.417 147.651 102.753 147.964C103.093 148.277 103.264 148.706 103.264 149.252V150.848C103.264 151.394 103.093 151.823 102.753 152.136C102.417 152.449 101.959 152.605 101.381 152.605C100.802 152.605 100.342 152.449 100.002 152.136C99.6657 151.823 99.4977 151.394 99.4977 150.848ZM106.411 152.5H104.178V147.6H106.236C106.656 147.6 106.98 147.712 107.209 147.936C107.438 148.155 107.552 148.473 107.552 148.888C107.552 149.415 107.34 149.77 106.915 149.952C107.466 150.111 107.741 150.514 107.741 151.163C107.741 151.592 107.624 151.924 107.391 152.157C107.158 152.386 106.831 152.5 106.411 152.5ZM104.787 150.281V151.961H106.306C106.572 151.961 106.775 151.889 106.915 151.744C107.06 151.599 107.132 151.394 107.132 151.128C107.132 150.857 107.06 150.65 106.915 150.505C106.775 150.356 106.572 150.281 106.306 150.281H104.787ZM104.787 148.139V149.763H106.145C106.402 149.763 106.598 149.693 106.733 149.553C106.873 149.408 106.943 149.208 106.943 148.951C106.943 148.69 106.873 148.489 106.733 148.349C106.598 148.209 106.397 148.139 106.131 148.139H104.787Z" fill="black" fill-opacity="0.5"/>
<path d="M18 159.883V158.217C18 157.932 17.9043 157.704 17.713 157.531C17.5217 157.354 17.2557 157.265 16.915 157.265C16.5743 157.265 16.3083 157.354 16.117 157.531C15.9257 157.704 15.83 157.932 15.83 158.217V159.883C15.83 160.168 15.9257 160.399 16.117 160.576C16.3083 160.749 16.5743 160.835 16.915 160.835C17.2557 160.835 17.5217 160.749 17.713 160.576C17.9043 160.399 18 160.168 18 159.883ZM14.99 159.841V158.259C14.99 157.713 15.1627 157.284 15.508 156.971C15.8533 156.654 16.3223 156.495 16.915 156.495C17.5077 156.495 17.9767 156.654 18.322 156.971C18.6673 157.284 18.84 157.713 18.84 158.259V159.841C18.84 160.387 18.6673 160.819 18.322 161.136C17.9767 161.449 17.5077 161.605 16.915 161.605C16.3223 161.605 15.8533 161.449 15.508 161.136C15.1627 160.819 14.99 160.387 14.99 159.841ZM20.698 161.5H19.858V156.6H20.698V158.679H21.321L22.602 156.6H23.379V156.88L22.056 159.001L23.477 161.22V161.5H22.651L21.321 159.414H20.698V161.5ZM26.9433 159.883V158.217C26.9433 157.932 26.8477 157.704 26.6563 157.531C26.465 157.354 26.199 157.265 25.8583 157.265C25.5177 157.265 25.2517 157.354 25.0603 157.531C24.869 157.704 24.7733 157.932 24.7733 158.217V159.883C24.7733 160.168 24.869 160.399 25.0603 160.576C25.2517 160.749 25.5177 160.835 25.8583 160.835C26.199 160.835 26.465 160.749 26.6563 160.576C26.8477 160.399 26.9433 160.168 26.9433 159.883ZM23.9333 159.841V158.259C23.9333 157.713 24.106 157.284 24.4513 156.971C24.7967 156.654 25.2657 156.495 25.8583 156.495C26.451 156.495 26.92 156.654 27.2653 156.971C27.6107 157.284 27.7833 157.713 27.7833 158.259V159.841C27.7833 160.387 27.6107 160.819 27.2653 161.136C26.92 161.449 26.451 161.605 25.8583 161.605C25.2657 161.605 24.7967 161.449 24.4513 161.136C24.106 160.819 23.9333 160.387 23.9333 159.841ZM28.4023 161.5H28.2413V160.73H28.3743C28.673 160.73 28.8783 160.604 28.9903 160.352C29.1023 160.091 29.1583 159.631 29.1583 158.973V156.6H32.2173V161.5H31.3773V157.335H29.9283V159.218C29.9283 160.739 29.4197 161.5 28.4023 161.5ZM36.2421 159.883V158.217C36.2421 157.932 36.1464 157.704 35.9551 157.531C35.7638 157.354 35.4978 157.265 35.1571 157.265C34.8164 157.265 34.5504 157.354 34.3591 157.531C34.1678 157.704 34.0721 157.932 34.0721 158.217V159.883C34.0721 160.168 34.1678 160.399 34.3591 160.576C34.5504 160.749 34.8164 160.835 35.1571 160.835C35.4978 160.835 35.7638 160.749 35.9551 160.576C36.1464 160.399 36.2421 160.168 36.2421 159.883ZM33.2321 159.841V158.259C33.2321 157.713 33.4048 157.284 33.7501 156.971C34.0954 156.654 34.5644 156.495 35.1571 156.495C35.7498 156.495 36.2188 156.654 36.5641 156.971C36.9094 157.284 37.0821 157.713 37.0821 158.259V159.841C37.0821 160.387 36.9094 160.819 36.5641 161.136C36.2188 161.449 35.7498 161.605 35.1571 161.605C34.5644 161.605 34.0954 161.449 33.7501 161.136C33.4048 160.819 33.2321 160.387 33.2321 159.841ZM41.0558 161.605C40.5424 161.605 40.1364 161.458 39.8378 161.164C39.5391 160.87 39.3874 160.464 39.3828 159.946H40.1248C40.1341 160.235 40.2228 160.469 40.3908 160.646C40.5588 160.819 40.7874 160.905 41.0768 160.905C41.3661 160.905 41.5831 160.83 41.7278 160.681C41.8771 160.527 41.9518 160.315 41.9518 160.044C41.9518 159.811 41.8748 159.631 41.7208 159.505C41.5714 159.374 41.3614 159.309 41.0908 159.309H40.7478V158.609H41.0418C41.5644 158.609 41.8258 158.378 41.8258 157.916C41.8258 157.706 41.7604 157.533 41.6298 157.398C41.5038 157.263 41.3148 157.195 41.0628 157.195C40.7921 157.195 40.5844 157.279 40.4398 157.447C40.2998 157.615 40.2274 157.844 40.2228 158.133H39.4878C39.4924 157.615 39.6324 157.214 39.9078 156.929C40.1831 156.64 40.5658 156.495 41.0558 156.495C41.5318 156.495 41.9051 156.623 42.1758 156.88C42.4464 157.132 42.5818 157.452 42.5818 157.839C42.5818 158.32 42.3718 158.681 41.9518 158.924C42.1758 159.008 42.3601 159.157 42.5048 159.372C42.6494 159.587 42.7218 159.832 42.7218 160.107C42.7218 160.574 42.5748 160.94 42.2808 161.206C41.9868 161.472 41.5784 161.605 41.0558 161.605ZM46.0465 159.953V158.147C46.0465 157.862 45.9695 157.634 45.8155 157.461C45.6615 157.284 45.4468 157.195 45.1715 157.195C44.8962 157.195 44.6815 157.284 44.5275 157.461C44.3735 157.634 44.2965 157.862 44.2965 158.147V159.953C44.2965 160.238 44.3735 160.469 44.5275 160.646C44.6815 160.819 44.8962 160.905 45.1715 160.905C45.4468 160.905 45.6615 160.819 45.8155 160.646C45.9695 160.469 46.0465 160.238 46.0465 159.953ZM43.5265 159.911V158.189C43.5265 157.657 43.6735 157.242 43.9675 156.943C44.2615 156.644 44.6628 156.495 45.1715 156.495C45.6802 156.495 46.0815 156.644 46.3755 156.943C46.6695 157.242 46.8165 157.657 46.8165 158.189V159.911C46.8165 160.443 46.6695 160.858 46.3755 161.157C46.0815 161.456 45.6802 161.605 45.1715 161.605C44.6628 161.605 44.2615 161.456 43.9675 161.157C43.6735 160.858 43.5265 160.443 43.5265 159.911ZM50.2139 159.953V158.147C50.2139 157.862 50.1369 157.634 49.9829 157.461C49.8289 157.284 49.6143 157.195 49.3389 157.195C49.0636 157.195 48.8489 157.284 48.6949 157.461C48.5409 157.634 48.4639 157.862 48.4639 158.147V159.953C48.4639 160.238 48.5409 160.469 48.6949 160.646C48.8489 160.819 49.0636 160.905 49.3389 160.905C49.6143 160.905 49.8289 160.819 49.9829 160.646C50.1369 160.469 50.2139 160.238 50.2139 159.953ZM47.6939 159.911V158.189C47.6939 157.657 47.8409 157.242 48.1349 156.943C48.4289 156.644 48.8303 156.495 49.3389 156.495C49.8476 156.495 50.2489 156.644 50.5429 156.943C50.8369 157.242 50.9839 157.657 50.9839 158.189V159.911C50.9839 160.443 50.8369 160.858 50.5429 161.157C50.2489 161.456 49.8476 161.605 49.3389 161.605C48.8303 161.605 48.4289 161.456 48.1349 161.157C47.8409 160.858 47.6939 160.443 47.6939 159.911ZM54.3814 159.953V158.147C54.3814 157.862 54.3044 157.634 54.1504 157.461C53.9964 157.284 53.7817 157.195 53.5064 157.195C53.2311 157.195 53.0164 157.284 52.8624 157.461C52.7084 157.634 52.6314 157.862 52.6314 158.147V159.953C52.6314 160.238 52.7084 160.469 52.8624 160.646C53.0164 160.819 53.2311 160.905 53.5064 160.905C53.7817 160.905 53.9964 160.819 54.1504 160.646C54.3044 160.469 54.3814 160.238 54.3814 159.953ZM51.8614 159.911V158.189C51.8614 157.657 52.0084 157.242 52.3024 156.943C52.5964 156.644 52.9977 156.495 53.5064 156.495C54.0151 156.495 54.4164 156.644 54.7104 156.943C55.0044 157.242 55.1514 157.657 55.1514 158.189V159.911C55.1514 160.443 55.0044 160.858 54.7104 161.157C54.4164 161.456 54.0151 161.605 53.5064 161.605C52.9977 161.605 52.5964 161.456 52.3024 161.157C52.0084 160.858 51.8614 160.443 51.8614 159.911Z" fill="black"/>
<path d="M286.76 62.5H286.151V57.6H289.14V58.139H286.76V62.5ZM288.894 62.5V61.94C289.268 61.94 289.52 61.807 289.65 61.541C289.786 61.2703 289.853 60.7523 289.853 59.987V57.6H292.835V62.5H292.226V58.139H290.427V60.05C290.427 60.96 290.306 61.5947 290.063 61.954C289.825 62.318 289.436 62.5 288.894 62.5ZM293.961 62.5H293.401V62.297L295.228 57.6H295.837L297.671 62.297V62.5H297.069L296.579 61.198H294.465L293.961 62.5ZM295.522 58.412L294.647 60.68H296.39L295.522 58.412ZM300.473 62.5H298.24V57.6H300.298C300.718 57.6 301.043 57.712 301.271 57.936C301.5 58.1553 301.614 58.4727 301.614 58.888C301.614 59.4153 301.402 59.77 300.977 59.952C301.528 60.1107 301.803 60.5143 301.803 61.163C301.803 61.5923 301.687 61.9237 301.453 62.157C301.22 62.3857 300.893 62.5 300.473 62.5ZM298.849 60.281V61.961H300.368C300.634 61.961 300.837 61.8887 300.977 61.744C301.122 61.5993 301.194 61.394 301.194 61.128C301.194 60.8573 301.122 60.6497 300.977 60.505C300.837 60.3557 300.634 60.281 300.368 60.281H298.849ZM298.849 58.139V59.763H300.207C300.464 59.763 300.66 59.693 300.795 59.553C300.935 59.4083 301.005 59.2077 301.005 58.951C301.005 58.6897 300.935 58.489 300.795 58.349C300.66 58.209 300.459 58.139 300.193 58.139H298.849ZM303.191 62.5H302.582V57.6H303.191V59.77H305.578V57.6H306.187V62.5H305.578V60.309H303.191V62.5ZM309.275 62.5H307.245V57.6H307.854V59.553H309.275C309.705 59.553 310.041 59.686 310.283 59.952C310.526 60.2133 310.647 60.5703 310.647 61.023C310.647 61.485 310.526 61.8467 310.283 62.108C310.041 62.3693 309.705 62.5 309.275 62.5ZM307.854 60.092V61.961H309.205C309.457 61.961 309.656 61.8793 309.8 61.716C309.95 61.548 310.024 61.317 310.024 61.023C310.024 60.7337 309.95 60.5073 309.8 60.344C309.656 60.176 309.457 60.092 309.205 60.092H307.854ZM312.061 62.5H311.452V57.6H312.061V62.5ZM313.679 62.5H313.119V57.6H313.728V61.443L316.185 57.6H316.745V62.5H316.136V58.657L313.679 62.5ZM313.84 56.361V56.277H314.33V56.354C314.33 56.522 314.381 56.655 314.484 56.753C314.591 56.8463 314.74 56.893 314.932 56.893C315.123 56.893 315.272 56.8463 315.38 56.753C315.487 56.655 315.541 56.522 315.541 56.354V56.277H316.031V56.361C316.031 56.655 315.93 56.8883 315.73 57.061C315.529 57.2337 315.263 57.32 314.932 57.32C314.605 57.32 314.341 57.2337 314.141 57.061C313.94 56.8883 313.84 56.655 313.84 56.361ZM319.888 62.5H319.3V57.6H319.888L321.47 60.085L323.052 57.6H323.619V62.5H323.031V58.678L321.659 60.834H321.26L319.888 58.685V62.5ZM324.745 62.5H324.185V62.297L326.012 57.6H326.621L328.455 62.297V62.5H327.853L327.363 61.198H325.249L324.745 62.5ZM326.306 58.412L325.431 60.68H327.174L326.306 58.412ZM330.759 62.605C330.167 62.605 329.705 62.451 329.373 62.143C329.047 61.8303 328.883 61.3963 328.883 60.841V59.259C328.883 58.7037 329.047 58.272 329.373 57.964C329.705 57.6513 330.167 57.495 330.759 57.495C331.268 57.495 331.693 57.6373 332.033 57.922C332.374 58.2067 332.544 58.6197 332.544 59.161V59.231H331.935V59.161C331.935 58.8017 331.816 58.5287 331.578 58.342C331.345 58.1507 331.07 58.055 330.752 58.055C330.346 58.055 330.034 58.1577 329.814 58.363C329.6 58.5637 329.492 58.8483 329.492 59.217V60.883C329.492 61.2517 329.6 61.5387 329.814 61.744C330.034 61.9447 330.346 62.045 330.752 62.045C331.07 62.045 331.345 61.9493 331.578 61.758C331.816 61.5713 331.935 61.2983 331.935 60.939V60.869H332.544V60.939C332.544 61.4803 332.374 61.8933 332.033 62.178C331.693 62.4627 331.268 62.605 330.759 62.605ZM335.003 62.5H334.394V58.139H332.903V57.6H336.487V58.139H335.003V62.5ZM340.11 62.5H337.051V57.6H340.103V58.139H337.66V59.763H339.774V60.302H337.66V61.961H340.11V62.5ZM341.503 62.5H340.894V57.6H342.945C343.365 57.6 343.694 57.733 343.932 57.999C344.174 58.265 344.296 58.6243 344.296 59.077C344.296 59.5297 344.174 59.889 343.932 60.155C343.694 60.4163 343.365 60.547 342.945 60.547H341.503V62.5ZM341.503 58.139V60.008H342.84C343.096 60.008 343.299 59.9263 343.449 59.763C343.598 59.595 343.673 59.3663 343.673 59.077C343.673 58.783 343.598 58.5543 343.449 58.391C343.299 58.223 343.096 58.139 342.84 58.139H341.503Z" fill="black" fill-opacity="0.5"/>
<path d="M291.828 71.5H286.13V66.6H286.97V70.765H288.559V66.6H289.399V70.765H290.988V66.6H291.828V71.5ZM293.684 71.5H292.914V67.86H293.684V70.31L295.294 67.86H296.064V71.5H295.294V69.05L293.684 71.5ZM297.851 71.5H297.081V67.86H297.851V69.344H299.384V67.86H300.154V71.5H299.384V70.016H297.851V71.5ZM302.415 71.5H302.254V70.73H302.387C302.685 70.73 302.891 70.604 303.003 70.352C303.115 70.0907 303.171 69.631 303.171 68.973V66.6H306.23V71.5H305.39V67.335H303.941V69.218C303.941 70.7393 303.432 71.5 302.415 71.5ZM308.084 71.5H307.314V67.86H308.084V70.31L309.694 67.86H310.464V71.5H309.694V69.05L308.084 71.5ZM313.968 71.5H313.128V66.6H315.249C315.679 66.6 316.015 66.7353 316.257 67.006C316.505 67.2767 316.628 67.643 316.628 68.105C316.628 68.567 316.505 68.9333 316.257 69.204C316.015 69.4747 315.679 69.61 315.249 69.61H313.968V71.5ZM313.968 67.335V68.875H315.102C315.303 68.875 315.464 68.8073 315.585 68.672C315.711 68.5367 315.774 68.3477 315.774 68.105C315.774 67.8623 315.711 67.6733 315.585 67.538C315.464 67.4027 315.303 67.335 315.102 67.335H313.968ZM318.098 71.5H317.328V67.86H318.098V70.31L319.708 67.86H320.478V71.5H319.708V69.05L318.098 71.5ZM322.266 71.5H321.496V67.86H323.939V68.532H322.266V71.5Z" fill="black"/>
<path d="M286.76 84.5H286.151V79.6H289.14V80.139H286.76V84.5ZM291.381 84.045C291.778 84.045 292.088 83.94 292.312 83.73C292.541 83.5153 292.655 83.2307 292.655 82.876V81.224C292.655 80.8693 292.541 80.587 292.312 80.377C292.088 80.1623 291.778 80.055 291.381 80.055C290.98 80.055 290.667 80.1623 290.443 80.377C290.219 80.587 290.107 80.8693 290.107 81.224V82.876C290.107 83.2307 290.219 83.5153 290.443 83.73C290.667 83.94 290.98 84.045 291.381 84.045ZM289.498 82.848V81.252C289.498 80.706 289.666 80.2767 290.002 79.964C290.343 79.6513 290.803 79.495 291.381 79.495C291.96 79.495 292.417 79.6513 292.753 79.964C293.094 80.2767 293.264 80.706 293.264 81.252V82.848C293.264 83.394 293.094 83.8233 292.753 84.136C292.417 84.4487 291.96 84.605 291.381 84.605C290.803 84.605 290.343 84.4487 290.002 84.136C289.666 83.8233 289.498 83.394 289.498 82.848ZM294.284 85.501H293.724V83.961H294.095C294.235 83.7743 294.34 83.6157 294.41 83.485C294.624 83.0837 294.732 82.4863 294.732 81.693V79.6H297.616V83.961H298.218V85.501H297.658V84.5H294.284V85.501ZM294.753 83.961H297.007V80.139H295.292V81.693C295.292 82.1083 295.261 82.4677 295.201 82.771C295.145 83.079 295.084 83.31 295.019 83.464C294.967 83.5807 294.879 83.7463 294.753 83.961ZM300.92 84.5H298.89V79.6H299.499V81.553H300.92C301.349 81.553 301.685 81.686 301.928 81.952C302.17 82.2133 302.292 82.5703 302.292 83.023C302.292 83.485 302.17 83.8467 301.928 84.108C301.685 84.3693 301.349 84.5 300.92 84.5ZM299.499 82.092V83.961H300.85C301.102 83.961 301.3 83.8793 301.445 83.716C301.594 83.548 301.669 83.317 301.669 83.023C301.669 82.7337 301.594 82.5073 301.445 82.344C301.3 82.176 301.102 82.092 300.85 82.092H299.499ZM303.706 84.5H303.097V79.6H303.706V84.5ZM308.494 84.5H306.261V79.6H308.319C308.739 79.6 309.063 79.712 309.292 79.936C309.521 80.1553 309.635 80.4727 309.635 80.888C309.635 81.4153 309.423 81.77 308.998 81.952C309.549 82.1107 309.824 82.5143 309.824 83.163C309.824 83.5923 309.707 83.9237 309.474 84.157C309.241 84.3857 308.914 84.5 308.494 84.5ZM306.87 82.281V83.961H308.389C308.655 83.961 308.858 83.8887 308.998 83.744C309.143 83.5993 309.215 83.394 309.215 83.128C309.215 82.8573 309.143 82.6497 308.998 82.505C308.858 82.3557 308.655 82.281 308.389 82.281H306.87ZM306.87 80.139V81.763H308.228C308.485 81.763 308.681 81.693 308.816 81.553C308.956 81.4083 309.026 81.2077 309.026 80.951C309.026 80.6897 308.956 80.489 308.816 80.349C308.681 80.209 308.48 80.139 308.214 80.139H306.87ZM313.662 84.5H310.603V79.6H313.655V80.139H311.212V81.763H313.326V82.302H311.212V83.961H313.662V84.5ZM314.551 85.501H313.991V83.961H314.362C314.502 83.7743 314.607 83.6157 314.677 83.485C314.891 83.0837 314.999 82.4863 314.999 81.693V79.6H317.883V83.961H318.485V85.501H317.925V84.5H314.551V85.501ZM315.02 83.961H317.274V80.139H315.559V81.693C315.559 82.1083 315.528 82.4677 315.468 82.771C315.412 83.079 315.351 83.31 315.286 83.464C315.234 83.5807 315.146 83.7463 315.02 83.961ZM322.216 84.5H319.157V79.6H322.209V80.139H319.766V81.763H321.88V82.302H319.766V83.961H322.216V84.5ZM323.609 84.5H323V79.6H323.609V81.77H325.996V79.6H326.605V84.5H325.996V82.309H323.609V84.5ZM328.223 84.5H327.663V79.6H328.272V83.443L330.729 79.6H331.289V84.5H330.68V80.657L328.223 84.5ZM332.634 84.5H332.053V84.297L333.152 82.519C332.83 82.4397 332.582 82.2787 332.41 82.036C332.237 81.7887 332.151 81.4737 332.151 81.091C332.151 80.6243 332.272 80.2603 332.515 79.999C332.762 79.733 333.11 79.6 333.558 79.6H335.553V84.5H334.944V82.589H333.782L332.634 84.5ZM333.677 82.05H334.944V80.139H333.677C333.387 80.139 333.163 80.2207 333.005 80.384C332.851 80.5473 332.774 80.7853 332.774 81.098C332.774 81.7327 333.075 82.05 333.677 82.05Z" fill="black" fill-opacity="0.5"/>
<path d="M287.81 92.828H287.11V91.631H285.92V90.987H287.11V89.79H287.81V90.987H289V91.631H287.81V92.828ZM292.805 93.5H289.662V92.87L291.139 91.372C291.48 91.022 291.711 90.763 291.832 90.595C291.953 90.4177 292.014 90.2217 292.014 90.007C292.014 89.7643 291.944 89.5683 291.804 89.419C291.669 89.2697 291.477 89.195 291.23 89.195C290.959 89.195 290.754 89.2813 290.614 89.454C290.474 89.622 290.402 89.8553 290.397 90.154H289.662C289.671 89.636 289.818 89.23 290.103 88.936C290.388 88.642 290.763 88.495 291.23 88.495C291.72 88.495 292.1 88.6373 292.371 88.922C292.646 89.2113 292.784 89.5637 292.784 89.979C292.784 90.3197 292.7 90.6183 292.532 90.875C292.378 91.113 292.107 91.4233 291.72 91.806L290.705 92.8H292.805V93.5ZM295.155 93.605C294.689 93.605 294.308 93.479 294.014 93.227C293.72 92.9703 293.548 92.6133 293.496 92.156H294.252C294.285 92.38 294.383 92.562 294.546 92.702C294.71 92.8373 294.917 92.905 295.169 92.905C295.454 92.905 295.669 92.814 295.813 92.632C295.963 92.4453 296.037 92.184 296.037 91.848C296.037 91.54 295.96 91.295 295.806 91.113C295.652 90.931 295.447 90.84 295.19 90.84C294.864 90.84 294.605 90.973 294.413 91.239H293.65L293.895 88.6H296.534V89.3H294.525L294.413 90.476C294.689 90.2987 294.994 90.21 295.33 90.21C295.76 90.21 296.112 90.3453 296.387 90.616C296.667 90.882 296.807 91.2927 296.807 91.848C296.807 92.4033 296.658 92.835 296.359 93.143C296.065 93.451 295.664 93.605 295.155 93.605ZM299.096 93.5H298.907V92.8H298.984C299.204 92.8 299.36 92.7277 299.453 92.583C299.551 92.4337 299.6 92.205 299.6 91.897V89.86H302.33V93.5H301.56V90.532H300.328V91.89C300.328 92.4033 300.216 92.8 299.992 93.08C299.768 93.36 299.47 93.5 299.096 93.5ZM304.736 93.584C304.26 93.584 303.882 93.465 303.602 93.227C303.322 92.989 303.182 92.6623 303.182 92.247V91.127C303.182 90.7163 303.322 90.3897 303.602 90.147C303.891 89.8997 304.269 89.776 304.736 89.776C305.198 89.776 305.562 89.895 305.828 90.133C306.098 90.371 306.234 90.6977 306.234 91.113V91.932H303.952V92.233C303.952 92.4337 304.019 92.5923 304.155 92.709C304.295 92.8257 304.488 92.884 304.736 92.884C305.146 92.884 305.387 92.723 305.457 92.401H306.227C306.189 92.7697 306.04 93.059 305.779 93.269C305.517 93.479 305.17 93.584 304.736 93.584ZM303.952 91.113V91.344H305.464V91.113C305.464 90.917 305.396 90.763 305.261 90.651C305.13 90.5343 304.946 90.476 304.708 90.476C304.47 90.476 304.283 90.5343 304.148 90.651C304.017 90.763 303.952 90.917 303.952 91.113ZM308.619 93.5H307.849V90.532H306.666V89.86H309.802V90.532H308.619V93.5Z" fill="black"/>
<path d="M141.76 152.5H141.151V147.6H141.76V149.77H142.544L143.965 147.6H144.532V147.803L143.076 150.008L144.623 152.297V152.5H144.021L142.551 150.309H141.76V152.5ZM145.801 152.5H145.192V147.6H147.243C147.663 147.6 147.992 147.733 148.23 147.999C148.473 148.265 148.594 148.624 148.594 149.077C148.594 149.53 148.473 149.889 148.23 150.155C147.992 150.416 147.663 150.547 147.243 150.547H145.801V152.5ZM145.801 148.139V150.008H147.138C147.395 150.008 147.598 149.926 147.747 149.763C147.896 149.595 147.971 149.366 147.971 149.077C147.971 148.783 147.896 148.554 147.747 148.391C147.598 148.223 147.395 148.139 147.138 148.139H145.801ZM149.126 152.5H148.566V152.297L150.393 147.6H151.002L152.836 152.297V152.5H152.234L151.744 151.198H149.63L149.126 152.5ZM150.687 148.412L149.812 150.68H151.555L150.687 148.412ZM155.14 152.605C154.548 152.605 154.086 152.451 153.754 152.143C153.428 151.83 153.264 151.396 153.264 150.841V149.259C153.264 148.704 153.428 148.272 153.754 147.964C154.086 147.651 154.548 147.495 155.14 147.495C155.649 147.495 156.074 147.637 156.414 147.922C156.755 148.207 156.925 148.62 156.925 149.161V149.231H156.316V149.161C156.316 148.802 156.197 148.529 155.959 148.342C155.726 148.151 155.451 148.055 155.133 148.055C154.727 148.055 154.415 148.158 154.195 148.363C153.981 148.564 153.873 148.848 153.873 149.217V150.883C153.873 151.252 153.981 151.539 154.195 151.744C154.415 151.945 154.727 152.045 155.133 152.045C155.451 152.045 155.726 151.949 155.959 151.758C156.197 151.571 156.316 151.298 156.316 150.939V150.869H156.925V150.939C156.925 151.48 156.755 151.893 156.414 152.178C156.074 152.463 155.649 152.605 155.14 152.605ZM158.383 152.5H157.774V147.6H158.383V149.77H160.77V147.6H161.379V152.5H160.77V150.309H158.383V152.5ZM164.467 152.5H162.437V147.6H163.046V149.553H164.467C164.896 149.553 165.232 149.686 165.475 149.952C165.717 150.213 165.839 150.57 165.839 151.023C165.839 151.485 165.717 151.847 165.475 152.108C165.232 152.369 164.896 152.5 164.467 152.5ZM163.046 150.092V151.961H164.397C164.649 151.961 164.847 151.879 164.992 151.716C165.141 151.548 165.216 151.317 165.216 151.023C165.216 150.734 165.141 150.507 164.992 150.344C164.847 150.176 164.649 150.092 164.397 150.092H163.046ZM167.253 152.5H166.644V147.6H167.253V152.5ZM168.471 152.5H167.89V152.297L169.479 149.987L167.974 147.803V147.6H168.59L169.857 149.511L171.166 147.6H171.74V147.803L170.228 149.987L171.831 152.297V152.5H171.215L169.843 150.47L168.471 152.5ZM174.574 152.5H173.965V147.6H177.528V152.5H176.919V148.139H174.574V152.5ZM180.331 152.045C180.727 152.045 181.038 151.94 181.262 151.73C181.49 151.515 181.605 151.231 181.605 150.876V149.224C181.605 148.869 181.49 148.587 181.262 148.377C181.038 148.162 180.727 148.055 180.331 148.055C179.929 148.055 179.617 148.162 179.393 148.377C179.169 148.587 179.057 148.869 179.057 149.224V150.876C179.057 151.231 179.169 151.515 179.393 151.73C179.617 151.94 179.929 152.045 180.331 152.045ZM178.448 150.848V149.252C178.448 148.706 178.616 148.277 178.952 147.964C179.292 147.651 179.752 147.495 180.331 147.495C180.909 147.495 181.367 147.651 181.703 147.964C182.043 148.277 182.214 148.706 182.214 149.252V150.848C182.214 151.394 182.043 151.823 181.703 152.136C181.367 152.449 180.909 152.605 180.331 152.605C179.752 152.605 179.292 152.449 178.952 152.136C178.616 151.823 178.448 151.394 178.448 150.848ZM183.415 152.5H182.834V152.297L183.933 150.519C183.611 150.44 183.363 150.279 183.191 150.036C183.018 149.789 182.932 149.474 182.932 149.091C182.932 148.624 183.053 148.26 183.296 147.999C183.543 147.733 183.891 147.6 184.339 147.6H186.334V152.5H185.725V150.589H184.563L183.415 152.5ZM184.458 150.05H185.725V148.139H184.458C184.168 148.139 183.944 148.221 183.786 148.384C183.632 148.547 183.555 148.785 183.555 149.098C183.555 149.733 183.856 150.05 184.458 150.05ZM189.124 152.605C188.531 152.605 188.069 152.451 187.738 152.143C187.411 151.83 187.248 151.396 187.248 150.841V149.259C187.248 148.704 187.411 148.272 187.738 147.964C188.069 147.651 188.531 147.495 189.124 147.495C189.632 147.495 190.057 147.637 190.398 147.922C190.738 148.207 190.909 148.62 190.909 149.161V149.231H190.3V149.161C190.3 148.802 190.181 148.529 189.943 148.342C189.709 148.151 189.434 148.055 189.117 148.055C188.711 148.055 188.398 148.158 188.179 148.363C187.964 148.564 187.857 148.848 187.857 149.217V150.883C187.857 151.252 187.964 151.539 188.179 151.744C188.398 151.945 188.711 152.045 189.117 152.045C189.434 152.045 189.709 151.949 189.943 151.758C190.181 151.571 190.3 151.298 190.3 150.939V150.869H190.909V150.939C190.909 151.48 190.738 151.893 190.398 152.178C190.057 152.463 189.632 152.605 189.124 152.605ZM193.5 152.045C193.897 152.045 194.207 151.94 194.431 151.73C194.66 151.515 194.774 151.231 194.774 150.876V149.224C194.774 148.869 194.66 148.587 194.431 148.377C194.207 148.162 193.897 148.055 193.5 148.055C193.099 148.055 192.786 148.162 192.562 148.377C192.338 148.587 192.226 148.869 192.226 149.224V150.876C192.226 151.231 192.338 151.515 192.562 151.73C192.786 151.94 193.099 152.045 193.5 152.045ZM191.617 150.848V149.252C191.617 148.706 191.785 148.277 192.121 147.964C192.462 147.651 192.921 147.495 193.5 147.495C194.079 147.495 194.536 147.651 194.872 147.964C195.213 148.277 195.383 148.706 195.383 149.252V150.848C195.383 151.394 195.213 151.823 194.872 152.136C194.536 152.449 194.079 152.605 193.5 152.605C192.921 152.605 192.462 152.449 192.121 152.136C191.785 151.823 191.617 151.394 191.617 150.848ZM198.53 152.5H196.297V147.6H198.355C198.775 147.6 199.099 147.712 199.328 147.936C199.557 148.155 199.671 148.473 199.671 148.888C199.671 149.415 199.459 149.77 199.034 149.952C199.585 150.111 199.86 150.514 199.86 151.163C199.86 151.592 199.743 151.924 199.51 152.157C199.277 152.386 198.95 152.5 198.53 152.5ZM196.906 150.281V151.961H198.425C198.691 151.961 198.894 151.889 199.034 151.744C199.179 151.599 199.251 151.394 199.251 151.128C199.251 150.857 199.179 150.65 199.034 150.505C198.894 150.356 198.691 150.281 198.425 150.281H196.906ZM196.906 148.139V149.763H198.264C198.521 149.763 198.717 149.693 198.852 149.553C198.992 149.408 199.062 149.208 199.062 148.951C199.062 148.69 198.992 148.489 198.852 148.349C198.717 148.209 198.516 148.139 198.25 148.139H196.906Z" fill="black" fill-opacity="0.5"/>
<path d="M144 159.883V158.217C144 157.932 143.904 157.704 143.713 157.531C143.522 157.354 143.256 157.265 142.915 157.265C142.574 157.265 142.308 157.354 142.117 157.531C141.926 157.704 141.83 157.932 141.83 158.217V159.883C141.83 160.168 141.926 160.399 142.117 160.576C142.308 160.749 142.574 160.835 142.915 160.835C143.256 160.835 143.522 160.749 143.713 160.576C143.904 160.399 144 160.168 144 159.883ZM140.99 159.841V158.259C140.99 157.713 141.163 157.284 141.508 156.971C141.853 156.654 142.322 156.495 142.915 156.495C143.508 156.495 143.977 156.654 144.322 156.971C144.667 157.284 144.84 157.713 144.84 158.259V159.841C144.84 160.387 144.667 160.819 144.322 161.136C143.977 161.449 143.508 161.605 142.915 161.605C142.322 161.605 141.853 161.449 141.508 161.136C141.163 160.819 140.99 160.387 140.99 159.841ZM146.698 161.5H145.858V156.6H146.698V158.679H147.321L148.602 156.6H149.379V156.88L148.056 159.001L149.477 161.22V161.5H148.651L147.321 159.414H146.698V161.5ZM152.943 159.883V158.217C152.943 157.932 152.848 157.704 152.656 157.531C152.465 157.354 152.199 157.265 151.858 157.265C151.518 157.265 151.252 157.354 151.06 157.531C150.869 157.704 150.773 157.932 150.773 158.217V159.883C150.773 160.168 150.869 160.399 151.06 160.576C151.252 160.749 151.518 160.835 151.858 160.835C152.199 160.835 152.465 160.749 152.656 160.576C152.848 160.399 152.943 160.168 152.943 159.883ZM149.933 159.841V158.259C149.933 157.713 150.106 157.284 150.451 156.971C150.797 156.654 151.266 156.495 151.858 156.495C152.451 156.495 152.92 156.654 153.265 156.971C153.611 157.284 153.783 157.713 153.783 158.259V159.841C153.783 160.387 153.611 160.819 153.265 161.136C152.92 161.449 152.451 161.605 151.858 161.605C151.266 161.605 150.797 161.449 150.451 161.136C150.106 160.819 149.933 160.387 149.933 159.841ZM154.402 161.5H154.241V160.73H154.374C154.673 160.73 154.878 160.604 154.99 160.352C155.102 160.091 155.158 159.631 155.158 158.973V156.6H158.217V161.5H157.377V157.335H155.928V159.218C155.928 160.739 155.42 161.5 154.402 161.5ZM162.242 159.883V158.217C162.242 157.932 162.146 157.704 161.955 157.531C161.764 157.354 161.498 157.265 161.157 157.265C160.816 157.265 160.55 157.354 160.359 157.531C160.168 157.704 160.072 157.932 160.072 158.217V159.883C160.072 160.168 160.168 160.399 160.359 160.576C160.55 160.749 160.816 160.835 161.157 160.835C161.498 160.835 161.764 160.749 161.955 160.576C162.146 160.399 162.242 160.168 162.242 159.883ZM159.232 159.841V158.259C159.232 157.713 159.405 157.284 159.75 156.971C160.095 156.654 160.564 156.495 161.157 156.495C161.75 156.495 162.219 156.654 162.564 156.971C162.909 157.284 163.082 157.713 163.082 158.259V159.841C163.082 160.387 162.909 160.819 162.564 161.136C162.219 161.449 161.75 161.605 161.157 161.605C160.564 161.605 160.095 161.449 159.75 161.136C159.405 160.819 159.232 160.387 159.232 159.841ZM166.608 161.5H165.838V157.643H165.327V157.237L166.3 156.6H166.608V161.5ZM170.146 159.953V158.147C170.146 157.862 170.069 157.634 169.915 157.461C169.761 157.284 169.546 157.195 169.271 157.195C168.996 157.195 168.781 157.284 168.627 157.461C168.473 157.634 168.396 157.862 168.396 158.147V159.953C168.396 160.238 168.473 160.469 168.627 160.646C168.781 160.819 168.996 160.905 169.271 160.905C169.546 160.905 169.761 160.819 169.915 160.646C170.069 160.469 170.146 160.238 170.146 159.953ZM167.626 159.911V158.189C167.626 157.657 167.773 157.242 168.067 156.943C168.361 156.644 168.762 156.495 169.271 156.495C169.78 156.495 170.181 156.644 170.475 156.943C170.769 157.242 170.916 157.657 170.916 158.189V159.911C170.916 160.443 170.769 160.858 170.475 161.157C170.181 161.456 169.78 161.605 169.271 161.605C168.762 161.605 168.361 161.456 168.067 161.157C167.773 160.858 167.626 160.443 167.626 159.911ZM174.314 159.953V158.147C174.314 157.862 174.237 157.634 174.083 157.461C173.929 157.284 173.714 157.195 173.439 157.195C173.163 157.195 172.949 157.284 172.795 157.461C172.641 157.634 172.564 157.862 172.564 158.147V159.953C172.564 160.238 172.641 160.469 172.795 160.646C172.949 160.819 173.163 160.905 173.439 160.905C173.714 160.905 173.929 160.819 174.083 160.646C174.237 160.469 174.314 160.238 174.314 159.953ZM171.794 159.911V158.189C171.794 157.657 171.941 157.242 172.235 156.943C172.529 156.644 172.93 156.495 173.439 156.495C173.947 156.495 174.349 156.644 174.643 156.943C174.937 157.242 175.084 157.657 175.084 158.189V159.911C175.084 160.443 174.937 160.858 174.643 161.157C174.349 161.456 173.947 161.605 173.439 161.605C172.93 161.605 172.529 161.456 172.235 161.157C171.941 160.858 171.794 160.443 171.794 159.911ZM178.481 159.953V158.147C178.481 157.862 178.404 157.634 178.25 157.461C178.096 157.284 177.881 157.195 177.606 157.195C177.331 157.195 177.116 157.284 176.962 157.461C176.808 157.634 176.731 157.862 176.731 158.147V159.953C176.731 160.238 176.808 160.469 176.962 160.646C177.116 160.819 177.331 160.905 177.606 160.905C177.881 160.905 178.096 160.819 178.25 160.646C178.404 160.469 178.481 160.238 178.481 159.953ZM175.961 159.911V158.189C175.961 157.657 176.108 157.242 176.402 156.943C176.696 156.644 177.097 156.495 177.606 156.495C178.115 156.495 178.516 156.644 178.81 156.943C179.104 157.242 179.251 157.657 179.251 158.189V159.911C179.251 160.443 179.104 160.858 178.81 161.157C178.516 161.456 178.115 161.605 177.606 161.605C177.097 161.605 176.696 161.456 176.402 161.157C176.108 160.858 175.961 160.443 175.961 159.911Z" fill="black"/>
<path d="M267.76 152.5H267.151V147.6H270.714V152.5H270.105V148.139H267.76V152.5ZM273.516 152.045C273.913 152.045 274.223 151.94 274.447 151.73C274.676 151.515 274.79 151.231 274.79 150.876V149.224C274.79 148.869 274.676 148.587 274.447 148.377C274.223 148.162 273.913 148.055 273.516 148.055C273.115 148.055 272.802 148.162 272.578 148.377C272.354 148.587 272.242 148.869 272.242 149.224V150.876C272.242 151.231 272.354 151.515 272.578 151.73C272.802 151.94 273.115 152.045 273.516 152.045ZM271.633 150.848V149.252C271.633 148.706 271.801 148.277 272.137 147.964C272.478 147.651 272.938 147.495 273.516 147.495C274.095 147.495 274.552 147.651 274.888 147.964C275.229 148.277 275.399 148.706 275.399 149.252V150.848C275.399 151.394 275.229 151.823 274.888 152.136C274.552 152.449 274.095 152.605 273.516 152.605C272.938 152.605 272.478 152.449 272.137 152.136C271.801 151.823 271.633 151.394 271.633 150.848ZM278.518 152.5H276.313V147.6H279.575V148.139H276.922V149.553H278.518C278.938 149.553 279.267 149.686 279.505 149.952C279.743 150.213 279.862 150.57 279.862 151.023C279.862 151.476 279.743 151.835 279.505 152.101C279.267 152.367 278.938 152.5 278.518 152.5ZM276.922 150.092V151.961H278.406C278.658 151.961 278.859 151.879 279.008 151.716C279.162 151.548 279.239 151.317 279.239 151.023C279.239 150.734 279.162 150.507 279.008 150.344C278.859 150.176 278.658 150.092 278.406 150.092H276.922ZM283.701 152.5H280.642V147.6H283.694V148.139H281.251V149.763H283.365V150.302H281.251V151.961H283.701V152.5ZM284.589 153.501H284.029V151.961H284.4C284.54 151.774 284.645 151.616 284.715 151.485C284.93 151.084 285.037 150.486 285.037 149.693V147.6H287.921V151.961H288.523V153.501H287.963V152.5H284.589V153.501ZM285.058 151.961H287.312V148.139H285.597V149.693C285.597 150.108 285.567 150.468 285.506 150.771C285.45 151.079 285.39 151.31 285.324 151.464C285.273 151.581 285.184 151.746 285.058 151.961ZM289.756 152.5H289.196V147.6H289.805V151.443L292.262 147.6H292.822V152.5H292.213V148.657L289.756 152.5ZM295.489 152.5H294.88V148.139H293.389V147.6H296.973V148.139H295.489V152.5ZM300.597 152.5H297.538V147.6H300.59V148.139H298.147V149.763H300.261V150.302H298.147V151.961H300.597V152.5ZM300.841 152.5V151.94C301.215 151.94 301.467 151.807 301.597 151.541C301.733 151.27 301.8 150.752 301.8 149.987V147.6H304.782V152.5H304.173V148.139H302.374V150.05C302.374 150.96 302.253 151.595 302.01 151.954C301.772 152.318 301.383 152.5 300.841 152.5ZM308.898 152.5H305.839V147.6H308.891V148.139H306.448V149.763H308.562V150.302H306.448V151.961H308.898V152.5ZM310.241 152.5H309.681V147.6H310.29V151.443L312.747 147.6H313.307V152.5H312.698V148.657L310.241 152.5ZM310.402 146.361V146.277H310.892V146.354C310.892 146.522 310.944 146.655 311.046 146.753C311.154 146.846 311.303 146.893 311.494 146.893C311.686 146.893 311.835 146.846 311.942 146.753C312.05 146.655 312.103 146.522 312.103 146.354V146.277H312.593V146.361C312.593 146.655 312.493 146.888 312.292 147.061C312.092 147.234 311.826 147.32 311.494 147.32C311.168 147.32 310.904 147.234 310.703 147.061C310.503 146.888 310.402 146.655 310.402 146.361ZM316.472 152.5H315.863V147.6H316.472V149.77H318.859V147.6H319.468V152.5H318.859V150.309H316.472V152.5ZM321.087 152.5H320.527V147.6H321.136V151.443L323.593 147.6H324.153V152.5H323.544V148.657L321.087 152.5ZM325.84 152.5V152.297L326.379 151.177L324.65 147.803V147.6H325.217L326.687 150.498L327.961 147.6H328.5V147.803L326.421 152.5H325.84ZM336.034 152.5H330.497V147.6H331.106V151.961H332.961V147.6H333.57V151.961H335.425V147.6H336.034V152.5ZM337.648 152.5H337.088V147.6H337.697V151.443L340.154 147.6H340.714V152.5H340.105V148.657L337.648 152.5Z" fill="black" fill-opacity="0.5"/>
<path d="M270 159.883V158.217C270 157.932 269.904 157.704 269.713 157.531C269.522 157.354 269.256 157.265 268.915 157.265C268.574 157.265 268.308 157.354 268.117 157.531C267.926 157.704 267.83 157.932 267.83 158.217V159.883C267.83 160.168 267.926 160.399 268.117 160.576C268.308 160.749 268.574 160.835 268.915 160.835C269.256 160.835 269.522 160.749 269.713 160.576C269.904 160.399 270 160.168 270 159.883ZM266.99 159.841V158.259C266.99 157.713 267.163 157.284 267.508 156.971C267.853 156.654 268.322 156.495 268.915 156.495C269.508 156.495 269.977 156.654 270.322 156.971C270.667 157.284 270.84 157.713 270.84 158.259V159.841C270.84 160.387 270.667 160.819 270.322 161.136C269.977 161.449 269.508 161.605 268.915 161.605C268.322 161.605 267.853 161.449 267.508 161.136C267.163 160.819 266.99 160.387 266.99 159.841ZM272.698 161.5H271.858V156.6H272.698V158.679H273.321L274.602 156.6H275.379V156.88L274.056 159.001L275.477 161.22V161.5H274.651L273.321 159.414H272.698V161.5ZM278.943 159.883V158.217C278.943 157.932 278.848 157.704 278.656 157.531C278.465 157.354 278.199 157.265 277.858 157.265C277.518 157.265 277.252 157.354 277.06 157.531C276.869 157.704 276.773 157.932 276.773 158.217V159.883C276.773 160.168 276.869 160.399 277.06 160.576C277.252 160.749 277.518 160.835 277.858 160.835C278.199 160.835 278.465 160.749 278.656 160.576C278.848 160.399 278.943 160.168 278.943 159.883ZM275.933 159.841V158.259C275.933 157.713 276.106 157.284 276.451 156.971C276.797 156.654 277.266 156.495 277.858 156.495C278.451 156.495 278.92 156.654 279.265 156.971C279.611 157.284 279.783 157.713 279.783 158.259V159.841C279.783 160.387 279.611 160.819 279.265 161.136C278.92 161.449 278.451 161.605 277.858 161.605C277.266 161.605 276.797 161.449 276.451 161.136C276.106 160.819 275.933 160.387 275.933 159.841ZM280.402 161.5H280.241V160.73H280.374C280.673 160.73 280.878 160.604 280.99 160.352C281.102 160.091 281.158 159.631 281.158 158.973V156.6H284.217V161.5H283.377V157.335H281.928V159.218C281.928 160.739 281.42 161.5 280.402 161.5ZM288.242 159.883V158.217C288.242 157.932 288.146 157.704 287.955 157.531C287.764 157.354 287.498 157.265 287.157 157.265C286.816 157.265 286.55 157.354 286.359 157.531C286.168 157.704 286.072 157.932 286.072 158.217V159.883C286.072 160.168 286.168 160.399 286.359 160.576C286.55 160.749 286.816 160.835 287.157 160.835C287.498 160.835 287.764 160.749 287.955 160.576C288.146 160.399 288.242 160.168 288.242 159.883ZM285.232 159.841V158.259C285.232 157.713 285.405 157.284 285.75 156.971C286.095 156.654 286.564 156.495 287.157 156.495C287.75 156.495 288.219 156.654 288.564 156.971C288.909 157.284 289.082 157.713 289.082 158.259V159.841C289.082 160.387 288.909 160.819 288.564 161.136C288.219 161.449 287.75 161.605 287.157 161.605C286.564 161.605 286.095 161.449 285.75 161.136C285.405 160.819 285.232 160.387 285.232 159.841ZM294.54 161.5H291.397V160.87L292.874 159.372C293.214 159.022 293.445 158.763 293.567 158.595C293.688 158.418 293.749 158.222 293.749 158.007C293.749 157.764 293.679 157.568 293.539 157.419C293.403 157.27 293.212 157.195 292.965 157.195C292.694 157.195 292.489 157.281 292.349 157.454C292.209 157.622 292.136 157.855 292.132 158.154H291.397C291.406 157.636 291.553 157.23 291.838 156.936C292.122 156.642 292.498 156.495 292.965 156.495C293.455 156.495 293.835 156.637 294.106 156.922C294.381 157.211 294.519 157.564 294.519 157.979C294.519 158.32 294.435 158.618 294.267 158.875C294.113 159.113 293.842 159.423 293.455 159.806L292.44 160.8H294.54V161.5ZM297.876 159.953V158.147C297.876 157.862 297.799 157.634 297.645 157.461C297.491 157.284 297.276 157.195 297.001 157.195C296.725 157.195 296.511 157.284 296.357 157.461C296.203 157.634 296.126 157.862 296.126 158.147V159.953C296.126 160.238 296.203 160.469 296.357 160.646C296.511 160.819 296.725 160.905 297.001 160.905C297.276 160.905 297.491 160.819 297.645 160.646C297.799 160.469 297.876 160.238 297.876 159.953ZM295.356 159.911V158.189C295.356 157.657 295.503 157.242 295.797 156.943C296.091 156.644 296.492 156.495 297.001 156.495C297.509 156.495 297.911 156.644 298.205 156.943C298.499 157.242 298.646 157.657 298.646 158.189V159.911C298.646 160.443 298.499 160.858 298.205 161.157C297.911 161.456 297.509 161.605 297.001 161.605C296.492 161.605 296.091 161.456 295.797 161.157C295.503 160.858 295.356 160.443 295.356 159.911ZM302.043 159.953V158.147C302.043 157.862 301.966 157.634 301.812 157.461C301.658 157.284 301.443 157.195 301.168 157.195C300.893 157.195 300.678 157.284 300.524 157.461C300.37 157.634 300.293 157.862 300.293 158.147V159.953C300.293 160.238 300.37 160.469 300.524 160.646C300.678 160.819 300.893 160.905 301.168 160.905C301.443 160.905 301.658 160.819 301.812 160.646C301.966 160.469 302.043 160.238 302.043 159.953ZM299.523 159.911V158.189C299.523 157.657 299.67 157.242 299.964 156.943C300.258 156.644 300.659 156.495 301.168 156.495C301.677 156.495 302.078 156.644 302.372 156.943C302.666 157.242 302.813 157.657 302.813 158.189V159.911C302.813 160.443 302.666 160.858 302.372 161.157C302.078 161.456 301.677 161.605 301.168 161.605C300.659 161.605 300.258 161.456 299.964 161.157C299.67 160.858 299.523 160.443 299.523 159.911ZM306.211 159.953V158.147C306.211 157.862 306.134 157.634 305.98 157.461C305.826 157.284 305.611 157.195 305.336 157.195C305.06 157.195 304.846 157.284 304.692 157.461C304.538 157.634 304.461 157.862 304.461 158.147V159.953C304.461 160.238 304.538 160.469 304.692 160.646C304.846 160.819 305.06 160.905 305.336 160.905C305.611 160.905 305.826 160.819 305.98 160.646C306.134 160.469 306.211 160.238 306.211 159.953ZM303.691 159.911V158.189C303.691 157.657 303.838 157.242 304.132 156.943C304.426 156.644 304.827 156.495 305.336 156.495C305.844 156.495 306.246 156.644 306.54 156.943C306.834 157.242 306.981 157.657 306.981 158.189V159.911C306.981 160.443 306.834 160.858 306.54 161.157C306.246 161.456 305.844 161.605 305.336 161.605C304.827 161.605 304.426 161.456 304.132 161.157C303.838 160.858 303.691 160.443 303.691 159.911Z" fill="black"/>
<path d="M35.908 116.5H25.348V63.604H18.34V58.036L31.684 49.3H35.908V116.5ZM65.7138 116.5H56.2098V112.66L76.7538 58.9H54.3858V68.5H44.5938V49.3H87.6978V58.228L65.7138 116.5ZM136.568 116.5H93.4637V107.86L113.72 87.316C118.392 82.516 121.56 78.964 123.224 76.66C124.888 74.228 125.72 71.54 125.72 68.596C125.72 65.268 124.76 62.58 122.84 60.532C120.984 58.484 118.36 57.46 114.968 57.46C111.256 57.46 108.44 58.644 106.52 61.012C104.6 63.316 103.608 66.516 103.544 70.612H93.4637C93.5917 63.508 95.6077 57.94 99.5118 53.908C103.416 49.876 108.568 47.86 114.968 47.86C121.688 47.86 126.904 49.812 130.616 53.716C134.392 57.684 136.28 62.516 136.28 68.212C136.28 72.884 135.128 76.98 132.824 80.5C130.712 83.764 127 88.02 121.688 93.268L107.768 106.9H136.568V116.5ZM141.49 94.708C141.49 89.972 143.666 84.084 148.018 77.044L165.394 49.3H175.09V53.14L160.786 75.22C163.282 74.324 165.906 73.876 168.658 73.876C174.098 73.876 178.578 75.732 182.098 79.444C185.746 83.092 187.57 88.18 187.57 94.708C187.57 101.94 185.522 107.636 181.426 111.796C177.33 115.892 171.698 117.94 164.53 117.94C157.362 117.94 151.73 115.892 147.634 111.796C143.538 107.636 141.49 101.94 141.49 94.708ZM177.01 95.284C177.01 91.188 175.954 88.02 173.842 85.78C171.73 83.54 168.626 82.42 164.53 82.42C160.434 82.42 157.33 83.54 155.218 85.78C153.106 88.02 152.05 91.188 152.05 95.284C152.05 99.316 153.138 102.516 155.314 104.884C157.49 107.188 160.562 108.34 164.53 108.34C168.498 108.34 171.57 107.188 173.746 104.884C175.922 102.516 177.01 99.316 177.01 95.284Z" fill="black"/>
<path d="M186.59 58.4573H184.933V57.7153L186.342 54.5L181.569 42.7272V41.7873H183.424L187.307 51.8289L191.116 41.7873H192.921V42.7272L186.59 58.4573ZM202.96 54.5H200.981V49.6029C199.909 49.8832 198.813 50.0234 197.692 50.0234C196.092 50.0234 194.856 49.6853 193.982 49.0093C193.124 48.3333 192.696 47.3192 192.696 45.9672V41.7873H194.674V45.7693C194.674 47.4017 195.779 48.2179 197.989 48.2179C199.044 48.2179 200.041 48.086 200.981 47.8221V41.7873H202.96V54.5ZM209.682 54.7968C208.049 54.7968 206.755 54.3763 205.799 53.5354C204.859 52.6945 204.389 51.5568 204.389 50.1223V46.2145C204.389 44.78 204.859 43.634 205.799 42.7766C206.755 41.9192 208.049 41.4905 209.682 41.4905C211.281 41.4905 212.534 41.911 213.441 42.7519C214.365 43.5928 214.826 44.7305 214.826 46.165V48.8115H206.368V50.0728C206.368 50.9632 206.656 51.6722 207.233 52.1998C207.827 52.7275 208.643 52.9913 209.682 52.9913C211.496 52.9913 212.526 52.2246 212.773 50.6911H214.752C214.637 51.9773 214.134 52.9831 213.243 53.7085C212.369 54.434 211.182 54.7968 209.682 54.7968ZM206.368 46.165V47.2038H212.848V46.165C212.848 45.2911 212.559 44.5986 211.982 44.0875C211.421 43.5598 210.63 43.296 209.608 43.296C208.602 43.296 207.81 43.5598 207.233 44.0875C206.656 44.5986 206.368 45.2911 206.368 46.165ZM218.215 54.5H216.236V41.7873H218.215V47.278H224.72V41.7873H226.698V54.5H224.72V49.0093H218.215V54.5ZM230.677 54.5H228.698V41.7873H230.677V51.4579L237.429 41.7873H239.408V54.5H237.429V44.8542L230.677 54.5ZM243.381 54.5H241.402V41.7873H243.381V47.2533H245.557L249.638 41.7873H251.295V42.7272L247.313 48.02L251.493 53.5602V54.5H249.712L245.557 48.9846H243.381V54.5ZM256.801 52.9913C257.856 52.9913 258.664 52.7192 259.225 52.1751C259.802 51.631 260.09 50.9055 260.09 49.9986V46.2887C260.09 45.3818 259.802 44.6563 259.225 44.1122C258.664 43.5681 257.856 43.296 256.801 43.296C255.762 43.296 254.946 43.5763 254.352 44.1369C253.775 44.6811 253.486 45.3983 253.486 46.2887V49.9986C253.486 50.889 253.775 51.6145 254.352 52.1751C254.946 52.7192 255.762 52.9913 256.801 52.9913ZM251.508 50.0728V46.2145C251.508 44.7965 251.97 43.6588 252.893 42.8014C253.833 41.9275 255.135 41.4905 256.801 41.4905C258.466 41.4905 259.76 41.9192 260.684 42.7766C261.607 43.634 262.069 44.78 262.069 46.2145V50.0728C262.069 51.5073 261.607 52.6533 260.684 53.5107C259.76 54.3681 258.466 54.7968 256.801 54.7968C255.135 54.7968 253.833 54.3681 252.893 53.5107C251.97 52.6368 251.508 51.4908 251.508 50.0728ZM269.609 54.5H263.5V41.7873H269.312C270.582 41.7873 271.563 42.0676 272.256 42.6282C272.948 43.1889 273.294 44.0133 273.294 45.1015C273.294 46.5195 272.75 47.4841 271.662 47.9953C273.13 48.4734 273.863 49.4545 273.863 50.9385C273.863 53.3128 272.445 54.5 269.609 54.5ZM265.479 48.9104V52.7687H269.659C270.335 52.7687 270.846 52.5956 271.192 52.2493C271.555 51.9031 271.736 51.4249 271.736 50.8148C271.736 49.5452 271.027 48.9104 269.609 48.9104H265.479ZM265.479 43.5186V47.3275H269.263C269.89 47.3275 270.368 47.1544 270.697 46.8081C271.044 46.4618 271.217 45.9919 271.217 45.3983C271.217 44.1452 270.557 43.5186 269.238 43.5186H265.479Z" fill="black"/>
<rect x="14.5" y="175.5" width="95" height="24" fill="#272727"/>
<rect x="140.5" y="189.5" width="95" height="10" fill="black"/>
<rect x="266.5" y="180.5" width="95" height="19" fill="#494949"/>
<path d="M17.657 210.665C16.8503 210.665 16.2123 210.434 15.743 209.972C15.2737 209.51 15.0353 208.872 15.028 208.058H16.194C16.2087 208.513 16.348 208.879 16.612 209.158C16.876 209.429 17.2353 209.565 17.69 209.565C18.1447 209.565 18.4857 209.448 18.713 209.213C18.9477 208.971 19.065 208.637 19.065 208.212C19.065 207.845 18.944 207.563 18.702 207.365C18.4673 207.16 18.1373 207.057 17.712 207.057H17.173V205.957H17.635C18.4563 205.957 18.867 205.594 18.867 204.868C18.867 204.538 18.7643 204.267 18.559 204.054C18.361 203.841 18.064 203.735 17.668 203.735C17.2427 203.735 16.9163 203.867 16.689 204.131C16.469 204.395 16.3553 204.754 16.348 205.209H15.193C15.2003 204.395 15.4203 203.764 15.853 203.317C16.2857 202.862 16.887 202.635 17.657 202.635C18.405 202.635 18.9917 202.837 19.417 203.24C19.8423 203.636 20.055 204.138 20.055 204.747C20.055 205.502 19.725 206.071 19.065 206.452C19.417 206.584 19.7067 206.819 19.934 207.156C20.1613 207.493 20.275 207.878 20.275 208.311C20.275 209.044 20.044 209.62 19.582 210.038C19.12 210.456 18.4783 210.665 17.657 210.665ZM25.4996 208.069V205.231C25.4996 204.784 25.3786 204.424 25.1366 204.153C24.8946 203.874 24.5572 203.735 24.1246 203.735C23.6919 203.735 23.3546 203.874 23.1126 204.153C22.8706 204.424 22.7496 204.784 22.7496 205.231V208.069C22.7496 208.516 22.8706 208.879 23.1126 209.158C23.3546 209.429 23.6919 209.565 24.1246 209.565C24.5572 209.565 24.8946 209.429 25.1366 209.158C25.3786 208.879 25.4996 208.516 25.4996 208.069ZM21.5396 208.003V205.297C21.5396 204.461 21.7706 203.808 22.2326 203.339C22.6946 202.87 23.3252 202.635 24.1246 202.635C24.9239 202.635 25.5546 202.87 26.0166 203.339C26.4786 203.808 26.7096 204.461 26.7096 205.297V208.003C26.7096 208.839 26.4786 209.492 26.0166 209.961C25.5546 210.43 24.9239 210.665 24.1246 210.665C23.3252 210.665 22.6946 210.43 22.2326 209.961C21.7706 209.492 21.5396 208.839 21.5396 208.003ZM32.0484 208.069V205.231C32.0484 204.784 31.9274 204.424 31.6854 204.153C31.4434 203.874 31.1061 203.735 30.6734 203.735C30.2408 203.735 29.9034 203.874 29.6614 204.153C29.4194 204.424 29.2984 204.784 29.2984 205.231V208.069C29.2984 208.516 29.4194 208.879 29.6614 209.158C29.9034 209.429 30.2408 209.565 30.6734 209.565C31.1061 209.565 31.4434 209.429 31.6854 209.158C31.9274 208.879 32.0484 208.516 32.0484 208.069ZM28.0884 208.003V205.297C28.0884 204.461 28.3194 203.808 28.7814 203.339C29.2434 202.87 29.8741 202.635 30.6734 202.635C31.4728 202.635 32.1034 202.87 32.5654 203.339C33.0274 203.808 33.2584 204.461 33.2584 205.297V208.003C33.2584 208.839 33.0274 209.492 32.5654 209.961C32.1034 210.43 31.4728 210.665 30.6734 210.665C29.8741 210.665 29.2434 210.43 28.7814 209.961C28.3194 209.492 28.0884 208.839 28.0884 208.003ZM38.5973 208.069V205.231C38.5973 204.784 38.4763 204.424 38.2343 204.153C37.9923 203.874 37.655 203.735 37.2223 203.735C36.7896 203.735 36.4523 203.874 36.2103 204.153C35.9683 204.424 35.8473 204.784 35.8473 205.231V208.069C35.8473 208.516 35.9683 208.879 36.2103 209.158C36.4523 209.429 36.7896 209.565 37.2223 209.565C37.655 209.565 37.9923 209.429 38.2343 209.158C38.4763 208.879 38.5973 208.516 38.5973 208.069ZM34.6373 208.003V205.297C34.6373 204.461 34.8683 203.808 35.3303 203.339C35.7923 202.87 36.423 202.635 37.2223 202.635C38.0216 202.635 38.6523 202.87 39.1143 203.339C39.5763 203.808 39.8073 204.461 39.8073 205.297V208.003C39.8073 208.839 39.5763 209.492 39.1143 209.961C38.6523 210.43 38.0216 210.665 37.2223 210.665C36.423 210.665 35.7923 210.43 35.3303 209.961C34.8683 209.492 34.6373 208.839 34.6373 208.003Z" fill="#120909"/>
<path d="M271.989 210.5H267.05V209.51L269.371 207.156C269.906 206.606 270.269 206.199 270.46 205.935C270.651 205.656 270.746 205.348 270.746 205.011C270.746 204.63 270.636 204.322 270.416 204.087C270.203 203.852 269.903 203.735 269.514 203.735C269.089 203.735 268.766 203.871 268.546 204.142C268.326 204.406 268.212 204.773 268.205 205.242H267.05C267.065 204.428 267.296 203.79 267.743 203.328C268.19 202.866 268.781 202.635 269.514 202.635C270.284 202.635 270.882 202.859 271.307 203.306C271.74 203.761 271.956 204.314 271.956 204.967C271.956 205.502 271.824 205.972 271.56 206.375C271.318 206.749 270.893 207.237 270.284 207.838L268.689 209.4H271.989V210.5ZM277.231 208.069V205.231C277.231 204.784 277.11 204.424 276.868 204.153C276.626 203.874 276.289 203.735 275.856 203.735C275.423 203.735 275.086 203.874 274.844 204.153C274.602 204.424 274.481 204.784 274.481 205.231V208.069C274.481 208.516 274.602 208.879 274.844 209.158C275.086 209.429 275.423 209.565 275.856 209.565C276.289 209.565 276.626 209.429 276.868 209.158C277.11 208.879 277.231 208.516 277.231 208.069ZM273.271 208.003V205.297C273.271 204.461 273.502 203.808 273.964 203.339C274.426 202.87 275.057 202.635 275.856 202.635C276.655 202.635 277.286 202.87 277.748 203.339C278.21 203.808 278.441 204.461 278.441 205.297V208.003C278.441 208.839 278.21 209.492 277.748 209.961C277.286 210.43 276.655 210.665 275.856 210.665C275.057 210.665 274.426 210.43 273.964 209.961C273.502 209.492 273.271 208.839 273.271 208.003ZM283.78 208.069V205.231C283.78 204.784 283.659 204.424 283.417 204.153C283.175 203.874 282.838 203.735 282.405 203.735C281.972 203.735 281.635 203.874 281.393 204.153C281.151 204.424 281.03 204.784 281.03 205.231V208.069C281.03 208.516 281.151 208.879 281.393 209.158C281.635 209.429 281.972 209.565 282.405 209.565C282.838 209.565 283.175 209.429 283.417 209.158C283.659 208.879 283.78 208.516 283.78 208.069ZM279.82 208.003V205.297C279.82 204.461 280.051 203.808 280.513 203.339C280.975 202.87 281.606 202.635 282.405 202.635C283.204 202.635 283.835 202.87 284.297 203.339C284.759 203.808 284.99 204.461 284.99 205.297V208.003C284.99 208.839 284.759 209.492 284.297 209.961C283.835 210.43 283.204 210.665 282.405 210.665C281.606 210.665 280.975 210.43 280.513 209.961C280.051 209.492 279.82 208.839 279.82 208.003ZM290.329 208.069V205.231C290.329 204.784 290.208 204.424 289.966 204.153C289.724 203.874 289.386 203.735 288.954 203.735C288.521 203.735 288.184 203.874 287.942 204.153C287.7 204.424 287.579 204.784 287.579 205.231V208.069C287.579 208.516 287.7 208.879 287.942 209.158C288.184 209.429 288.521 209.565 288.954 209.565C289.386 209.565 289.724 209.429 289.966 209.158C290.208 208.879 290.329 208.516 290.329 208.069ZM286.369 208.003V205.297C286.369 204.461 286.6 203.808 287.062 203.339C287.524 202.87 288.154 202.635 288.954 202.635C289.753 202.635 290.384 202.87 290.846 203.339C291.308 203.808 291.539 204.461 291.539 205.297V208.003C291.539 208.839 291.308 209.492 290.846 209.961C290.384 210.43 289.753 210.665 288.954 210.665C288.154 210.665 287.524 210.43 287.062 209.961C286.6 209.492 286.369 208.839 286.369 208.003Z" fill="#120909"/>
<path d="M142.953 210.5H141.743V204.439H140.94V203.801L142.469 202.8H142.953V210.5ZM148.513 208.069V205.231C148.513 204.784 148.392 204.424 148.15 204.153C147.908 203.874 147.571 203.735 147.138 203.735C146.706 203.735 146.368 203.874 146.126 204.153C145.884 204.424 145.763 204.784 145.763 205.231V208.069C145.763 208.516 145.884 208.879 146.126 209.158C146.368 209.429 146.706 209.565 147.138 209.565C147.571 209.565 147.908 209.429 148.15 209.158C148.392 208.879 148.513 208.516 148.513 208.069ZM144.553 208.003V205.297C144.553 204.461 144.784 203.808 145.246 203.339C145.708 202.87 146.339 202.635 147.138 202.635C147.938 202.635 148.568 202.87 149.03 203.339C149.492 203.808 149.723 204.461 149.723 205.297V208.003C149.723 208.839 149.492 209.492 149.03 209.961C148.568 210.43 147.938 210.665 147.138 210.665C146.339 210.665 145.708 210.43 145.246 209.961C144.784 209.492 144.553 208.839 144.553 208.003ZM155.062 208.069V205.231C155.062 204.784 154.941 204.424 154.699 204.153C154.457 203.874 154.12 203.735 153.687 203.735C153.254 203.735 152.917 203.874 152.675 204.153C152.433 204.424 152.312 204.784 152.312 205.231V208.069C152.312 208.516 152.433 208.879 152.675 209.158C152.917 209.429 153.254 209.565 153.687 209.565C154.12 209.565 154.457 209.429 154.699 209.158C154.941 208.879 155.062 208.516 155.062 208.069ZM151.102 208.003V205.297C151.102 204.461 151.333 203.808 151.795 203.339C152.257 202.87 152.888 202.635 153.687 202.635C154.486 202.635 155.117 202.87 155.579 203.339C156.041 203.808 156.272 204.461 156.272 205.297V208.003C156.272 208.839 156.041 209.492 155.579 209.961C155.117 210.43 154.486 210.665 153.687 210.665C152.888 210.665 152.257 210.43 151.795 209.961C151.333 209.492 151.102 208.839 151.102 208.003ZM161.611 208.069V205.231C161.611 204.784 161.49 204.424 161.248 204.153C161.006 203.874 160.669 203.735 160.236 203.735C159.803 203.735 159.466 203.874 159.224 204.153C158.982 204.424 158.861 204.784 158.861 205.231V208.069C158.861 208.516 158.982 208.879 159.224 209.158C159.466 209.429 159.803 209.565 160.236 209.565C160.669 209.565 161.006 209.429 161.248 209.158C161.49 208.879 161.611 208.516 161.611 208.069ZM157.651 208.003V205.297C157.651 204.461 157.882 203.808 158.344 203.339C158.806 202.87 159.437 202.635 160.236 202.635C161.035 202.635 161.666 202.87 162.128 203.339C162.59 203.808 162.821 204.461 162.821 205.297V208.003C162.821 208.839 162.59 209.492 162.128 209.961C161.666 210.43 161.035 210.665 160.236 210.665C159.437 210.665 158.806 210.43 158.344 209.961C157.882 209.492 157.651 208.839 157.651 208.003Z" fill="#120909"/>
</g>
</svg>
