<svg width="222" height="405" viewBox="0 0 222 405" fill="none" xmlns="http://www.w3.org/2000/svg">
<mask id="path-1-inside-1_391_103" fill="white">
<path fill-rule="evenodd" clip-rule="evenodd" d="M222 0H0V405H222V0ZM111 35C117.075 35 122 30.0751 122 24C122 17.9249 117.075 13 111 13C104.925 13 100 17.9249 100 24C100 30.0751 104.925 35 111 35Z"/>
</mask>
<path fill-rule="evenodd" clip-rule="evenodd" d="M222 0H0V405H222V0ZM111 35C117.075 35 122 30.0751 122 24C122 17.9249 117.075 13 111 13C104.925 13 100 17.9249 100 24C100 30.0751 104.925 35 111 35Z" fill="#FCFCFC"/>
<path d="M0 0V-0.5H-0.5V0H0ZM222 0H222.5V-0.5H222V0ZM0 405H-0.5V405.5H0V405ZM222 405V405.5H222.5V405H222ZM0 0.5H222V-0.5H0V0.5ZM0.5 405V0H-0.5V405H0.5ZM222 404.5H0V405.5H222V404.5ZM221.5 0V405H222.5V0H221.5ZM121.5 24C121.5 29.799 116.799 34.5 111 34.5V35.5C117.351 35.5 122.5 30.3513 122.5 24H121.5ZM111 13.5C116.799 13.5 121.5 18.201 121.5 24H122.5C122.5 17.6487 117.351 12.5 111 12.5V13.5ZM100.5 24C100.5 18.201 105.201 13.5 111 13.5V12.5C104.649 12.5 99.5 17.6487 99.5 24H100.5ZM111 34.5C105.201 34.5 100.5 29.799 100.5 24H99.5C99.5 30.3513 104.649 35.5 111 35.5V34.5Z" fill="#565656" mask="url(#path-1-inside-1_391_103)"/>
<line x1="17" y1="45.5" x2="205" y2="45.5" stroke="black" stroke-opacity="0.5"/>
<path d="M23.428 57.5942H17.268V51.9942H17.732V57.1782H20.116V51.9942H20.58V57.1782H22.964V51.9942H23.428V57.5942ZM25.1473 57.5942H24.6833V51.9942H25.1473V54.5702H26.2033L27.9713 51.9942H28.4033V52.1542L26.6033 54.7542L28.4993 57.4342V57.5942H28.0433L26.2113 54.9862H25.1473V57.5942ZM32.6982 55.7382V53.8502C32.6982 53.3702 32.5516 52.9942 32.2582 52.7222C31.9702 52.4449 31.5702 52.3062 31.0582 52.3062C30.5462 52.3062 30.1436 52.4449 29.8502 52.7222C29.5622 52.9942 29.4182 53.3702 29.4182 53.8502V55.7382C29.4182 56.2182 29.5622 56.5969 29.8502 56.8742C30.1436 57.1462 30.5462 57.2822 31.0582 57.2822C31.5702 57.2822 31.9702 57.1462 32.2582 56.8742C32.5516 56.5969 32.6982 56.2182 32.6982 55.7382ZM31.0582 57.7142C30.4022 57.7142 29.8876 57.5382 29.5142 57.1862C29.1409 56.8289 28.9542 56.3382 28.9542 55.7142V53.8742C28.9542 53.2502 29.1409 52.7622 29.5142 52.4102C29.8876 52.0529 30.4022 51.8742 31.0582 51.8742C31.7036 51.8742 32.2156 52.0529 32.5942 52.4102C32.9729 52.7676 33.1623 53.2556 33.1623 53.8742V55.7142C33.1623 56.3329 32.9729 56.8209 32.5942 57.1782C32.2156 57.5356 31.7036 57.7142 31.0582 57.7142ZM33.6561 57.5942V57.1622C34.0828 57.1622 34.3815 56.9889 34.5521 56.6422C34.7175 56.3062 34.8001 55.6689 34.8001 54.7302V51.9942H38.1201V57.5942H37.6561V52.4102H35.2561V54.7222C35.2561 55.7729 35.1308 56.5169 34.8801 56.9542C34.6295 57.3809 34.2215 57.5942 33.6561 57.5942ZM39.2386 57.5942H38.8146V57.4342L40.9826 51.9942H41.4546L43.6306 57.4342V57.5942H43.1746L42.5506 56.0102H39.8706L39.2386 57.5942ZM41.2146 52.6102L40.0146 55.6102H42.4066L41.2146 52.6102ZM46.5676 57.5942H46.1036V51.9942H46.5676V54.5702H47.6236L49.3916 51.9942H49.8236V52.1542L48.0236 54.7542L49.9196 57.4342V57.5942H49.4636L47.6316 54.9862H46.5676V57.5942ZM50.4767 57.5942H50.0527V57.4342L52.2207 51.9942H52.6927L54.8687 57.4342V57.5942H54.4127L53.7887 56.0102H51.1087L50.4767 57.5942ZM52.4527 52.6102L51.2527 55.6102H53.6447L52.4527 52.6102ZM56.0311 57.5942H55.5671V51.9942H57.8391C58.3137 51.9942 58.6844 52.1436 58.9511 52.4422C59.2177 52.7356 59.3511 53.1382 59.3511 53.6502C59.3511 54.1622 59.2177 54.5649 58.9511 54.8582C58.6844 55.1516 58.3137 55.2982 57.8391 55.2982H56.0311V57.5942ZM56.0311 52.4102V54.8822H57.7671C58.1084 54.8822 58.3777 54.7729 58.5751 54.5542C58.7777 54.3356 58.8791 54.0342 58.8791 53.6502C58.8791 53.2662 58.7777 52.9649 58.5751 52.7462C58.3777 52.5222 58.1084 52.4102 57.7671 52.4102H56.0311ZM59.7917 57.5942H59.3677V57.4342L61.5357 51.9942H62.0077L64.1837 57.4342V57.5942H63.7277L63.1037 56.0102H60.4237L59.7917 57.5942ZM61.7677 52.6102L60.5677 55.6102H62.9597L61.7677 52.6102ZM66.0697 57.5942H65.6057V52.4102H63.8377V51.9942H67.8377V52.4102H66.0697V57.5942ZM70.3079 57.7142C69.7426 57.7142 69.2626 57.5569 68.8679 57.2422C68.4839 56.9222 68.2919 56.4689 68.2919 55.8822V55.8022H68.7559V55.8822C68.7559 56.3196 68.9079 56.6636 69.2119 56.9142C69.5213 57.1596 69.8866 57.2822 70.3079 57.2822C70.8306 57.2822 71.2359 57.1489 71.5239 56.8822C71.8119 56.6156 71.9559 56.2449 71.9559 55.7702V54.9862H69.5479V54.5702H71.9559V53.8182C71.9559 53.3436 71.8119 52.9729 71.5239 52.7062C71.2359 52.4396 70.8306 52.3062 70.3079 52.3062C69.8866 52.3062 69.5213 52.4289 69.2119 52.6742C68.9079 52.9249 68.7559 53.2689 68.7559 53.7062V53.7862H68.2919V53.7062C68.2919 53.1196 68.4839 52.6689 68.8679 52.3542C69.2573 52.0342 69.7373 51.8742 70.3079 51.8742C70.9693 51.8742 71.4866 52.0476 71.8599 52.3942C72.2333 52.7409 72.4199 53.2262 72.4199 53.8502V55.7382C72.4199 56.3622 72.2333 56.8476 71.8599 57.1942C71.4866 57.5409 70.9693 57.7142 70.3079 57.7142ZM76.6361 57.0902H76.2521L74.8921 55.4422L76.2521 53.7942H76.6361V53.9702L75.4121 55.4422L76.6361 56.9142V57.0902ZM78.2521 57.0902H77.8681L76.5081 55.4422L77.8681 53.7942H78.2521V53.9702L77.0281 55.4422L78.2521 56.9142V57.0902ZM79.7183 57.5942H79.2543V51.9942H79.7183V54.5702H80.7743L82.5423 51.9942H82.9743V52.1542L81.1743 54.7542L83.0703 57.4342V57.5942H82.6143L80.7823 54.9862H79.7183V57.5942ZM83.7153 57.5942H83.2833V57.4342L85.1553 54.7462L83.3393 52.1542V51.9942H83.8033L85.4433 54.3782L87.1073 51.9942H87.5393V52.1542L85.7233 54.7462L87.6033 57.4342V57.5942H87.1393L85.4273 55.1142L83.7153 57.5942ZM88.8137 57.5942H88.3817V51.9942H88.8457V56.7782L91.9737 51.9942H92.4057V57.5942H91.9417V52.8102L88.8137 57.5942ZM93.8162 57.5942H93.3682V57.4342L94.7282 55.2662C94.3336 55.2076 94.0269 55.0396 93.8082 54.7622C93.5896 54.4849 93.4802 54.1116 93.4802 53.6422C93.4802 53.1249 93.6136 52.7222 93.8802 52.4342C94.1522 52.1409 94.5336 51.9942 95.0242 51.9942H97.2722V57.5942H96.8082V55.3062H95.2322L93.8162 57.5942ZM95.1042 54.8902H96.8082V52.4102H95.1042C94.7416 52.4102 94.4589 52.5196 94.2562 52.7382C94.0589 52.9569 93.9602 53.2609 93.9602 53.6502C93.9602 54.0449 94.0589 54.3516 94.2562 54.5702C94.4589 54.7836 94.7416 54.8902 95.1042 54.8902ZM98.6529 53.7942L100.013 55.4422L98.6529 57.0902H98.2689V56.9142L99.4929 55.4422L98.2689 53.9702V53.7942H98.6529ZM100.269 53.7942L101.629 55.4422L100.269 57.0902H99.8849V56.9142L101.109 55.4422L99.8849 53.9702V53.7942H100.269Z" fill="black" fill-opacity="0.8"/>
<path d="M25.9535 182.594H25.4926V178.886H27.7546V179.294H25.9535V182.594ZM27.5687 182.594V182.17C27.8512 182.17 28.0419 182.07 28.1408 181.869C28.2432 181.664 28.2944 181.272 28.2944 180.693V178.886H30.5511V182.594H30.0902V179.294H28.7288V180.74C28.7288 181.429 28.637 181.909 28.4533 182.181C28.2732 182.457 27.9783 182.594 27.5687 182.594ZM31.4033 182.594H30.9795V182.441L32.3621 178.886H32.8229L34.2108 182.441V182.594H33.7553L33.3845 181.609H31.7847L31.4033 182.594ZM32.5846 179.501L31.9224 181.217H33.2414L32.5846 179.501ZM36.3311 182.594H34.6412V178.886H36.1987C36.5165 178.886 36.7619 178.971 36.935 179.14C37.108 179.306 37.1945 179.547 37.1945 179.861C37.1945 180.26 37.0339 180.528 36.7125 180.666C37.1292 180.786 37.3376 181.092 37.3376 181.582C37.3376 181.907 37.2493 182.158 37.0727 182.335C36.8961 182.508 36.6489 182.594 36.3311 182.594ZM35.1021 180.915V182.186H36.2516C36.4529 182.186 36.6065 182.132 36.7125 182.022C36.822 181.913 36.8767 181.757 36.8767 181.556C36.8767 181.351 36.822 181.194 36.7125 181.085C36.6065 180.971 36.4529 180.915 36.2516 180.915H35.1021ZM35.1021 179.294V180.523H36.1298C36.324 180.523 36.4723 180.47 36.5748 180.364C36.6807 180.255 36.7337 180.103 36.7337 179.909C36.7337 179.711 36.6807 179.559 36.5748 179.453C36.4723 179.347 36.3205 179.294 36.1192 179.294H35.1021ZM38.3879 182.594H37.927V178.886H38.3879V180.528H40.1943V178.886H40.6551V182.594H40.1943V180.936H38.3879V182.594ZM42.9921 182.594H41.4559V178.886H41.9168V180.364H42.9921C43.317 180.364 43.5713 180.465 43.755 180.666C43.9386 180.864 44.0304 181.134 44.0304 181.477C44.0304 181.826 43.9386 182.1 43.755 182.298C43.5713 182.495 43.317 182.594 42.9921 182.594ZM41.9168 180.772V182.186H42.9392C43.1299 182.186 43.28 182.125 43.3894 182.001C43.5025 181.874 43.559 181.699 43.559 181.477C43.559 181.258 43.5025 181.086 43.3894 180.963C43.28 180.836 43.1299 180.772 42.9392 180.772H41.9168ZM45.1005 182.594H44.6396V178.886H45.1005V182.594ZM46.3243 182.594H45.9005V178.886H46.3614V181.794L48.2207 178.886H48.6445V182.594H48.1836V179.686L46.3243 182.594ZM46.4461 177.949V177.885H46.8169V177.943C46.8169 178.07 46.8558 178.171 46.9335 178.245C47.0147 178.316 47.1277 178.351 47.2725 178.351C47.4173 178.351 47.5303 178.316 47.6115 178.245C47.6927 178.171 47.7334 178.07 47.7334 177.943V177.885H48.1042V177.949C48.1042 178.171 48.0282 178.348 47.8764 178.478C47.7245 178.609 47.5232 178.674 47.2725 178.674C47.0253 178.674 46.8257 178.609 46.6739 178.478C46.522 178.348 46.4461 178.171 46.4461 177.949ZM51.0236 182.594H50.5787V178.886H51.0236L52.2208 180.767L53.418 178.886H53.8471V182.594H53.4021V179.702L52.3638 181.333H52.0619L51.0236 179.707V182.594ZM54.6986 182.594H54.2748V182.441L55.6574 178.886H56.1182L57.5061 182.441V182.594H57.0506L56.6797 181.609H55.08L54.6986 182.594ZM55.8798 179.501L55.2177 181.217H56.5367L55.8798 179.501ZM59.2503 182.674C58.8017 182.674 58.4521 182.557 58.2014 182.324C57.9542 182.087 57.8306 181.759 57.8306 181.339V180.142C57.8306 179.721 57.9542 179.395 58.2014 179.162C58.4521 178.925 58.8017 178.807 59.2503 178.807C59.6352 178.807 59.9566 178.914 60.2144 179.13C60.4722 179.345 60.6011 179.658 60.6011 180.067V180.12H60.1402V180.067C60.1402 179.795 60.0501 179.589 59.87 179.448C59.6935 179.303 59.4851 179.23 59.245 179.23C58.9377 179.23 58.7011 179.308 58.5351 179.464C58.3727 179.615 58.2914 179.831 58.2914 180.11V181.371C58.2914 181.65 58.3727 181.867 58.5351 182.022C58.7011 182.174 58.9377 182.25 59.245 182.25C59.4851 182.25 59.6935 182.178 59.87 182.033C60.0501 181.891 60.1402 181.685 60.1402 181.413V181.36H60.6011V181.413C60.6011 181.823 60.4722 182.135 60.2144 182.351C59.9566 182.566 59.6352 182.674 59.2503 182.674ZM62.4614 182.594H62.0005V179.294H60.8722V178.886H63.5844V179.294H62.4614V182.594ZM66.3264 182.594H64.0114V178.886H66.3211V179.294H64.4723V180.523H66.0721V180.931H64.4723V182.186H66.3264V182.594ZM67.3804 182.594H66.9196V178.886H68.4717C68.7895 178.886 69.0385 178.987 69.2186 179.188C69.4022 179.389 69.4941 179.661 69.4941 180.004C69.4941 180.346 69.4022 180.618 69.2186 180.82C69.0385 181.017 68.7895 181.116 68.4717 181.116H67.3804V182.594ZM67.3804 179.294V180.708H68.3922C68.5865 180.708 68.7401 180.647 68.8531 180.523C68.9661 180.396 69.0226 180.223 69.0226 180.004C69.0226 179.781 68.9661 179.608 68.8531 179.485C68.7401 179.358 68.5865 179.294 68.3922 179.294H67.3804Z" fill="black" fill-opacity="0.5"/>
<path d="M29.7888 189.405H25.4768V185.697H26.1124V188.849H27.3149V185.697H27.9506V188.849H29.1531V185.697H29.7888V189.405ZM31.1933 189.405H30.6106V186.651H31.1933V188.505L32.4117 186.651H32.9944V189.405H32.4117V187.551L31.1933 189.405ZM34.347 189.405H33.7643V186.651H34.347V187.774H35.5071V186.651H36.0898V189.405H35.5071V188.282H34.347V189.405ZM37.8002 189.405H37.6783V188.823H37.779C38.005 188.823 38.1604 188.727 38.2451 188.537C38.3299 188.339 38.3723 187.991 38.3723 187.493V185.697H40.6872V189.405H40.0515V186.253H38.955V187.678C38.955 188.83 38.57 189.405 37.8002 189.405ZM42.0908 189.405H41.5081V186.651H42.0908V188.505L43.3092 186.651H43.8919V189.405H43.3092V187.551L42.0908 189.405ZM46.5437 189.405H45.908V185.697H47.5131C47.838 185.697 48.0922 185.8 48.2759 186.004C48.463 186.209 48.5566 186.486 48.5566 186.836C48.5566 187.186 48.463 187.463 48.2759 187.668C48.0922 187.873 47.838 187.975 47.5131 187.975H46.5437V189.405ZM46.5437 186.253V187.419H47.4018C47.5537 187.419 47.6755 187.368 47.7673 187.265C47.8627 187.163 47.9104 187.02 47.9104 186.836C47.9104 186.652 47.8627 186.509 47.7673 186.407C47.6755 186.305 47.5537 186.253 47.4018 186.253H46.5437ZM49.6691 189.405H49.0864V186.651H49.6691V188.505L50.8874 186.651H51.4701V189.405H50.8874V187.551L49.6691 189.405ZM52.8228 189.405H52.2401V186.651H54.0889V187.159H52.8228V189.405Z" fill="black"/>
<path d="M25.9535 199.243H25.4926V195.535H27.7546V195.942H25.9535V199.243ZM29.4508 198.898C29.751 198.898 29.9858 198.819 30.1553 198.66C30.3284 198.498 30.4149 198.282 30.4149 198.014V196.764C30.4149 196.495 30.3284 196.281 30.1553 196.123C29.9858 195.96 29.751 195.879 29.4508 195.879C29.1471 195.879 28.9105 195.96 28.741 196.123C28.5715 196.281 28.4867 196.495 28.4867 196.764V198.014C28.4867 198.282 28.5715 198.498 28.741 198.66C28.9105 198.819 29.1471 198.898 29.4508 198.898ZM28.0258 197.993V196.785C28.0258 196.372 28.153 196.047 28.4072 195.81C28.665 195.573 29.0129 195.455 29.4508 195.455C29.8887 195.455 30.2348 195.573 30.4891 195.81C30.7469 196.047 30.8758 196.372 30.8758 196.785V197.993C30.8758 198.406 30.7469 198.731 30.4891 198.967C30.2348 199.204 29.8887 199.322 29.4508 199.322C29.0129 199.322 28.665 199.204 28.4072 198.967C28.153 198.731 28.0258 198.406 28.0258 197.993ZM31.647 200H31.2232V198.835H31.504C31.61 198.694 31.6894 198.573 31.7424 198.475C31.9048 198.171 31.9861 197.719 31.9861 197.118V195.535H34.1685V198.835H34.6241V200H34.2003V199.243H31.647V200ZM32.002 198.835H33.7077V195.942H32.4098V197.118C32.4098 197.433 32.3869 197.705 32.341 197.934C32.2986 198.167 32.2527 198.342 32.2032 198.459C32.1644 198.547 32.0973 198.672 32.002 198.835ZM36.6689 199.243H35.1327V195.535H35.5936V197.013H36.6689C36.9938 197.013 37.2481 197.113 37.4317 197.314C37.6154 197.512 37.7072 197.782 37.7072 198.125C37.7072 198.475 37.6154 198.748 37.4317 198.946C37.2481 199.144 36.9938 199.243 36.6689 199.243ZM35.5936 197.42V198.835H36.6159C36.8066 198.835 36.9567 198.773 37.0662 198.649C37.1792 198.522 37.2357 198.347 37.2357 198.125C37.2357 197.906 37.1792 197.735 37.0662 197.611C36.9567 197.484 36.8066 197.42 36.6159 197.42H35.5936ZM38.7772 199.243H38.3164V195.535H38.7772V199.243ZM42.4008 199.243H40.711V195.535H42.2684C42.5862 195.535 42.8317 195.619 43.0047 195.789C43.1778 195.955 43.2643 196.195 43.2643 196.509C43.2643 196.908 43.1036 197.177 42.7822 197.314C43.199 197.435 43.4073 197.74 43.4073 198.231C43.4073 198.556 43.319 198.807 43.1425 198.983C42.9659 199.156 42.7187 199.243 42.4008 199.243ZM41.1719 197.563V198.835H42.3214C42.5227 198.835 42.6763 198.78 42.7822 198.671C42.8917 198.561 42.9465 198.406 42.9465 198.204C42.9465 198 42.8917 197.842 42.7822 197.733C42.6763 197.62 42.5227 197.563 42.3214 197.563H41.1719ZM41.1719 195.942V197.171H42.1995C42.3938 197.171 42.5421 197.118 42.6445 197.013C42.7505 196.903 42.8034 196.751 42.8034 196.557C42.8034 196.359 42.7505 196.207 42.6445 196.101C42.5421 195.995 42.3902 195.942 42.1889 195.942H41.1719ZM46.3117 199.243H43.9968V195.535H46.3064V195.942H44.4576V197.171H46.0574V197.579H44.4576V198.835H46.3117V199.243ZM46.9844 200H46.5606V198.835H46.8413C46.9473 198.694 47.0267 198.573 47.0797 198.475C47.2422 198.171 47.3234 197.719 47.3234 197.118V195.535H49.5059V198.835H49.9614V200H49.5377V199.243H46.9844V200ZM47.3393 198.835H49.045V195.942H47.7472V197.118C47.7472 197.433 47.7242 197.705 47.6783 197.934C47.6359 198.167 47.59 198.342 47.5406 198.459C47.5017 198.547 47.4346 198.672 47.3393 198.835ZM52.7849 199.243H50.47V195.535H52.7796V195.942H50.9309V197.171H52.5307V197.579H50.9309V198.835H52.7849V199.243ZM53.839 199.243H53.3782V195.535H53.839V197.177H55.6454V195.535H56.1063V199.243H55.6454V197.585H53.839V199.243ZM57.3309 199.243H56.9071V195.535H57.3679V198.443L59.2273 195.535H59.6511V199.243H59.1902V196.334L57.3309 199.243ZM60.6687 199.243H60.229V199.089L61.0607 197.744C60.817 197.684 60.6298 197.562 60.4992 197.378C60.3685 197.191 60.3032 196.952 60.3032 196.663C60.3032 196.31 60.395 196.034 60.5786 195.837C60.7658 195.635 61.0289 195.535 61.3679 195.535H62.8777V199.243H62.4168V197.797H61.5374L60.6687 199.243ZM61.458 197.389H62.4168V195.942H61.458C61.239 195.942 61.0695 196.004 60.9494 196.128C60.8329 196.251 60.7746 196.432 60.7746 196.668C60.7746 197.148 61.0024 197.389 61.458 197.389Z" fill="black" fill-opacity="0.5"/>
<path d="M26.7481 205.545H26.2184V204.639H25.3178V204.152H26.2184V203.246H26.7481V204.152H27.6486V204.639H26.7481V205.545ZM30.5281 206.054H28.1496V205.577L29.2673 204.443C29.5251 204.178 29.7 203.982 29.7918 203.855C29.8836 203.721 29.9295 203.573 29.9295 203.41C29.9295 203.227 29.8765 203.078 29.7706 202.965C29.6682 202.852 29.5234 202.796 29.3362 202.796C29.1314 202.796 28.976 202.861 28.87 202.992C28.7641 203.119 28.7094 203.296 28.7058 203.522H28.1496C28.1567 203.13 28.2679 202.822 28.4833 202.6C28.6988 202.377 28.9831 202.266 29.3362 202.266C29.707 202.266 29.9948 202.374 30.1997 202.589C30.408 202.808 30.5122 203.075 30.5122 203.389C30.5122 203.647 30.4486 203.873 30.3215 204.067C30.205 204.247 30.0001 204.482 29.707 204.772L28.9389 205.524H30.5281V206.054ZM32.3068 206.133C31.9537 206.133 31.6659 206.038 31.4434 205.847C31.2209 205.653 31.0902 205.383 31.0514 205.037H31.6235C31.6482 205.206 31.7224 205.344 31.846 205.45C31.9696 205.552 32.1267 205.603 32.3174 205.603C32.5329 205.603 32.6953 205.535 32.8048 205.397C32.9178 205.256 32.9743 205.058 32.9743 204.804C32.9743 204.57 32.916 204.385 32.7995 204.247C32.6829 204.11 32.5276 204.041 32.3333 204.041C32.0861 204.041 31.8901 204.141 31.7453 204.343H31.1679L31.3533 202.346H33.3504V202.875H31.8301L31.7453 203.765C31.9537 203.631 32.185 203.564 32.4393 203.564C32.7642 203.564 33.0308 203.666 33.2392 203.871C33.4511 204.073 33.557 204.383 33.557 204.804C33.557 205.224 33.444 205.55 33.218 205.784C32.9955 206.017 32.6918 206.133 32.3068 206.133ZM35.289 206.054H35.146V205.524H35.2042C35.3702 205.524 35.4885 205.469 35.5592 205.36C35.6333 205.247 35.6704 205.074 35.6704 204.841V203.299H37.7364V206.054H37.1537V203.808H36.2213V204.835C36.2213 205.224 36.1366 205.524 35.9671 205.736C35.7975 205.948 35.5715 206.054 35.289 206.054ZM39.5567 206.117C39.1965 206.117 38.9104 206.027 38.6985 205.847C38.4866 205.667 38.3807 205.42 38.3807 205.105V204.258C38.3807 203.947 38.4866 203.7 38.6985 203.516C38.9175 203.329 39.2035 203.236 39.5567 203.236C39.9063 203.236 40.1818 203.326 40.3831 203.506C40.5879 203.686 40.6903 203.933 40.6903 204.247V204.867H38.9634V205.095C38.9634 205.247 39.0146 205.367 39.117 205.455C39.223 205.543 39.3695 205.588 39.5567 205.588C39.8675 205.588 40.0493 205.466 40.1023 205.222H40.685C40.6568 205.501 40.5437 205.72 40.346 205.879C40.1482 206.038 39.8851 206.117 39.5567 206.117ZM38.9634 204.247V204.422H40.1076V204.247C40.1076 204.099 40.0564 203.982 39.954 203.898C39.8551 203.809 39.7156 203.765 39.5355 203.765C39.3554 203.765 39.2141 203.809 39.1117 203.898C39.0128 203.982 38.9634 204.099 38.9634 204.247ZM42.4956 206.054H41.9129V203.808H41.0177V203.299H43.3909V203.808H42.4956V206.054Z" fill="black"/>
<path d="M32.3848 150.556H24.7959V112.542H19.7596V108.541L29.3493 102.262H32.3848V150.556ZM53.8047 150.556H46.9746V147.796L61.7386 109.162H45.6638V116.061H38.6268V102.262H69.6035V108.679L53.8047 150.556ZM104.724 150.556H73.7472V144.347L88.3041 129.583C91.6616 126.133 93.9383 123.58 95.1342 121.925C96.33 120.177 96.9279 118.245 96.9279 116.13C96.9279 113.738 96.238 111.806 94.8582 110.334C93.5244 108.863 91.6386 108.127 89.201 108.127C86.5334 108.127 84.5097 108.978 83.1299 110.679C81.75 112.335 81.0371 114.635 80.9912 117.578H73.7472C73.8392 112.473 75.288 108.472 78.0936 105.574C80.8992 102.676 84.6016 101.228 89.201 101.228C94.0303 101.228 97.7788 102.63 100.446 105.436C103.16 108.288 104.517 111.76 104.517 115.854C104.517 119.211 103.689 122.155 102.033 124.684C100.515 127.03 97.8478 130.089 94.0303 133.86L84.0267 143.657H104.724V150.556ZM108.261 134.895C108.261 131.491 109.825 127.26 112.953 122.201L125.44 102.262H132.408V105.022L122.128 120.89C123.922 120.246 125.808 119.924 127.785 119.924C131.695 119.924 134.914 121.258 137.444 123.925C140.066 126.547 141.376 130.204 141.376 134.895C141.376 140.092 139.905 144.186 136.961 147.175C134.018 150.119 129.97 151.591 124.819 151.591C119.668 151.591 115.62 150.119 112.677 147.175C109.733 144.186 108.261 140.092 108.261 134.895ZM133.788 135.309C133.788 132.365 133.029 130.089 131.511 128.479C129.993 126.869 127.762 126.064 124.819 126.064C121.875 126.064 119.645 126.869 118.127 128.479C116.609 130.089 115.85 132.365 115.85 135.309C115.85 138.206 116.632 140.506 118.196 142.208C119.76 143.864 121.967 144.691 124.819 144.691C127.67 144.691 129.878 143.864 131.442 142.208C133.006 140.506 133.788 138.206 133.788 135.309Z" fill="black"/>
<path d="M141.468 108.403H140.291V107.876L141.292 105.594L137.904 97.2378V96.5707H139.22L141.977 103.698L144.68 96.5707H145.962V97.2378L141.468 108.403ZM153.087 105.594H151.683V102.118C150.922 102.317 150.144 102.417 149.348 102.417C148.213 102.417 147.335 102.177 146.715 101.697C146.106 101.217 145.802 100.497 145.802 99.5376V96.5707H147.206V99.3971C147.206 100.556 147.99 101.135 149.559 101.135C150.308 101.135 151.016 101.041 151.683 100.854V96.5707H153.087V105.594ZM157.859 105.805C156.7 105.805 155.781 105.506 155.102 104.91C154.435 104.313 154.102 103.505 154.102 102.487V99.7131C154.102 98.6949 154.435 97.8815 155.102 97.2729C155.781 96.6643 156.7 96.36 157.859 96.36C158.994 96.36 159.883 96.6585 160.527 97.2553C161.182 97.8522 161.51 98.6598 161.51 99.678V101.556H155.506V102.452C155.506 103.084 155.711 103.587 156.121 103.962C156.542 104.336 157.121 104.523 157.859 104.523C159.146 104.523 159.877 103.979 160.053 102.891H161.457C161.376 103.804 161.019 104.517 160.387 105.032C159.766 105.547 158.924 105.805 157.859 105.805ZM155.506 99.678V100.415H160.106V99.678C160.106 99.0577 159.901 98.5662 159.491 98.2033C159.093 97.8288 158.532 97.6416 157.806 97.6416C157.092 97.6416 156.53 97.8288 156.121 98.2033C155.711 98.5662 155.506 99.0577 155.506 99.678ZM163.915 105.594H162.511V96.5707H163.915V100.468H168.533V96.5707H169.937V105.594H168.533V101.697H163.915V105.594ZM172.761 105.594H171.357V96.5707H172.761V103.435L177.554 96.5707H178.958V105.594H177.554V98.7476L172.761 105.594ZM181.778 105.594H180.374V96.5707H181.778V100.45H183.323L186.22 96.5707H187.396V97.2378L184.57 100.995L187.536 104.927V105.594H186.272L183.323 101.679H181.778V105.594ZM191.304 104.523C192.053 104.523 192.626 104.33 193.024 103.944C193.434 103.558 193.639 103.043 193.639 102.399V99.7658C193.639 99.1221 193.434 98.6071 193.024 98.2209C192.626 97.8347 192.053 97.6416 191.304 97.6416C190.567 97.6416 189.987 97.8405 189.566 98.2385C189.156 98.6247 188.951 99.1338 188.951 99.7658V102.399C188.951 103.031 189.156 103.546 189.566 103.944C189.987 104.33 190.567 104.523 191.304 104.523ZM187.547 102.452V99.7131C187.547 98.7066 187.875 97.8991 188.53 97.2905C189.197 96.6702 190.122 96.36 191.304 96.36C192.486 96.36 193.405 96.6643 194.06 97.2729C194.716 97.8815 195.043 98.6949 195.043 99.7131V102.452C195.043 103.47 194.716 104.283 194.06 104.892C193.405 105.501 192.486 105.805 191.304 105.805C190.122 105.805 189.197 105.501 188.53 104.892C187.875 104.272 187.547 103.458 187.547 102.452ZM200.396 105.594H196.059V96.5707H200.185C201.086 96.5707 201.782 96.7696 202.274 97.1676C202.766 97.5655 203.011 98.1507 203.011 98.9231C203.011 99.9296 202.625 100.614 201.853 100.977C202.894 101.317 203.415 102.013 203.415 103.066C203.415 104.752 202.409 105.594 200.396 105.594ZM197.464 101.627V104.365H200.431C200.91 104.365 201.273 104.242 201.519 103.997C201.777 103.751 201.905 103.411 201.905 102.978C201.905 102.077 201.402 101.627 200.396 101.627H197.464ZM197.464 97.7996V100.503H200.15C200.594 100.503 200.934 100.38 201.168 100.134C201.414 99.8887 201.537 99.5551 201.537 99.1338C201.537 98.2443 201.068 97.7996 200.132 97.7996H197.464Z" fill="black"/>
<line x1="14.5" y1="239.634" x2="67.5" y2="239.634" stroke="black" stroke-opacity="0.5" stroke-width="0.731903"/>
<path d="M15.4222 246.66H14.9765V243.073H15.4222V244.662H15.996L17.036 243.073H17.451V243.222L16.3854 244.836L17.5176 246.511V246.66H17.077L16.0011 245.056H15.4222V246.66ZM19.1599 246.327C19.4502 246.327 19.6773 246.25 19.8413 246.096C20.0086 245.939 20.0923 245.731 20.0923 245.471V244.262C20.0923 244.002 20.0086 243.796 19.8413 243.642C19.6773 243.485 19.4502 243.406 19.1599 243.406C18.8661 243.406 18.6373 243.485 18.4733 243.642C18.3094 243.796 18.2274 244.002 18.2274 244.262V245.471C18.2274 245.731 18.3094 245.939 18.4733 246.096C18.6373 246.25 18.8661 246.327 19.1599 246.327ZM17.7817 245.451V244.282C17.7817 243.883 17.9046 243.569 18.1506 243.34C18.3999 243.111 18.7363 242.996 19.1599 242.996C19.5834 242.996 19.9181 243.111 20.164 243.34C20.4134 243.569 20.538 243.883 20.538 244.282V245.451C20.538 245.85 20.4134 246.164 20.164 246.393C19.9181 246.622 19.5834 246.737 19.1599 246.737C18.7363 246.737 18.3999 246.622 18.1506 246.393C17.9046 246.164 17.7817 245.85 17.7817 245.451ZM20.8126 246.66V246.25C21.0859 246.25 21.2703 246.152 21.3659 245.958C21.465 245.76 21.5145 245.381 21.5145 244.82V243.073H23.697V246.66H23.2513V243.468H21.9346V244.867C21.9346 245.533 21.8458 245.997 21.6682 246.26C21.494 246.526 21.2088 246.66 20.8126 246.66ZM24.8799 246.66H24.47V243.073H24.9158V245.886L26.714 243.073H27.1239V246.66H26.6782V243.847L24.8799 246.66ZM30.265 246.66H29.8193V245.138C29.5529 245.23 29.2848 245.276 29.0149 245.276C28.1679 245.276 27.7443 244.918 27.7443 244.2V243.073H28.1901V244.154C28.1901 244.629 28.4753 244.867 29.0457 244.867C29.3257 244.867 29.5836 244.819 29.8193 244.723V243.073H30.265V246.66ZM33.2798 246.66H31.0409V243.073H33.2747V243.468H31.4866V244.656H33.0339V245.051H31.4866V246.265H33.2798V246.66ZM35.0741 246.737C34.6403 246.737 34.3021 246.624 34.0596 246.398C33.8206 246.17 33.701 245.852 33.701 245.445V244.288C33.701 243.881 33.8206 243.565 34.0596 243.34C34.3021 243.111 34.6403 242.996 35.0741 242.996C35.4464 242.996 35.7572 243.101 36.0065 243.309C36.2558 243.517 36.3805 243.82 36.3805 244.216V244.267H35.9348V244.216C35.9348 243.953 35.8477 243.753 35.6735 243.616C35.5027 243.476 35.3012 243.406 35.0689 243.406C34.7718 243.406 34.5429 243.482 34.3824 243.632C34.2253 243.779 34.1467 243.987 34.1467 244.257V245.476C34.1467 245.746 34.2253 245.956 34.3824 246.106C34.5429 246.253 34.7718 246.327 35.0689 246.327C35.3012 246.327 35.5027 246.257 35.6735 246.117C35.8477 245.98 35.9348 245.78 35.9348 245.517V245.466H36.3805V245.517C36.3805 245.913 36.2558 246.216 36.0065 246.424C35.7572 246.632 35.4464 246.737 35.0741 246.737ZM38.1797 246.66H37.734V243.468H36.6427V243.073H39.2659V243.468H38.1797V246.66ZM41.3132 246.66H39.6789V243.073H41.1851C41.4925 243.073 41.7299 243.155 41.8973 243.319C42.0646 243.48 42.1483 243.712 42.1483 244.016C42.1483 244.402 41.9929 244.662 41.6821 244.795C42.0851 244.911 42.2867 245.206 42.2867 245.681C42.2867 245.995 42.2013 246.238 42.0305 246.409C41.8597 246.576 41.6206 246.66 41.3132 246.66ZM40.1246 245.036V246.265H41.2364C41.4311 246.265 41.5796 246.212 41.6821 246.106C41.788 246 41.8409 245.85 41.8409 245.655C41.8409 245.457 41.788 245.305 41.6821 245.2C41.5796 245.09 41.4311 245.036 41.2364 245.036H40.1246ZM40.1246 243.468V244.656H41.1185C41.3064 244.656 41.4499 244.605 41.5489 244.503C41.6514 244.397 41.7026 244.25 41.7026 244.062C41.7026 243.871 41.6514 243.724 41.5489 243.622C41.4499 243.519 41.303 243.468 41.1083 243.468H40.1246ZM44.1325 246.327C44.4228 246.327 44.6499 246.25 44.8139 246.096C44.9812 245.939 45.0649 245.731 45.0649 245.471V244.262C45.0649 244.002 44.9812 243.796 44.8139 243.642C44.6499 243.485 44.4228 243.406 44.1325 243.406C43.8387 243.406 43.6099 243.485 43.4459 243.642C43.282 243.796 43.2 244.002 43.2 244.262V245.471C43.2 245.731 43.282 245.939 43.4459 246.096C43.6099 246.25 43.8387 246.327 44.1325 246.327ZM42.7543 245.451V244.282C42.7543 243.883 42.8772 243.569 43.1232 243.34C43.3725 243.111 43.7089 242.996 44.1325 242.996C44.556 242.996 44.8907 243.111 45.1366 243.34C45.386 243.569 45.5106 243.883 45.5106 244.282V245.451C45.5106 245.85 45.386 246.164 45.1366 246.393C44.8907 246.622 44.556 246.737 44.1325 246.737C43.7089 246.737 43.3725 246.622 43.1232 246.393C42.8772 246.164 42.7543 245.85 42.7543 245.451ZM48.9106 246.66H47.2762V243.073H48.7825C49.0899 243.073 49.3273 243.155 49.4946 243.319C49.662 243.48 49.7457 243.712 49.7457 244.016C49.7457 244.402 49.5903 244.662 49.2794 244.795C49.6825 244.911 49.884 245.206 49.884 245.681C49.884 245.995 49.7986 246.238 49.6278 246.409C49.457 246.576 49.218 246.66 48.9106 246.66ZM47.7219 245.036V246.265H48.8337C49.0284 246.265 49.177 246.212 49.2794 246.106C49.3853 246 49.4383 245.85 49.4383 245.655C49.4383 245.457 49.3853 245.305 49.2794 245.2C49.177 245.09 49.0284 245.036 48.8337 245.036H47.7219ZM47.7219 243.468V244.656H48.7159C48.9037 244.656 49.0472 244.605 49.1462 244.503C49.2487 244.397 49.2999 244.25 49.2999 244.062C49.2999 243.871 49.2487 243.724 49.1462 243.622C49.0472 243.519 48.9003 243.468 48.7056 243.468H47.7219ZM51.9398 246.66H50.4541V243.073H50.8998V244.503H51.9398C52.2541 244.503 52.5 244.6 52.6776 244.795C52.8552 244.986 52.944 245.247 52.944 245.579C52.944 245.917 52.8552 246.181 52.6776 246.373C52.5 246.564 52.2541 246.66 51.9398 246.66ZM50.8998 244.897V246.265H51.8886C52.073 246.265 52.2182 246.205 52.3241 246.086C52.4334 245.963 52.488 245.794 52.488 245.579C52.488 245.367 52.4334 245.201 52.3241 245.082C52.2182 244.959 52.073 244.897 51.8886 244.897H50.8998ZM53.9789 246.66H53.5332V243.073H53.9789V246.66ZM55.1984 246.66H54.7527V243.073H57.3604V246.66H56.9147V243.468H55.1984V246.66ZM58.5968 246.66V246.511L58.9913 245.691L57.7258 243.222V243.073H58.1408L59.2167 245.194L60.1491 243.073H60.5436V243.222L59.022 246.66H58.5968ZM62.1788 246.737C61.7451 246.737 61.4069 246.624 61.1644 246.398C60.9253 246.17 60.8058 245.852 60.8058 245.445V244.288C60.8058 243.881 60.9253 243.565 61.1644 243.34C61.4069 243.111 61.7451 242.996 62.1788 242.996C62.5511 242.996 62.8619 243.101 63.1113 243.309C63.3606 243.517 63.4853 243.82 63.4853 244.216V244.267H63.0396V244.216C63.0396 243.953 62.9525 243.753 62.7783 243.616C62.6075 243.476 62.406 243.406 62.1737 243.406C61.8766 243.406 61.6477 243.482 61.4872 243.632C61.3301 243.779 61.2515 243.987 61.2515 244.257V245.476C61.2515 245.746 61.3301 245.956 61.4872 246.106C61.6477 246.253 61.8766 246.327 62.1737 246.327C62.406 246.327 62.6075 246.257 62.7783 246.117C62.9525 245.98 63.0396 245.78 63.0396 245.517V245.466H63.4853V245.517C63.4853 245.913 63.3606 246.216 63.1113 246.424C62.8619 246.632 62.5511 246.737 62.1788 246.737ZM64.5519 246.66H64.1061V243.073H64.5519V244.662H65.1257L66.1657 243.073H66.5807V243.222L65.515 244.836L66.6473 246.511V246.66H66.2067L65.1308 245.056H64.5519V246.66ZM67.5096 246.66H67.0638V243.073H67.5096V244.662H69.2566V243.073H69.7024V246.66H69.2566V245.056H67.5096V246.66ZM70.8867 246.66H70.4769V243.073H70.9226V245.886L72.7209 243.073H73.1307V246.66H72.685V243.847L70.8867 246.66ZM74.3506 246.66H73.9049V243.073H74.3506V244.662H74.9244L75.9645 243.073H76.3795V243.222L75.3138 244.836L76.4461 246.511V246.66H76.0054L74.9296 245.056H74.3506V246.66ZM78.0883 246.327C78.3786 246.327 78.6057 246.25 78.7697 246.096C78.937 245.939 79.0207 245.731 79.0207 245.471V244.262C79.0207 244.002 78.937 243.796 78.7697 243.642C78.6057 243.485 78.3786 243.406 78.0883 243.406C77.7945 243.406 77.5657 243.485 77.4018 243.642C77.2378 243.796 77.1558 244.002 77.1558 244.262V245.471C77.1558 245.731 77.2378 245.939 77.4018 246.096C77.5657 246.25 77.7945 246.327 78.0883 246.327ZM76.7101 245.451V244.282C76.7101 243.883 76.8331 243.569 77.079 243.34C77.3283 243.111 77.6647 242.996 78.0883 242.996C78.5118 242.996 78.8465 243.111 79.0924 243.34C79.3418 243.569 79.4665 243.883 79.4665 244.282V245.451C79.4665 245.85 79.3418 246.164 79.0924 246.393C78.8465 246.622 78.5118 246.737 78.0883 246.737C77.6647 246.737 77.3283 246.622 77.079 246.393C76.8331 246.164 76.7101 245.85 76.7101 245.451ZM81.7699 246.66H80.1355V243.073H81.6418C81.9492 243.073 82.1866 243.155 82.3539 243.319C82.5213 243.48 82.605 243.712 82.605 244.016C82.605 244.402 82.4496 244.662 82.1387 244.795C82.5418 244.911 82.7433 245.206 82.7433 245.681C82.7433 245.995 82.6579 246.238 82.4871 246.409C82.3164 246.576 82.0773 246.66 81.7699 246.66ZM80.5813 245.036V246.265H81.693C81.8877 246.265 82.0363 246.212 82.1387 246.106C82.2446 246 82.2976 245.85 82.2976 245.655C82.2976 245.457 82.2446 245.305 82.1387 245.2C82.0363 245.09 81.8877 245.036 81.693 245.036H80.5813ZM80.5813 243.468V244.656H81.5752C81.763 244.656 81.9065 244.605 82.0055 244.503C82.108 244.397 82.1592 244.25 82.1592 244.062C82.1592 243.871 82.108 243.724 82.0055 243.622C81.9065 243.519 81.7596 243.468 81.5649 243.468H80.5813Z" fill="black" fill-opacity="0.5"/>
<path d="M16.2522 252.914C16.5425 252.914 16.7696 252.837 16.9336 252.683C17.1009 252.526 17.1846 252.318 17.1846 252.058V250.849C17.1846 250.589 17.1009 250.383 16.9336 250.229C16.7696 250.072 16.5425 249.993 16.2522 249.993C15.9584 249.993 15.7296 250.072 15.5657 250.229C15.4017 250.383 15.3197 250.589 15.3197 250.849V252.058C15.3197 252.318 15.4017 252.526 15.5657 252.683C15.7296 252.837 15.9584 252.914 16.2522 252.914ZM14.874 252.037V250.869C14.874 250.47 14.997 250.156 15.2429 249.927C15.4922 249.698 15.8286 249.583 16.2522 249.583C16.6757 249.583 17.0104 249.698 17.2563 249.927C17.5057 250.156 17.6304 250.47 17.6304 250.869V252.037C17.6304 252.437 17.5057 252.751 17.2563 252.98C17.0104 253.209 16.6757 253.323 16.2522 253.323C15.8286 253.323 15.4922 253.209 15.2429 252.98C14.997 252.751 14.874 252.437 14.874 252.037ZM18.8476 253.247H18.4019V249.66H18.8476V251.248H19.4214L20.4615 249.66H20.8765V249.809L19.8108 251.423L20.9431 253.098V253.247H20.5025L19.4266 251.643H18.8476V253.247ZM22.6877 252.914C22.9781 252.914 23.2052 252.837 23.3692 252.683C23.5365 252.526 23.6202 252.318 23.6202 252.058V250.849C23.6202 250.589 23.5365 250.383 23.3692 250.229C23.2052 250.072 22.9781 249.993 22.6877 249.993C22.394 249.993 22.1652 250.072 22.0012 250.229C21.8373 250.383 21.7553 250.589 21.7553 250.849V252.058C21.7553 252.318 21.8373 252.526 22.0012 252.683C22.1652 252.837 22.394 252.914 22.6877 252.914ZM21.3096 252.037V250.869C21.3096 250.47 21.4325 250.156 21.6785 249.927C21.9278 249.698 22.2642 249.583 22.6877 249.583C23.1113 249.583 23.446 249.698 23.6919 249.927C23.9413 250.156 24.0659 250.47 24.0659 250.869V252.037C24.0659 252.437 23.9413 252.751 23.6919 252.98C23.446 253.209 23.1113 253.323 22.6877 253.323C22.2642 253.323 21.9278 253.209 21.6785 252.98C21.4325 252.751 21.3096 252.437 21.3096 252.037ZM24.443 253.247V252.837C24.7162 252.837 24.9007 252.739 24.9963 252.545C25.0953 252.347 25.1449 251.967 25.1449 251.407V249.66H27.3274V253.247H26.8817V250.055H25.565V251.453C25.565 252.119 25.4762 252.584 25.2986 252.847C25.1244 253.113 24.8392 253.247 24.443 253.247ZM29.4786 252.914C29.7689 252.914 29.996 252.837 30.16 252.683C30.3273 252.526 30.411 252.318 30.411 252.058V250.849C30.411 250.589 30.3273 250.383 30.16 250.229C29.996 250.072 29.7689 249.993 29.4786 249.993C29.1848 249.993 28.956 250.072 28.792 250.229C28.6281 250.383 28.5461 250.589 28.5461 250.849V252.058C28.5461 252.318 28.6281 252.526 28.792 252.683C28.956 252.837 29.1848 252.914 29.4786 252.914ZM28.1004 252.037V250.869C28.1004 250.47 28.2233 250.156 28.4693 249.927C28.7186 249.698 29.055 249.583 29.4786 249.583C29.9021 249.583 30.2368 249.698 30.4827 249.927C30.7321 250.156 30.8567 250.47 30.8567 250.869V252.037C30.8567 252.437 30.7321 252.751 30.4827 252.98C30.2368 253.209 29.9021 253.323 29.4786 253.323C29.055 253.323 28.7186 253.209 28.4693 252.98C28.2233 252.751 28.1004 252.437 28.1004 252.037ZM33.8058 253.323C33.4438 253.323 33.1551 253.221 32.94 253.016C32.7282 252.811 32.6189 252.528 32.6121 252.166H33.0219C33.0288 252.408 33.1022 252.599 33.2422 252.739C33.3857 252.879 33.5787 252.949 33.8212 252.949C34.0603 252.949 34.2447 252.885 34.3745 252.755C34.5043 252.622 34.5692 252.441 34.5692 252.212C34.5692 252.014 34.506 251.856 34.3796 251.74C34.2532 251.624 34.0808 251.566 33.8622 251.566H33.5804V251.192H33.8365C34.0346 251.192 34.1918 251.139 34.3079 251.033C34.424 250.927 34.4821 250.779 34.4821 250.588C34.4821 250.407 34.4223 250.256 34.3028 250.137C34.1866 250.017 34.0244 249.957 33.816 249.957C33.5906 249.957 33.4147 250.027 33.2883 250.167C33.1654 250.304 33.1022 250.497 33.0988 250.746H32.6889C32.6923 250.381 32.7948 250.096 32.9963 249.891C33.1978 249.686 33.4711 249.583 33.816 249.583C34.1508 249.583 34.4121 249.676 34.5999 249.86C34.7878 250.038 34.8817 250.268 34.8817 250.552C34.8817 250.938 34.7109 251.207 34.3694 251.361C34.547 251.416 34.6921 251.523 34.8048 251.684C34.921 251.841 34.979 252.026 34.979 252.237C34.979 252.575 34.8749 252.842 34.6665 253.037C34.4616 253.228 34.1747 253.323 33.8058 253.323ZM37.5313 252.16V250.752C37.5313 250.512 37.463 250.321 37.3264 250.178C37.1898 250.031 37.0036 249.957 36.768 249.957C36.5323 249.957 36.3461 250.031 36.2095 250.178C36.0763 250.321 36.0097 250.512 36.0097 250.752V252.16C36.0097 252.4 36.0763 252.591 36.2095 252.734C36.3461 252.878 36.5323 252.949 36.768 252.949C37.0036 252.949 37.1898 252.878 37.3264 252.734C37.463 252.591 37.5313 252.4 37.5313 252.16ZM36.768 253.323C36.4093 253.323 36.1241 253.218 35.9124 253.006C35.704 252.794 35.5998 252.504 35.5998 252.135V250.772C35.5998 250.403 35.704 250.113 35.9124 249.901C36.1241 249.689 36.4093 249.583 36.768 249.583C37.13 249.583 37.4152 249.689 37.6236 249.901C37.8353 250.113 37.9412 250.403 37.9412 250.772V252.135C37.9412 252.504 37.8353 252.794 37.6236 253.006C37.4152 253.218 37.13 253.323 36.768 253.323ZM40.5415 252.16V250.752C40.5415 250.512 40.4732 250.321 40.3366 250.178C40.1999 250.031 40.0138 249.957 39.7781 249.957C39.5424 249.957 39.3563 250.031 39.2197 250.178C39.0865 250.321 39.0199 250.512 39.0199 250.752V252.16C39.0199 252.4 39.0865 252.591 39.2197 252.734C39.3563 252.878 39.5424 252.949 39.7781 252.949C40.0138 252.949 40.1999 252.878 40.3366 252.734C40.4732 252.591 40.5415 252.4 40.5415 252.16ZM39.7781 253.323C39.4195 253.323 39.1343 253.218 38.9225 253.006C38.7142 252.794 38.61 252.504 38.61 252.135V250.772C38.61 250.403 38.7142 250.113 38.9225 249.901C39.1343 249.689 39.4195 249.583 39.7781 249.583C40.1402 249.583 40.4254 249.689 40.6337 249.901C40.8455 250.113 40.9514 250.403 40.9514 250.772V252.135C40.9514 252.504 40.8455 252.794 40.6337 253.006C40.4254 253.218 40.1402 253.323 39.7781 253.323ZM43.5516 252.16V250.752C43.5516 250.512 43.4833 250.321 43.3467 250.178C43.2101 250.031 43.0239 249.957 42.7883 249.957C42.5526 249.957 42.3664 250.031 42.2298 250.178C42.0966 250.321 42.03 250.512 42.03 250.752V252.16C42.03 252.4 42.0966 252.591 42.2298 252.734C42.3664 252.878 42.5526 252.949 42.7883 252.949C43.0239 252.949 43.2101 252.878 43.3467 252.734C43.4833 252.591 43.5516 252.4 43.5516 252.16ZM42.7883 253.323C42.4296 253.323 42.1444 253.218 41.9327 253.006C41.7243 252.794 41.6201 252.504 41.6201 252.135V250.772C41.6201 250.403 41.7243 250.113 41.9327 249.901C42.1444 249.689 42.4296 249.583 42.7883 249.583C43.1503 249.583 43.4355 249.689 43.6439 249.901C43.8556 250.113 43.9615 250.403 43.9615 250.772V252.135C43.9615 252.504 43.8556 252.794 43.6439 253.006C43.4355 253.218 43.1503 253.323 42.7883 253.323Z" fill="black"/>
<rect x="14.5" y="270" width="21" height="48" fill="black"/>
<path d="M16.8106 327.121C16.2202 327.121 15.7533 326.952 15.4098 326.614C15.0662 326.275 14.8918 325.808 14.8864 325.213H15.7398C15.7506 325.545 15.8526 325.814 16.0458 326.018C16.239 326.216 16.502 326.316 16.8348 326.316C17.1675 326.316 17.4171 326.23 17.5835 326.058C17.7553 325.881 17.8411 325.637 17.8411 325.325C17.8411 325.057 17.7526 324.85 17.5755 324.705C17.4037 324.555 17.1622 324.48 16.8509 324.48H16.4564V323.675H16.7945C17.3957 323.675 17.6962 323.409 17.6962 322.878C17.6962 322.636 17.6211 322.438 17.4708 322.282C17.3259 322.127 17.1085 322.049 16.8187 322.049C16.5074 322.049 16.2685 322.145 16.1021 322.339C15.9411 322.532 15.8579 322.795 15.8526 323.128H15.0072C15.0126 322.532 15.1736 322.07 15.4903 321.743C15.8069 321.41 16.2471 321.244 16.8106 321.244C17.3581 321.244 17.7875 321.391 18.0988 321.686C18.4101 321.976 18.5657 322.344 18.5657 322.789C18.5657 323.342 18.3242 323.758 17.8411 324.037C18.0988 324.134 18.3108 324.306 18.4772 324.553C18.6435 324.799 18.7267 325.081 18.7267 325.398C18.7267 325.935 18.5577 326.356 18.2195 326.662C17.8814 326.968 17.4118 327.121 16.8106 327.121ZM22.5506 325.221V323.144C22.5506 322.816 22.4621 322.553 22.2849 322.355C22.1078 322.151 21.8609 322.049 21.5443 322.049C21.2276 322.049 20.9807 322.151 20.8036 322.355C20.6264 322.553 20.5379 322.816 20.5379 323.144V325.221C20.5379 325.548 20.6264 325.814 20.8036 326.018C20.9807 326.216 21.2276 326.316 21.5443 326.316C21.8609 326.316 22.1078 326.216 22.2849 326.018C22.4621 325.814 22.5506 325.548 22.5506 325.221ZM19.6523 325.172V323.192C19.6523 322.58 19.8214 322.102 20.1595 321.759C20.4976 321.415 20.9592 321.244 21.5443 321.244C22.1293 321.244 22.5909 321.415 22.929 321.759C23.2672 322.102 23.4362 322.58 23.4362 323.192V325.172C23.4362 325.784 23.2672 326.262 22.929 326.606C22.5909 326.949 22.1293 327.121 21.5443 327.121C20.9592 327.121 20.4976 326.949 20.1595 326.606C19.8214 326.262 19.6523 325.784 19.6523 325.172ZM27.3438 325.221V323.144C27.3438 322.816 27.2552 322.553 27.0781 322.355C26.901 322.151 26.6541 322.049 26.3374 322.049C26.0207 322.049 25.7738 322.151 25.5967 322.355C25.4196 322.553 25.331 322.816 25.331 323.144V325.221C25.331 325.548 25.4196 325.814 25.5967 326.018C25.7738 326.216 26.0207 326.316 26.3374 326.316C26.6541 326.316 26.901 326.216 27.0781 326.018C27.2552 325.814 27.3438 325.548 27.3438 325.221ZM24.4454 325.172V323.192C24.4454 322.58 24.6145 322.102 24.9526 321.759C25.2908 321.415 25.7524 321.244 26.3374 321.244C26.9224 321.244 27.384 321.415 27.7222 321.759C28.0603 322.102 28.2294 322.58 28.2294 323.192V325.172C28.2294 325.784 28.0603 326.262 27.7222 326.606C27.384 326.949 26.9224 327.121 26.3374 327.121C25.7524 327.121 25.2908 326.949 24.9526 326.606C24.6145 326.262 24.4454 325.784 24.4454 325.172ZM32.1369 325.221V323.144C32.1369 322.816 32.0483 322.553 31.8712 322.355C31.6941 322.151 31.4472 322.049 31.1305 322.049C30.8139 322.049 30.567 322.151 30.3898 322.355C30.2127 322.553 30.1242 322.816 30.1242 323.144V325.221C30.1242 325.548 30.2127 325.814 30.3898 326.018C30.567 326.216 30.8139 326.316 31.1305 326.316C31.4472 326.316 31.6941 326.216 31.8712 326.018C32.0483 325.814 32.1369 325.548 32.1369 325.221ZM29.2386 325.172V323.192C29.2386 322.58 29.4076 322.102 29.7458 321.759C30.0839 321.415 30.5455 321.244 31.1305 321.244C31.7156 321.244 32.1771 321.415 32.5153 321.759C32.8534 322.102 33.0225 322.58 33.0225 323.192V325.172C33.0225 325.784 32.8534 326.262 32.5153 326.606C32.1771 326.949 31.7156 327.121 31.1305 327.121C30.5455 327.121 30.0839 326.949 29.7458 326.606C29.4076 326.262 29.2386 325.784 29.2386 325.172Z" fill="#120909"/>
<line x1="89.5" y1="239.634" x2="142.5" y2="239.634" stroke="black" stroke-opacity="0.5" stroke-width="0.731903"/>
<path d="M90.4222 246.66H89.9765V243.073H90.4222V244.662H90.996L92.036 243.073H92.451V243.222L91.3854 244.836L92.5176 246.511V246.66H92.077L91.0011 245.056H90.4222V246.66ZM93.3799 246.66H92.9342V243.073H94.4353C94.7427 243.073 94.9835 243.171 95.1577 243.365C95.3353 243.56 95.4241 243.823 95.4241 244.154C95.4241 244.486 95.3353 244.749 95.1577 244.943C94.9835 245.135 94.7427 245.23 94.4353 245.23H93.3799V246.66ZM93.3799 243.468V244.836H94.3585C94.5463 244.836 94.6949 244.776 94.8042 244.656C94.9135 244.533 94.9681 244.366 94.9681 244.154C94.9681 243.939 94.9135 243.772 94.8042 243.652C94.6949 243.529 94.5463 243.468 94.3585 243.468H93.3799ZM95.8131 246.66H95.4032V246.511L96.7404 243.073H97.1861L98.5284 246.511V246.66H98.0878L97.7292 245.707H96.1819L95.8131 246.66ZM96.9556 243.668L96.3151 245.328H97.5908L96.9556 243.668ZM100.215 246.737C99.7815 246.737 99.4434 246.624 99.2009 246.398C98.9618 246.17 98.8422 245.852 98.8422 245.445V244.288C98.8422 243.881 98.9618 243.565 99.2009 243.34C99.4434 243.111 99.7815 242.996 100.215 242.996C100.588 242.996 100.898 243.101 101.148 243.309C101.397 243.517 101.522 243.82 101.522 244.216V244.267H101.076V244.216C101.076 243.953 100.989 243.753 100.815 243.616C100.644 243.476 100.442 243.406 100.21 243.406C99.913 243.406 99.6842 243.482 99.5236 243.632C99.3665 243.779 99.2879 243.987 99.2879 244.257V245.476C99.2879 245.746 99.3665 245.956 99.5236 246.106C99.6842 246.253 99.913 246.327 100.21 246.327C100.442 246.327 100.644 246.257 100.815 246.117C100.989 245.98 101.076 245.78 101.076 245.517V245.466H101.522V245.517C101.522 245.913 101.397 246.216 101.148 246.424C100.898 246.632 100.588 246.737 100.215 246.737ZM102.588 246.66H102.143V243.073H102.588V244.662H104.335V243.073H104.781V246.66H104.335V245.056H102.588V246.66ZM107.041 246.66H105.556V243.073H106.001V244.503H107.041C107.356 244.503 107.601 244.6 107.779 244.795C107.957 244.986 108.046 245.247 108.046 245.579C108.046 245.917 107.957 246.181 107.779 246.373C107.601 246.564 107.356 246.66 107.041 246.66ZM106.001 244.897V246.265H106.99C107.175 246.265 107.32 246.205 107.426 246.086C107.535 245.963 107.59 245.794 107.59 245.579C107.59 245.367 107.535 245.201 107.426 245.082C107.32 244.959 107.175 244.897 106.99 244.897H106.001ZM109.08 246.66H108.635V243.073H109.08V246.66ZM109.972 246.66H109.547V246.511L110.71 244.82L109.608 243.222V243.073H110.059L110.986 244.472L111.944 243.073H112.365V243.222L111.258 244.82L112.431 246.511V246.66H111.98L110.976 245.174L109.972 246.66ZM114.439 246.66H113.993V243.073H116.601V246.66H116.155V243.468H114.439V246.66ZM118.652 246.327C118.942 246.327 119.17 246.25 119.334 246.096C119.501 245.939 119.585 245.731 119.585 245.471V244.262C119.585 244.002 119.501 243.796 119.334 243.642C119.17 243.485 118.942 243.406 118.652 243.406C118.358 243.406 118.13 243.485 117.966 243.642C117.802 243.796 117.72 244.002 117.72 244.262V245.471C117.72 245.731 117.802 245.939 117.966 246.096C118.13 246.25 118.358 246.327 118.652 246.327ZM117.274 245.451V244.282C117.274 243.883 117.397 243.569 117.643 243.34C117.892 243.111 118.229 242.996 118.652 242.996C119.076 242.996 119.41 243.111 119.656 243.34C119.906 243.569 120.03 243.883 120.03 244.282V245.451C120.03 245.85 119.906 246.164 119.656 246.393C119.41 246.622 119.076 246.737 118.652 246.737C118.229 246.737 117.892 246.622 117.643 246.393C117.397 246.164 117.274 245.85 117.274 245.451ZM120.909 246.66H120.484V246.511L121.289 245.21C121.053 245.152 120.872 245.034 120.746 244.856C120.619 244.675 120.556 244.445 120.556 244.165C120.556 243.823 120.645 243.557 120.822 243.365C121.003 243.171 121.258 243.073 121.586 243.073H123.046V246.66H122.6V245.261H121.75L120.909 246.66ZM121.673 244.867H122.6V243.468H121.673C121.461 243.468 121.297 243.528 121.181 243.647C121.068 243.767 121.012 243.941 121.012 244.17C121.012 244.634 121.232 244.867 121.673 244.867ZM125.088 246.737C124.654 246.737 124.316 246.624 124.073 246.398C123.834 246.17 123.715 245.852 123.715 245.445V244.288C123.715 243.881 123.834 243.565 124.073 243.34C124.316 243.111 124.654 242.996 125.088 242.996C125.46 242.996 125.771 243.101 126.02 243.309C126.27 243.517 126.394 243.82 126.394 244.216V244.267H125.949V244.216C125.949 243.953 125.861 243.753 125.687 243.616C125.516 243.476 125.315 243.406 125.083 243.406C124.786 243.406 124.557 243.482 124.396 243.632C124.239 243.779 124.16 243.987 124.16 244.257V245.476C124.16 245.746 124.239 245.956 124.396 246.106C124.557 246.253 124.786 246.327 125.083 246.327C125.315 246.327 125.516 246.257 125.687 246.117C125.861 245.98 125.949 245.78 125.949 245.517V245.466H126.394V245.517C126.394 245.913 126.27 246.216 126.02 246.424C125.771 246.632 125.46 246.737 125.088 246.737ZM128.291 246.327C128.581 246.327 128.808 246.25 128.972 246.096C129.14 245.939 129.223 245.731 129.223 245.471V244.262C129.223 244.002 129.14 243.796 128.972 243.642C128.808 243.485 128.581 243.406 128.291 243.406C127.997 243.406 127.768 243.485 127.604 243.642C127.44 243.796 127.358 244.002 127.358 244.262V245.471C127.358 245.731 127.44 245.939 127.604 246.096C127.768 246.25 127.997 246.327 128.291 246.327ZM126.913 245.451V244.282C126.913 243.883 127.036 243.569 127.282 243.34C127.531 243.111 127.867 242.996 128.291 242.996C128.714 242.996 129.049 243.111 129.295 243.34C129.544 243.569 129.669 243.883 129.669 244.282V245.451C129.669 245.85 129.544 246.164 129.295 246.393C129.049 246.622 128.714 246.737 128.291 246.737C127.867 246.737 127.531 246.622 127.282 246.393C127.036 246.164 126.913 245.85 126.913 245.451ZM131.972 246.66H130.338V243.073H131.844C132.152 243.073 132.389 243.155 132.556 243.319C132.724 243.48 132.807 243.712 132.807 244.016C132.807 244.402 132.652 244.662 132.341 244.795C132.744 244.911 132.946 245.206 132.946 245.681C132.946 245.995 132.86 246.238 132.69 246.409C132.519 246.576 132.28 246.66 131.972 246.66ZM130.784 245.036V246.265H131.896C132.09 246.265 132.239 246.212 132.341 246.106C132.447 246 132.5 245.85 132.5 245.655C132.5 245.457 132.447 245.305 132.341 245.2C132.239 245.09 132.09 245.036 131.896 245.036H130.784ZM130.784 243.468V244.656H131.778C131.966 244.656 132.109 244.605 132.208 244.503C132.311 244.397 132.362 244.25 132.362 244.062C132.362 243.871 132.311 243.724 132.208 243.622C132.109 243.519 131.962 243.468 131.767 243.468H130.784Z" fill="black" fill-opacity="0.5"/>
<path d="M92.0617 252.063V250.844C92.0617 250.635 91.9916 250.468 91.8516 250.342C91.7116 250.212 91.5169 250.147 91.2675 250.147C91.0182 250.147 90.8235 250.212 90.6835 250.342C90.5435 250.468 90.4734 250.635 90.4734 250.844V252.063C90.4734 252.271 90.5435 252.441 90.6835 252.57C90.8235 252.697 91.0182 252.76 91.2675 252.76C91.5169 252.76 91.7116 252.697 91.8516 252.57C91.9916 252.441 92.0617 252.271 92.0617 252.063ZM89.8586 252.032V250.874C89.8586 250.475 89.985 250.161 90.2378 249.932C90.4905 249.7 90.8338 249.583 91.2675 249.583C91.7013 249.583 92.0446 249.7 92.2973 249.932C92.5501 250.161 92.6765 250.475 92.6765 250.874V252.032C92.6765 252.432 92.5501 252.748 92.2973 252.98C92.0446 253.209 91.7013 253.323 91.2675 253.323C90.8338 253.323 90.4905 253.209 90.2378 252.98C89.985 252.748 89.8586 252.432 89.8586 252.032ZM94.0363 253.247H93.4215V249.66H94.0363V251.182H94.4923L95.4299 249.66H95.9986V249.865L95.0303 251.418L96.0703 253.042V253.247H95.4657L94.4923 251.72H94.0363V253.247ZM98.6073 252.063V250.844C98.6073 250.635 98.5373 250.468 98.3972 250.342C98.2572 250.212 98.0625 250.147 97.8132 250.147C97.5639 250.147 97.3692 250.212 97.2291 250.342C97.0891 250.468 97.0191 250.635 97.0191 250.844V252.063C97.0191 252.271 97.0891 252.441 97.2291 252.57C97.3692 252.697 97.5639 252.76 97.8132 252.76C98.0625 252.76 98.2572 252.697 98.3972 252.57C98.5373 252.441 98.6073 252.271 98.6073 252.063ZM96.4043 252.032V250.874C96.4043 250.475 96.5307 250.161 96.7834 249.932C97.0362 249.7 97.3794 249.583 97.8132 249.583C98.247 249.583 98.5902 249.7 98.843 249.932C99.0957 250.161 99.2221 250.475 99.2221 250.874V252.032C99.2221 252.432 99.0957 252.748 98.843 252.98C98.5902 253.209 98.247 253.323 97.8132 253.323C97.3794 253.323 97.0362 253.209 96.7834 252.98C96.5307 252.748 96.4043 252.432 96.4043 252.032ZM99.6752 253.247H99.5573V252.683H99.6547C99.8733 252.683 100.024 252.591 100.106 252.406C100.187 252.215 100.228 251.879 100.228 251.397V249.66H102.467V253.247H101.853V250.198H100.792V251.576C100.792 252.69 100.42 253.247 99.6752 253.247ZM105.413 252.063V250.844C105.413 250.635 105.343 250.468 105.203 250.342C105.063 250.212 104.868 250.147 104.619 250.147C104.37 250.147 104.175 250.212 104.035 250.342C103.895 250.468 103.825 250.635 103.825 250.844V252.063C103.825 252.271 103.895 252.441 104.035 252.57C104.175 252.697 104.37 252.76 104.619 252.76C104.868 252.76 105.063 252.697 105.203 252.57C105.343 252.441 105.413 252.271 105.413 252.063ZM103.21 252.032V250.874C103.21 250.475 103.336 250.161 103.589 249.932C103.842 249.7 104.185 249.583 104.619 249.583C105.053 249.583 105.396 249.7 105.649 249.932C105.902 250.161 106.028 250.475 106.028 250.874V252.032C106.028 252.432 105.902 252.748 105.649 252.98C105.396 253.209 105.053 253.323 104.619 253.323C104.185 253.323 103.842 253.209 103.589 252.98C103.336 252.748 103.21 252.432 103.21 252.032ZM108.608 253.247H108.045V250.424H107.671V250.126L108.383 249.66H108.608V253.247ZM111.198 252.114V250.793C111.198 250.584 111.142 250.417 111.029 250.29C110.916 250.161 110.759 250.096 110.558 250.096C110.356 250.096 110.199 250.161 110.086 250.29C109.974 250.417 109.917 250.584 109.917 250.793V252.114C109.917 252.323 109.974 252.492 110.086 252.622C110.199 252.748 110.356 252.811 110.558 252.811C110.759 252.811 110.916 252.748 111.029 252.622C111.142 252.492 111.198 252.323 111.198 252.114ZM109.354 252.084V250.823C109.354 250.434 109.461 250.13 109.676 249.911C109.892 249.693 110.185 249.583 110.558 249.583C110.93 249.583 111.224 249.693 111.439 249.911C111.654 250.13 111.762 250.434 111.762 250.823V252.084C111.762 252.473 111.654 252.777 111.439 252.996C111.224 253.214 110.93 253.323 110.558 253.323C110.185 253.323 109.892 253.214 109.676 252.996C109.461 252.777 109.354 252.473 109.354 252.084ZM114.248 252.114V250.793C114.248 250.584 114.192 250.417 114.079 250.29C113.966 250.161 113.809 250.096 113.608 250.096C113.406 250.096 113.249 250.161 113.136 250.29C113.024 250.417 112.967 250.584 112.967 250.793V252.114C112.967 252.323 113.024 252.492 113.136 252.622C113.249 252.748 113.406 252.811 113.608 252.811C113.809 252.811 113.966 252.748 114.079 252.622C114.192 252.492 114.248 252.323 114.248 252.114ZM112.404 252.084V250.823C112.404 250.434 112.511 250.13 112.727 249.911C112.942 249.693 113.236 249.583 113.608 249.583C113.98 249.583 114.274 249.693 114.489 249.911C114.704 250.13 114.812 250.434 114.812 250.823V252.084C114.812 252.473 114.704 252.777 114.489 252.996C114.274 253.214 113.98 253.323 113.608 253.323C113.236 253.323 112.942 253.214 112.727 252.996C112.511 252.777 112.404 252.473 112.404 252.084ZM117.298 252.114V250.793C117.298 250.584 117.242 250.417 117.129 250.29C117.017 250.161 116.86 250.096 116.658 250.096C116.456 250.096 116.299 250.161 116.187 250.29C116.074 250.417 116.018 250.584 116.018 250.793V252.114C116.018 252.323 116.074 252.492 116.187 252.622C116.299 252.748 116.456 252.811 116.658 252.811C116.86 252.811 117.017 252.748 117.129 252.622C117.242 252.492 117.298 252.323 117.298 252.114ZM115.454 252.084V250.823C115.454 250.434 115.562 250.13 115.777 249.911C115.992 249.693 116.286 249.583 116.658 249.583C117.03 249.583 117.324 249.693 117.539 249.911C117.754 250.13 117.862 250.434 117.862 250.823V252.084C117.862 252.473 117.754 252.777 117.539 252.996C117.324 253.214 117.03 253.323 116.658 253.323C116.286 253.323 115.992 253.214 115.777 252.996C115.562 252.777 115.454 252.473 115.454 252.084Z" fill="black"/>
<rect x="89.5" y="311" width="21" height="7" fill="black"/>
<path d="M91.2954 327H90.4098V322.564H89.822V322.097L90.9411 321.364H91.2954V327ZM95.3649 325.221V323.144C95.3649 322.816 95.2764 322.553 95.0992 322.355C94.9221 322.151 94.6752 322.049 94.3586 322.049C94.0419 322.049 93.795 322.151 93.6179 322.355C93.4407 322.553 93.3522 322.816 93.3522 323.144V325.221C93.3522 325.548 93.4407 325.814 93.6179 326.018C93.795 326.216 94.0419 326.316 94.3586 326.316C94.6752 326.316 94.9221 326.216 95.0992 326.018C95.2764 325.814 95.3649 325.548 95.3649 325.221ZM92.4666 325.172V323.192C92.4666 322.58 92.6357 322.102 92.9738 321.759C93.3119 321.415 93.7735 321.244 94.3586 321.244C94.9436 321.244 95.4052 321.415 95.7433 321.759C96.0815 322.102 96.2505 322.58 96.2505 323.192V325.172C96.2505 325.784 96.0815 326.262 95.7433 326.606C95.4052 326.949 94.9436 327.121 94.3586 327.121C93.7735 327.121 93.3119 326.949 92.9738 326.606C92.6357 326.262 92.4666 325.784 92.4666 325.172ZM100.158 325.221V323.144C100.158 322.816 100.069 322.553 99.8924 322.355C99.7153 322.151 99.4684 322.049 99.1517 322.049C98.835 322.049 98.5881 322.151 98.411 322.355C98.2339 322.553 98.1453 322.816 98.1453 323.144V325.221C98.1453 325.548 98.2339 325.814 98.411 326.018C98.5881 326.216 98.835 326.316 99.1517 326.316C99.4684 326.316 99.7153 326.216 99.8924 326.018C100.069 325.814 100.158 325.548 100.158 325.221ZM97.2597 325.172V323.192C97.2597 322.58 97.4288 322.102 97.7669 321.759C98.1051 321.415 98.5667 321.244 99.1517 321.244C99.7367 321.244 100.198 321.415 100.536 321.759C100.875 322.102 101.044 322.58 101.044 323.192V325.172C101.044 325.784 100.875 326.262 100.536 326.606C100.198 326.949 99.7367 327.121 99.1517 327.121C98.5667 327.121 98.1051 326.949 97.7669 326.606C97.4288 326.262 97.2597 325.784 97.2597 325.172ZM104.951 325.221V323.144C104.951 322.816 104.863 322.553 104.686 322.355C104.508 322.151 104.261 322.049 103.945 322.049C103.628 322.049 103.381 322.151 103.204 322.355C103.027 322.553 102.938 322.816 102.938 323.144V325.221C102.938 325.548 103.027 325.814 103.204 326.018C103.381 326.216 103.628 326.316 103.945 326.316C104.261 326.316 104.508 326.216 104.686 326.018C104.863 325.814 104.951 325.548 104.951 325.221ZM102.053 325.172V323.192C102.053 322.58 102.222 322.102 102.56 321.759C102.898 321.415 103.36 321.244 103.945 321.244C104.53 321.244 104.991 321.415 105.33 321.759C105.668 322.102 105.837 322.58 105.837 323.192V325.172C105.837 325.784 105.668 326.262 105.33 326.606C104.991 326.949 104.53 327.121 103.945 327.121C103.36 327.121 102.898 326.949 102.56 326.606C102.222 326.262 102.053 325.784 102.053 325.172Z" fill="#120909"/>
<line x1="152.5" y1="239.634" x2="205.5" y2="239.634" stroke="black" stroke-opacity="0.5" stroke-width="0.731903"/>
<path d="M153.422 246.66H152.976V243.073H155.584V246.66H155.139V243.468H153.422V246.66ZM157.635 246.327C157.925 246.327 158.153 246.25 158.317 246.096C158.484 245.939 158.568 245.731 158.568 245.471V244.262C158.568 244.002 158.484 243.796 158.317 243.642C158.153 243.485 157.925 243.406 157.635 243.406C157.341 243.406 157.113 243.485 156.949 243.642C156.785 243.796 156.703 244.002 156.703 244.262V245.471C156.703 245.731 156.785 245.939 156.949 246.096C157.113 246.25 157.341 246.327 157.635 246.327ZM156.257 245.451V244.282C156.257 243.883 156.38 243.569 156.626 243.34C156.875 243.111 157.212 242.996 157.635 242.996C158.059 242.996 158.393 243.111 158.639 243.34C158.889 243.569 159.013 243.883 159.013 244.282V245.451C159.013 245.85 158.889 246.164 158.639 246.393C158.393 246.622 158.059 246.737 157.635 246.737C157.212 246.737 156.875 246.622 156.626 246.393C156.38 246.164 156.257 245.85 156.257 245.451ZM161.296 246.66H159.682V243.073H162.07V243.468H160.128V244.503H161.296C161.604 244.503 161.844 244.6 162.019 244.795C162.193 244.986 162.28 245.247 162.28 245.579C162.28 245.91 162.193 246.173 162.019 246.368C161.844 246.562 161.604 246.66 161.296 246.66ZM160.128 244.897V246.265H161.214C161.399 246.265 161.546 246.205 161.655 246.086C161.768 245.963 161.824 245.794 161.824 245.579C161.824 245.367 161.768 245.201 161.655 245.082C161.546 244.959 161.399 244.897 161.214 244.897H160.128ZM165.089 246.66H162.85V243.073H165.084V243.468H163.296V244.656H164.843V245.051H163.296V246.265H165.089V246.66ZM165.74 247.392H165.33V246.265H165.601C165.704 246.129 165.781 246.012 165.832 245.917C165.989 245.623 166.068 245.186 166.068 244.605V243.073H168.178V246.265H168.619V247.392H168.209V246.66H165.74V247.392ZM166.083 246.265H167.733V243.468H166.478V244.605C166.478 244.909 166.455 245.172 166.411 245.394C166.37 245.62 166.326 245.789 166.278 245.901C166.24 245.987 166.175 246.108 166.083 246.265ZM169.521 246.66H169.111V243.073H169.557V245.886L171.355 243.073H171.765V246.66H171.319V243.847L169.521 246.66ZM173.717 246.66H173.272V243.468H172.18V243.073H174.803V243.468H173.717V246.66ZM177.455 246.66H175.216V243.073H177.45V243.468H175.662V244.656H177.209V245.051H175.662V246.265H177.455V246.66ZM177.635 246.66V246.25C177.908 246.25 178.092 246.152 178.188 245.958C178.287 245.76 178.337 245.381 178.337 244.82V243.073H180.519V246.66H180.073V243.468H178.757V244.867C178.757 245.533 178.668 245.997 178.49 246.26C178.316 246.526 178.031 246.66 177.635 246.66ZM183.531 246.66H181.292V243.073H183.526V243.468H181.738V244.656H183.285V245.051H181.738V246.265H183.531V246.66ZM184.515 246.66H184.105V243.073H184.55V245.886L186.349 243.073H186.759V246.66H186.313V243.847L184.515 246.66ZM184.632 242.167V242.105H184.991V242.161C184.991 242.284 185.029 242.382 185.104 242.453C185.182 242.522 185.292 242.556 185.432 242.556C185.572 242.556 185.681 242.522 185.759 242.453C185.838 242.382 185.877 242.284 185.877 242.161V242.105H186.236V242.167C186.236 242.382 186.163 242.552 186.016 242.679C185.869 242.805 185.674 242.868 185.432 242.868C185.193 242.868 185 242.805 184.853 242.679C184.706 242.552 184.632 242.382 184.632 242.167ZM189.075 246.66H188.629V243.073H189.075V244.662H190.822V243.073H191.268V246.66H190.822V245.056H189.075V246.66ZM192.452 246.66H192.042V243.073H192.488V245.886L194.286 243.073H194.696V246.66H194.25V243.847L192.452 246.66ZM195.931 246.66V246.511L196.326 245.691L195.06 243.222V243.073H195.475L196.551 245.194L197.484 243.073H197.878V243.222L196.357 246.66H195.931ZM203.392 246.66H199.339V243.073H199.785V246.265H201.143V243.073H201.588V246.265H202.946V243.073H203.392V246.66ZM204.573 246.66H204.163V243.073H204.609V245.886L206.407 243.073H206.817V246.66H206.371V243.847L204.573 246.66Z" fill="black" fill-opacity="0.5"/>
<path d="M155.062 252.063V250.844C155.062 250.635 154.992 250.468 154.852 250.342C154.712 250.212 154.517 250.147 154.268 250.147C154.018 250.147 153.824 250.212 153.683 250.342C153.543 250.468 153.473 250.635 153.473 250.844V252.063C153.473 252.271 153.543 252.441 153.683 252.57C153.824 252.697 154.018 252.76 154.268 252.76C154.517 252.76 154.712 252.697 154.852 252.57C154.992 252.441 155.062 252.271 155.062 252.063ZM152.859 252.032V250.874C152.859 250.475 152.985 250.161 153.238 249.932C153.491 249.7 153.834 249.583 154.268 249.583C154.701 249.583 155.045 249.7 155.297 249.932C155.55 250.161 155.676 250.475 155.676 250.874V252.032C155.676 252.432 155.55 252.748 155.297 252.98C155.045 253.209 154.701 253.323 154.268 253.323C153.834 253.323 153.491 253.209 153.238 252.98C152.985 252.748 152.859 252.432 152.859 252.032ZM157.036 253.247H156.422V249.66H157.036V251.182H157.492L158.43 249.66H158.999V249.865L158.03 251.418L159.07 253.042V253.247H158.466L157.492 251.72H157.036V253.247ZM161.607 252.063V250.844C161.607 250.635 161.537 250.468 161.397 250.342C161.257 250.212 161.063 250.147 160.813 250.147C160.564 250.147 160.369 250.212 160.229 250.342C160.089 250.468 160.019 250.635 160.019 250.844V252.063C160.019 252.271 160.089 252.441 160.229 252.57C160.369 252.697 160.564 252.76 160.813 252.76C161.063 252.76 161.257 252.697 161.397 252.57C161.537 252.441 161.607 252.271 161.607 252.063ZM159.404 252.032V250.874C159.404 250.475 159.531 250.161 159.783 249.932C160.036 249.7 160.379 249.583 160.813 249.583C161.247 249.583 161.59 249.7 161.843 249.932C162.096 250.161 162.222 250.475 162.222 250.874V252.032C162.222 252.432 162.096 252.748 161.843 252.98C161.59 253.209 161.247 253.323 160.813 253.323C160.379 253.323 160.036 253.209 159.783 252.98C159.531 252.748 159.404 252.432 159.404 252.032ZM162.675 253.247H162.557V252.683H162.655C162.873 252.683 163.024 252.591 163.106 252.406C163.187 252.215 163.228 251.879 163.228 251.397V249.66H165.467V253.247H164.853V250.198H163.792V251.576C163.792 252.69 163.42 253.247 162.675 253.247ZM168.413 252.063V250.844C168.413 250.635 168.343 250.468 168.203 250.342C168.063 250.212 167.868 250.147 167.619 250.147C167.37 250.147 167.175 250.212 167.035 250.342C166.895 250.468 166.825 250.635 166.825 250.844V252.063C166.825 252.271 166.895 252.441 167.035 252.57C167.175 252.697 167.37 252.76 167.619 252.76C167.868 252.76 168.063 252.697 168.203 252.57C168.343 252.441 168.413 252.271 168.413 252.063ZM166.21 252.032V250.874C166.21 250.475 166.336 250.161 166.589 249.932C166.842 249.7 167.185 249.583 167.619 249.583C168.053 249.583 168.396 249.7 168.649 249.932C168.902 250.161 169.028 250.475 169.028 250.874V252.032C169.028 252.432 168.902 252.748 168.649 252.98C168.396 253.209 168.053 253.323 167.619 253.323C167.185 253.323 166.842 253.209 166.589 252.98C166.336 252.748 166.21 252.432 166.21 252.032ZM173.022 253.247H170.722V252.785L171.803 251.689C172.052 251.433 172.221 251.243 172.31 251.12C172.399 250.991 172.443 250.847 172.443 250.69C172.443 250.512 172.392 250.369 172.29 250.26C172.191 250.15 172.051 250.096 171.87 250.096C171.672 250.096 171.521 250.159 171.419 250.285C171.316 250.408 171.263 250.579 171.26 250.798H170.722C170.729 250.419 170.836 250.121 171.045 249.906C171.253 249.691 171.528 249.583 171.87 249.583C172.228 249.583 172.507 249.688 172.705 249.896C172.906 250.108 173.007 250.366 173.007 250.67C173.007 250.919 172.946 251.137 172.823 251.325C172.71 251.5 172.512 251.727 172.228 252.007L171.485 252.734H173.022V253.247ZM175.464 252.114V250.793C175.464 250.584 175.408 250.417 175.295 250.29C175.182 250.161 175.025 250.096 174.823 250.096C174.622 250.096 174.465 250.161 174.352 250.29C174.239 250.417 174.183 250.584 174.183 250.793V252.114C174.183 252.323 174.239 252.492 174.352 252.622C174.465 252.748 174.622 252.811 174.823 252.811C175.025 252.811 175.182 252.748 175.295 252.622C175.408 252.492 175.464 252.323 175.464 252.114ZM173.619 252.084V250.823C173.619 250.434 173.727 250.13 173.942 249.911C174.157 249.693 174.451 249.583 174.823 249.583C175.196 249.583 175.49 249.693 175.705 249.911C175.92 250.13 176.027 250.434 176.027 250.823V252.084C176.027 252.473 175.92 252.777 175.705 252.996C175.49 253.214 175.196 253.323 174.823 253.323C174.451 253.323 174.157 253.214 173.942 252.996C173.727 252.777 173.619 252.473 173.619 252.084ZM178.514 252.114V250.793C178.514 250.584 178.458 250.417 178.345 250.29C178.232 250.161 178.075 250.096 177.874 250.096C177.672 250.096 177.515 250.161 177.402 250.29C177.29 250.417 177.233 250.584 177.233 250.793V252.114C177.233 252.323 177.29 252.492 177.402 252.622C177.515 252.748 177.672 252.811 177.874 252.811C178.075 252.811 178.232 252.748 178.345 252.622C178.458 252.492 178.514 252.323 178.514 252.114ZM176.67 252.084V250.823C176.67 250.434 176.777 250.13 176.992 249.911C177.208 249.693 177.501 249.583 177.874 249.583C178.246 249.583 178.54 249.693 178.755 249.911C178.97 250.13 179.078 250.434 179.078 250.823V252.084C179.078 252.473 178.97 252.777 178.755 252.996C178.54 253.214 178.246 253.323 177.874 253.323C177.501 253.323 177.208 253.214 176.992 252.996C176.777 252.777 176.67 252.473 176.67 252.084ZM181.564 252.114V250.793C181.564 250.584 181.508 250.417 181.395 250.29C181.282 250.161 181.125 250.096 180.924 250.096C180.722 250.096 180.565 250.161 180.452 250.29C180.34 250.417 180.283 250.584 180.283 250.793V252.114C180.283 252.323 180.34 252.492 180.452 252.622C180.565 252.748 180.722 252.811 180.924 252.811C181.125 252.811 181.282 252.748 181.395 252.622C181.508 252.492 181.564 252.323 181.564 252.114ZM179.72 252.084V250.823C179.72 250.434 179.827 250.13 180.043 249.911C180.258 249.693 180.552 249.583 180.924 249.583C181.296 249.583 181.59 249.693 181.805 249.911C182.02 250.13 182.128 250.434 182.128 250.823V252.084C182.128 252.473 182.02 252.777 181.805 252.996C181.59 253.214 181.296 253.323 180.924 253.323C180.552 253.323 180.258 253.214 180.043 252.996C179.827 252.777 179.72 252.473 179.72 252.084Z" fill="black"/>
<rect x="152.5" y="305" width="21" height="13" fill="#494949"/>
<path d="M156.517 327H152.903V326.275L154.601 324.553C154.993 324.15 155.259 323.852 155.398 323.659C155.538 323.455 155.608 323.229 155.608 322.983C155.608 322.703 155.527 322.478 155.366 322.306C155.21 322.135 154.99 322.049 154.706 322.049C154.395 322.049 154.158 322.148 153.997 322.347C153.836 322.54 153.753 322.808 153.748 323.152H152.903C152.913 322.556 153.082 322.089 153.41 321.751C153.737 321.413 154.169 321.244 154.706 321.244C155.27 321.244 155.707 321.407 156.018 321.735C156.335 322.067 156.493 322.473 156.493 322.95C156.493 323.342 156.397 323.686 156.203 323.981C156.026 324.255 155.715 324.612 155.27 325.052L154.102 326.195H156.517V327ZM160.354 325.221V323.144C160.354 322.816 160.266 322.553 160.088 322.355C159.911 322.151 159.664 322.049 159.348 322.049C159.031 322.049 158.784 322.151 158.607 322.355C158.43 322.553 158.341 322.816 158.341 323.144V325.221C158.341 325.548 158.43 325.814 158.607 326.018C158.784 326.216 159.031 326.316 159.348 326.316C159.664 326.316 159.911 326.216 160.088 326.018C160.266 325.814 160.354 325.548 160.354 325.221ZM157.456 325.172V323.192C157.456 322.58 157.625 322.102 157.963 321.759C158.301 321.415 158.763 321.244 159.348 321.244C159.933 321.244 160.394 321.415 160.732 321.759C161.071 322.102 161.24 322.58 161.24 323.192V325.172C161.24 325.784 161.071 326.262 160.732 326.606C160.394 326.949 159.933 327.121 159.348 327.121C158.763 327.121 158.301 326.949 157.963 326.606C157.625 326.262 157.456 325.784 157.456 325.172ZM165.147 325.221V323.144C165.147 322.816 165.059 322.553 164.882 322.355C164.704 322.151 164.458 322.049 164.141 322.049C163.824 322.049 163.577 322.151 163.4 322.355C163.223 322.553 163.134 322.816 163.134 323.144V325.221C163.134 325.548 163.223 325.814 163.4 326.018C163.577 326.216 163.824 326.316 164.141 326.316C164.458 326.316 164.704 326.216 164.882 326.018C165.059 325.814 165.147 325.548 165.147 325.221ZM162.249 325.172V323.192C162.249 322.58 162.418 322.102 162.756 321.759C163.094 321.415 163.556 321.244 164.141 321.244C164.726 321.244 165.187 321.415 165.526 321.759C165.864 322.102 166.033 322.58 166.033 323.192V325.172C166.033 325.784 165.864 326.262 165.526 326.606C165.187 326.949 164.726 327.121 164.141 327.121C163.556 327.121 163.094 326.949 162.756 326.606C162.418 326.262 162.249 325.784 162.249 325.172ZM169.94 325.221V323.144C169.94 322.816 169.852 322.553 169.675 322.355C169.498 322.151 169.251 322.049 168.934 322.049C168.617 322.049 168.37 322.151 168.193 322.355C168.016 322.553 167.928 322.816 167.928 323.144V325.221C167.928 325.548 168.016 325.814 168.193 326.018C168.37 326.216 168.617 326.316 168.934 326.316C169.251 326.316 169.498 326.216 169.675 326.018C169.852 325.814 169.94 325.548 169.94 325.221ZM167.042 325.172V323.192C167.042 322.58 167.211 322.102 167.549 321.759C167.887 321.415 168.349 321.244 168.934 321.244C169.519 321.244 169.981 321.415 170.319 321.759C170.657 322.102 170.826 322.58 170.826 323.192V325.172C170.826 325.784 170.657 326.262 170.319 326.606C169.981 326.949 169.519 327.121 168.934 327.121C168.349 327.121 167.887 326.949 167.549 326.606C167.211 326.262 167.042 325.784 167.042 325.172Z" fill="#120909"/>
</svg>
