<svg width="1035" height="515" viewBox="0 0 1035 515" fill="none" xmlns="http://www.w3.org/2000/svg">
<path d="M704.067 77.3705L696.771 70.8681L734.701 28.3069L753.003 44.6171C757.137 48.3018 759.269 52.2747 759.399 56.5359C759.606 60.7927 757.867 64.9884 754.182 69.1229C751.617 72.0008 748.729 73.936 745.517 74.9283C742.382 75.9163 739.129 75.8534 735.757 74.7399L730.555 96.6132L728.388 99.0452L721.213 92.6512L727.034 68.4926L718.643 61.0149L704.067 77.3705ZM736.308 41.1935L724.17 54.8131L733.838 63.4288C738.337 67.4386 742.61 67.1736 746.656 62.6337C750.702 58.0938 750.475 53.819 745.976 49.8092L736.308 41.1935Z" fill="black"/>
<path d="M795.55 156.455L800.033 148.011L802.153 149.136L797.727 157.474C797.014 158.817 796.03 159.646 794.776 159.961C793.552 160.278 792.215 160.051 790.767 159.282C789.318 158.513 788.376 157.53 787.94 156.333C787.51 155.123 787.651 153.847 788.364 152.505L792.79 144.167L794.91 145.292L790.427 153.736C790.077 154.395 790.014 155.056 790.236 155.718C790.477 156.373 790.997 156.914 791.798 157.339C792.599 157.764 793.333 157.889 793.999 157.715C794.683 157.535 795.2 157.115 795.55 156.455Z" fill="black"/>
<path d="M825.049 262.687L823.053 264.02L815.275 252.38L817.27 251.047L820.57 255.985L822.05 254.996L821.793 248.024L823.639 246.791L824.083 247.456L824.308 254.594L831.206 257.61L831.65 258.275L829.688 259.586L823.217 256.742L821.737 257.731L825.049 262.687Z" fill="black"/>
<path d="M950.287 324.265L949.015 325.624L950.374 326.896L951.646 325.537L950.287 324.265ZM972.951 300.043L974.31 301.315L975.582 299.955L974.223 298.683L972.951 300.043ZM960.551 291.504L960.636 289.644L960.551 291.504ZM940.943 312.459L939.094 312.668L939.094 312.668L940.943 312.459ZM988.798 300.608L990.157 301.88L991.429 300.52L990.07 299.248L988.798 300.608ZM951.903 340.039L950.631 341.398L951.99 342.67L953.262 341.311L951.903 340.039ZM929.198 312.139L931.048 311.929L931.046 311.917L929.198 312.139ZM959.452 279.806L959.353 281.665L959.365 281.665L959.452 279.806ZM951.646 325.537L974.31 301.315L971.592 298.771L948.927 322.993L951.646 325.537ZM974.223 298.683L968.533 293.36L965.99 296.079L971.679 301.402L974.223 298.683ZM968.533 293.36C966.13 291.111 963.492 289.776 960.636 289.644L960.465 293.363C962.201 293.443 964.037 294.251 965.99 296.079L968.533 293.36ZM960.636 289.644C957.82 289.515 955.381 290.465 953.481 292.496L956.2 295.039C957.322 293.84 958.689 293.282 960.465 293.363L960.636 289.644ZM953.481 292.496L941.464 305.339L944.182 307.883L956.2 295.039L953.481 292.496ZM941.464 305.339C939.564 307.369 938.777 309.867 939.094 312.668L942.793 312.25C942.594 310.483 943.06 309.082 944.182 307.883L941.464 305.339ZM939.094 312.668C939.414 315.509 940.922 318.052 943.326 320.301L945.869 317.582C943.916 315.755 942.988 313.976 942.793 312.25L939.094 312.668ZM943.326 320.301L949.015 325.624L951.559 322.906L945.869 317.582L943.326 320.301ZM973.105 288.474L987.526 301.967L990.07 299.248L975.649 285.755L973.105 288.474ZM987.438 299.336L950.543 338.767L953.262 341.311L990.157 301.88L987.438 299.336ZM953.174 338.68L938.754 325.187L936.21 327.905L950.631 341.398L953.174 338.68ZM938.754 325.187C934.004 320.742 931.548 316.32 931.048 311.929L927.349 312.35C927.979 317.891 931.046 323.073 936.21 327.905L938.754 325.187ZM931.046 311.917C930.521 307.554 931.964 303.441 935.662 299.488L932.943 296.944C928.63 301.554 926.67 306.723 927.35 312.362L931.046 311.917ZM935.662 299.488L947.258 287.095L944.539 284.551L932.943 296.944L935.662 299.488ZM947.258 287.095C950.956 283.142 954.964 281.429 959.353 281.665L959.552 277.947C953.88 277.643 948.852 279.942 944.539 284.551L947.258 287.095ZM959.365 281.665C963.78 281.872 968.355 284.029 973.105 288.474L975.649 285.755C970.485 280.923 965.11 278.208 959.54 277.946L959.365 281.665Z" fill="black"/>
<path d="M784.266 198.746L784.514 197.778L783.545 197.53L783.297 198.498L784.266 198.746ZM786.591 199.341L787.56 199.589L787.808 198.62L786.839 198.373L786.591 199.341ZM783.121 212.904L782.873 213.873L783.842 214.121L784.089 213.152L783.121 212.904ZM774.305 210.648L773.336 210.401L773.088 211.369L774.057 211.617L774.305 210.648ZM774.825 208.614L775.073 207.645L774.104 207.397L773.857 208.366L774.825 208.614ZM781.316 210.275L781.068 211.244L782.037 211.492L782.285 210.523L781.316 210.275ZM782.313 206.38L783.282 206.628L783.529 205.659L782.561 205.412L782.313 206.38ZM776.752 204.957L775.783 204.71L775.535 205.678L776.504 205.926L776.752 204.957ZM777.248 203.02L777.496 202.051L776.527 201.803L776.279 202.772L777.248 203.02ZM782.809 204.443L782.561 205.412L783.529 205.659L783.777 204.691L782.809 204.443ZM784.018 199.715L786.343 200.31L786.839 198.373L784.514 197.778L784.018 199.715ZM785.622 199.093L782.152 212.656L784.089 213.152L787.56 199.589L785.622 199.093ZM783.369 211.936L774.553 209.68L774.057 211.617L782.873 213.873L783.369 211.936ZM775.274 210.896L775.794 208.862L773.857 208.366L773.336 210.401L775.274 210.896ZM774.577 209.583L781.068 211.244L781.564 209.306L775.073 207.645L774.577 209.583ZM782.285 210.523L783.282 206.628L781.344 206.132L780.347 210.027L782.285 210.523ZM782.561 205.412L777 203.989L776.504 205.926L782.065 207.349L782.561 205.412ZM777.721 205.205L778.217 203.268L776.279 202.772L775.783 204.71L777.721 205.205ZM777 203.989L782.561 205.412L783.056 203.474L777.496 202.051L777 203.989ZM783.777 204.691L785.235 198.994L783.297 198.498L781.84 204.195L783.777 204.691Z" fill="black"/>
<path d="M484.992 141.259L483.62 143.228L472.132 135.228L473.503 133.258L478.378 136.653L481.692 131.893L476.818 128.499L478.189 126.529L489.678 134.53L488.307 136.499L483.416 133.093L480.101 137.853L484.992 141.259Z" fill="black"/>
<path d="M475.227 300.92L474.406 300.349L473.834 301.169L474.655 301.741L475.227 300.92ZM483.269 306.521L482.697 307.341L483.518 307.913L484.089 307.092L483.269 306.521ZM485.439 302.11L484.445 302.223L484.447 302.235L485.439 302.11ZM478.611 297.355L478.838 298.329L478.849 298.326L478.611 297.355ZM483.62 309.69L483.049 310.511L483.87 311.082L484.441 310.262L483.62 309.69ZM472.132 301.69L471.311 301.118L470.74 301.939L471.56 302.51L472.132 301.69ZM478.337 295.019L478.577 295.99L478.584 295.988L478.337 295.019ZM487.725 301.557L486.73 301.661L486.731 301.668L487.725 301.557ZM474.655 301.741L482.697 307.341L483.84 305.7L475.798 300.1L474.655 301.741ZM484.089 307.092L485.575 304.958L483.934 303.816L482.448 305.949L484.089 307.092ZM485.575 304.958C486.221 304.031 486.563 303.027 486.431 301.984L484.447 302.235C484.5 302.653 484.385 303.168 483.934 303.816L485.575 304.958ZM486.432 301.996C486.312 300.947 485.771 300.099 484.898 299.491L483.755 301.132C484.195 301.439 484.396 301.789 484.445 302.223L486.432 301.996ZM484.898 299.491L481.255 296.954L480.112 298.595L483.755 301.132L484.898 299.491ZM481.255 296.954C480.382 296.346 479.399 296.132 478.373 296.384L478.849 298.326C479.273 298.222 479.672 298.288 480.112 298.595L481.255 296.954ZM478.385 296.381C477.361 296.619 476.538 297.287 475.892 298.215L477.533 299.358C477.984 298.71 478.427 298.424 478.838 298.329L478.385 296.381ZM475.892 298.215L474.406 300.349L476.047 301.492L477.533 299.358L475.892 298.215ZM485.657 305.016L482.8 309.119L484.441 310.262L487.298 306.159L485.657 305.016ZM484.192 308.87L472.703 300.869L471.56 302.51L483.049 310.511L484.192 308.87ZM472.952 302.261L475.81 298.158L474.169 297.015L471.311 301.118L472.952 302.261ZM475.81 298.158C476.691 296.892 477.623 296.226 478.577 295.99L478.097 294.048C476.538 294.434 475.238 295.48 474.169 297.015L475.81 298.158ZM478.584 295.988C479.519 295.75 480.48 295.927 481.533 296.66L482.676 295.018C481.233 294.014 479.683 293.644 478.09 294.05L478.584 295.988ZM481.533 296.66L485.078 299.128L486.221 297.487L482.676 295.018L481.533 296.66ZM485.078 299.128C486.13 299.861 486.629 300.702 486.73 301.661L488.719 301.452C488.547 299.817 487.663 298.491 486.221 297.487L485.078 299.128ZM486.731 301.668C486.84 302.645 486.539 303.75 485.657 305.016L487.298 306.159C488.367 304.624 488.897 303.041 488.719 301.445L486.731 301.668Z" fill="black"/>
<path d="M716.704 395.304L715.883 394.732L715.311 395.553L716.132 396.125L716.704 395.304ZM718.075 393.334L718.647 392.514L717.826 391.942L717.254 392.763L718.075 393.334ZM727.937 401.957L726.945 402.083L726.945 402.089L727.937 401.957ZM723.513 408.308L723.733 409.284L723.74 409.282L723.513 408.308ZM712.017 402.033L711.197 401.462L710.625 402.282L711.446 402.854L712.017 402.033ZM713.389 400.064L713.96 399.243L713.14 398.671L712.568 399.492L713.389 400.064ZM723.178 405.955L723.381 406.934L723.394 406.931L723.407 406.928L723.178 405.955ZM725.613 402.459L726.604 402.323L726.603 402.322L725.613 402.459ZM725.12 399.947L717.275 394.483L716.132 396.125L723.977 401.588L725.12 399.947ZM717.524 395.875L718.896 393.906L717.254 392.763L715.883 394.732L717.524 395.875ZM717.504 394.155L725.25 399.55L726.393 397.909L718.647 392.514L717.504 394.155ZM725.25 399.55C726.31 400.288 726.824 401.13 726.945 402.083L728.929 401.831C728.724 400.218 727.828 398.908 726.393 397.909L725.25 399.55ZM726.945 402.089C727.07 403.028 726.799 404.081 725.961 405.284L727.602 406.427C728.638 404.939 729.137 403.392 728.928 401.825L726.945 402.089ZM725.961 405.284C725.123 406.487 724.224 407.116 723.286 407.334L723.74 409.282C725.285 408.922 726.565 407.916 727.602 406.427L725.961 405.284ZM723.294 407.333C722.366 407.541 721.399 407.348 720.336 406.607L719.193 408.248C720.624 409.245 722.156 409.639 723.733 409.284L723.294 407.333ZM720.336 406.607L712.589 401.212L711.446 402.854L719.193 408.248L720.336 406.607ZM712.838 402.605L714.21 400.635L712.568 399.492L711.197 401.462L712.838 402.605ZM712.818 400.884L720.663 406.347L721.806 404.706L713.96 399.243L712.818 400.884ZM720.663 406.347C721.483 406.919 722.408 407.135 723.381 406.934L722.976 404.975C722.581 405.057 722.211 404.988 721.806 404.706L720.663 406.347ZM723.407 406.928C724.392 406.696 725.18 406.055 725.796 405.17L724.155 404.027C723.735 404.631 723.325 404.893 722.949 404.981L723.407 406.928ZM725.796 405.17C726.411 404.287 726.741 403.325 726.604 402.323L724.622 402.594C724.672 402.958 724.576 403.422 724.155 404.027L725.796 405.17ZM726.603 402.322C726.466 401.328 725.948 400.523 725.12 399.947L723.977 401.588C724.375 401.865 724.566 402.188 724.622 402.596L726.603 402.322Z" fill="black"/>
<path d="M209.889 275.555L210.124 276.527L210.132 276.525L210.14 276.523L209.889 275.555ZM205.931 274.31L205.11 273.738L204.539 274.559L205.359 275.13L205.931 274.31ZM207.302 272.34L207.874 271.52L207.053 270.948L206.482 271.769L207.302 272.34ZM211.523 270.234L212.516 270.122L212.515 270.114L212.514 270.105L211.523 270.234ZM202.446 263.109L201.626 262.538L201.054 263.358L201.875 263.93L202.446 263.109ZM203.818 261.14L204.389 260.319L203.569 259.748L202.997 260.568L203.818 261.14ZM213.901 269.794L214.898 269.717L214.898 269.715L213.901 269.794ZM211.989 272.679C211.197 273.817 210.402 274.389 209.638 274.587L210.14 276.523C211.518 276.166 212.67 275.201 213.63 273.822L211.989 272.679ZM209.654 274.583C208.949 274.753 208.085 274.592 206.994 273.832L205.851 275.473C207.233 276.436 208.681 276.875 210.124 276.527L209.654 274.583ZM206.994 273.832L206.502 273.489L205.359 275.13L205.851 275.473L206.994 273.832ZM206.751 274.881L208.123 272.912L206.482 271.769L205.11 273.738L206.751 274.881ZM206.731 273.161L207.223 273.504L208.366 271.862L207.874 271.52L206.731 273.161ZM207.223 273.504C207.977 274.029 208.832 274.32 209.726 274.128C210.602 273.94 211.289 273.335 211.825 272.565L210.184 271.422C209.805 271.966 209.5 272.131 209.306 272.173C209.13 272.211 208.837 272.191 208.366 271.862L207.223 273.504ZM211.825 272.565C212.342 271.823 212.615 270.997 212.516 270.122L210.529 270.347C210.562 270.635 210.489 270.983 210.184 271.422L211.825 272.565ZM212.514 270.105C212.392 269.163 211.83 268.425 211.043 267.878L209.9 269.519C210.361 269.84 210.5 270.126 210.531 270.364L212.514 270.105ZM211.043 267.878L203.018 262.289L201.875 263.93L209.9 269.519L211.043 267.878ZM203.267 263.681L204.638 261.711L202.997 260.568L201.626 262.538L203.267 263.681ZM203.246 261.96L211.338 267.595L212.481 265.954L204.389 260.319L203.246 261.96ZM211.338 267.595C212.409 268.341 212.843 269.105 212.904 269.873L214.898 269.715C214.776 268.179 213.882 266.93 212.481 265.954L211.338 267.595ZM212.904 269.872C212.97 270.722 212.707 271.649 211.989 272.679L213.63 273.822C214.543 272.512 215.008 271.134 214.898 269.717L212.904 269.872Z" fill="black"/>
<path d="M297.207 270.224L298.128 271.687L298.915 271.192L298.936 270.263L297.207 270.224ZM293.84 272.343L292.376 273.265L293.298 274.728L294.762 273.807L293.84 272.343ZM293.103 271.172L291.374 271.111L291.356 271.643L291.639 272.094L293.103 271.172ZM293.58 257.71L295.308 257.771L295.35 256.597L294.274 256.126L293.58 257.71ZM282.174 252.709L280.71 253.631L280.993 254.08L281.48 254.293L282.174 252.709ZM281.437 251.538L280.515 250.075L279.052 250.996L279.973 252.46L281.437 251.538ZM285.008 249.29L285.75 247.727L284.891 247.32L284.087 247.826L285.008 249.29ZM294.043 253.576L293.301 255.139L295.707 256.28L295.772 253.618L294.043 253.576ZM294.288 243.448L293.367 241.984L292.581 242.478L292.559 243.406L294.288 243.448ZM297.655 241.328L299.118 240.407L298.197 238.943L296.733 239.864L297.655 241.328ZM298.392 242.499L300.12 242.568L300.141 242.032L299.855 241.578L298.392 242.499ZM297.894 254.953L296.165 254.884L296.118 256.069L297.206 256.54L297.894 254.953ZM310.316 260.335L311.78 259.414L311.494 258.961L311.003 258.748L310.316 260.335ZM311.053 261.506L311.975 262.97L313.438 262.049L312.517 260.585L311.053 261.506ZM307.482 263.755L306.765 265.329L307.614 265.715L308.403 265.218L307.482 263.755ZM297.456 259.193L298.173 257.619L295.787 256.533L295.727 259.154L297.456 259.193ZM296.285 268.76L292.919 270.879L294.762 273.807L298.128 271.687L296.285 268.76ZM295.304 271.422L294.567 270.251L291.639 272.094L292.376 273.265L295.304 271.422ZM294.831 271.233L295.308 257.771L291.851 257.649L291.374 271.111L294.831 271.233ZM294.274 256.126L282.869 251.125L281.48 254.293L292.885 259.294L294.274 256.126ZM283.638 251.788L282.901 250.617L279.973 252.46L280.71 253.631L283.638 251.788ZM282.358 253.002L285.93 250.753L284.087 247.826L280.515 250.075L282.358 253.002ZM284.267 250.852L293.301 255.139L294.784 252.013L285.75 247.727L284.267 250.852ZM295.772 253.618L296.017 243.489L292.559 243.406L292.314 253.534L295.772 253.618ZM295.21 244.911L298.576 242.792L296.733 239.864L293.367 241.984L295.21 244.911ZM296.191 242.25L296.928 243.421L299.855 241.578L299.118 240.407L296.191 242.25ZM296.664 242.43L296.165 254.884L299.622 255.022L300.12 242.568L296.664 242.43ZM297.206 256.54L309.628 261.922L311.003 258.748L298.581 253.366L297.206 256.54ZM308.852 261.257L309.589 262.428L312.517 260.585L311.78 259.414L308.852 261.257ZM310.132 260.043L306.56 262.291L308.403 265.218L311.975 262.97L310.132 260.043ZM308.198 262.18L298.173 257.619L296.74 260.767L306.765 265.329L308.198 262.18ZM295.727 259.154L295.477 270.184L298.936 270.263L299.186 259.232L295.727 259.154Z" fill="black"/>
<path d="M548.202 363.134L540.409 355.422C539.077 354.105 537.565 353.494 535.871 353.589C534.156 353.663 532.51 354.497 530.933 356.091C529.356 357.684 528.54 359.339 528.484 361.055C528.406 362.749 529.032 364.255 530.364 365.573L538.157 373.285C539.489 374.603 541.012 375.224 542.728 375.15C544.421 375.054 546.056 374.21 547.633 372.616C549.21 371.023 550.037 369.379 550.115 367.684C550.171 365.969 549.534 364.452 548.202 363.134ZM534.073 377.02L526.672 369.697C524.118 367.169 522.909 364.374 523.045 361.312C523.159 358.227 524.588 355.299 527.331 352.527C530.075 349.754 532.988 348.295 536.071 348.148C539.132 347.98 541.94 349.16 544.494 351.687L551.894 359.01C554.448 361.538 555.668 364.343 555.554 367.428C555.418 370.491 553.978 373.408 551.235 376.18C548.492 378.953 545.589 380.423 542.528 380.591C539.445 380.738 536.627 379.547 534.073 377.02Z" fill="black"/>
<path d="M780.848 93.7395L798.481 64.6795L843.189 91.8075L838.539 99.4716L800.537 76.4129L787.554 97.8087L780.848 93.7395Z" fill="black"/>
<path d="M582.66 217.893L583.004 219.106L583.016 219.102L583.029 219.099L582.66 217.893ZM577.826 216.893L576.791 216.172L576.071 217.207L577.106 217.927L577.826 216.893ZM579.555 214.41L580.275 213.375L579.241 212.655L578.52 213.689L579.555 214.41ZM581.585 215.025L581.678 216.282L581.704 216.28L581.731 216.277L581.585 215.025ZM585.443 210.676L584.182 210.691L584.183 210.699L584.183 210.708L585.443 210.676ZM582.927 208.862L583.413 210.025L583.439 210.014L583.464 210.003L582.927 208.862ZM580.081 210.567L579.369 209.526L579.348 209.541L579.327 209.556L580.081 210.567ZM579.889 210.71L580.605 211.748L580.624 211.734L580.642 211.72L579.889 210.71ZM579.534 210.954L580.243 211.997L580.25 211.992L579.534 210.954ZM575.433 213.137L575.75 214.357L575.765 214.354L575.779 214.349L575.433 213.137ZM570.127 208.889L571.384 208.789L571.384 208.787L570.127 208.889ZM575.627 201.167L575.935 202.39L575.945 202.387L575.627 201.167ZM580.263 202.275L581.297 202.996L582.018 201.961L580.983 201.241L580.263 202.275ZM578.534 204.758L577.814 205.793L578.848 206.513L579.568 205.479L578.534 204.758ZM576.027 204.211L576.354 205.428L576.372 205.423L576.389 205.418L576.027 204.211ZM573.023 208.171L571.763 208.146L571.763 208.154L571.763 208.162L573.023 208.171ZM575.49 210.012L575.995 211.167L576.003 211.163L576.011 211.16L575.49 210.012ZM578.274 208.264L579 209.295L579.006 209.29L578.274 208.264ZM578.579 208.046L579.311 209.073L579.319 209.067L579.327 209.061L578.579 208.046ZM580.6 206.689L581.239 207.775L581.248 207.77L581.256 207.765L580.6 206.689ZM582.451 205.796L581.997 204.62L581.997 204.62L582.451 205.796ZM588.403 209.91L589.66 209.818L589.66 209.816L588.403 209.91ZM585.718 214.031C584.738 215.437 583.594 216.289 582.291 216.688L583.029 219.099C584.953 218.509 586.537 217.266 587.787 215.472L585.718 214.031ZM582.315 216.68C581.136 217.015 579.911 216.808 578.546 215.858L577.106 217.927C578.969 219.225 580.966 219.685 583.004 219.106L582.315 216.68ZM578.86 217.613L580.589 215.13L578.52 213.689L576.791 216.172L578.86 217.613ZM578.835 215.444C579.693 216.042 580.652 216.358 581.678 216.282L581.492 213.767C581.135 213.794 580.741 213.699 580.275 213.375L578.835 215.444ZM581.731 216.277C583.336 216.09 584.626 215.158 585.612 213.743L583.543 212.302C582.857 213.286 582.152 213.689 581.439 213.772L581.731 216.277ZM585.612 213.743C586.292 212.766 586.731 211.721 586.703 210.643L584.183 210.708C584.192 211.049 584.053 211.568 583.543 212.302L585.612 213.743ZM586.704 210.661C586.69 209.554 586.221 208.606 585.302 207.966L583.861 210.035C584.074 210.183 584.178 210.351 584.182 210.691L586.704 210.661ZM585.302 207.966C584.407 207.343 583.376 207.257 582.39 207.722L583.464 210.003C583.585 209.946 583.647 209.946 583.67 209.948C583.692 209.95 583.753 209.96 583.861 210.035L585.302 207.966ZM582.441 207.699C581.703 208.007 580.661 208.643 579.369 209.526L580.792 211.607C582.083 210.725 582.937 210.224 583.413 210.025L582.441 207.699ZM579.327 209.556L579.135 209.699L580.642 211.72L580.834 211.577L579.327 209.556ZM579.173 209.672L578.819 209.917L580.25 211.992L580.605 211.748L579.173 209.672ZM578.825 209.912C577.141 211.057 575.91 211.69 575.087 211.925L575.779 214.349C577.002 214.001 578.505 213.179 580.243 211.997L578.825 209.912ZM575.117 211.917C574.502 212.077 573.806 211.973 572.944 211.373L571.503 213.442C572.821 214.36 574.265 214.743 575.75 214.357L575.117 211.917ZM572.944 211.373C571.945 210.677 571.467 209.835 571.384 208.789L568.87 208.988C569.018 210.847 569.937 212.351 571.503 213.442L572.944 211.373ZM571.384 208.787C571.295 207.687 571.656 206.428 572.668 204.975L570.599 203.534C569.364 205.308 568.721 207.14 568.87 208.99L571.384 208.787ZM572.668 204.975C573.725 203.457 574.826 202.669 575.935 202.39L575.319 199.945C573.448 200.416 571.886 201.686 570.599 203.534L572.668 204.975ZM575.945 202.387C576.968 202.12 578.138 202.331 579.543 203.31L580.983 201.241C579.161 199.972 577.24 199.444 575.309 199.947L575.945 202.387ZM579.228 201.555L577.499 204.038L579.568 205.479L581.297 202.996L579.228 201.555ZM579.254 203.724C578.161 202.962 576.931 202.624 575.666 203.003L576.389 205.418C576.728 205.317 577.169 205.344 577.814 205.793L579.254 203.724ZM575.7 202.993C574.532 203.307 573.596 204.085 572.861 205.14L574.93 206.58C575.425 205.87 575.909 205.548 576.354 205.428L575.7 202.993ZM572.861 205.14C572.202 206.085 571.784 207.094 571.763 208.146L574.284 208.197C574.292 207.794 574.455 207.262 574.93 206.58L572.861 205.14ZM571.763 208.162C571.755 209.22 572.155 210.178 573.061 210.809L574.501 208.74C574.386 208.66 574.281 208.549 574.284 208.18L571.763 208.162ZM573.061 210.809C573.934 211.417 574.965 211.618 575.995 211.167L574.984 208.857C574.895 208.896 574.787 208.939 574.501 208.74L573.061 210.809ZM576.011 211.16C576.701 210.846 577.717 210.199 579 209.295L577.548 207.233C576.258 208.142 575.417 208.66 574.968 208.864L576.011 211.16ZM579.006 209.29L579.311 209.073L577.847 207.02L577.542 207.238L579.006 209.29ZM579.327 209.061C580.061 208.52 580.698 208.094 581.239 207.775L579.961 205.602C579.323 205.977 578.612 206.456 577.831 207.032L579.327 209.061ZM581.256 207.765C581.714 207.486 582.261 207.22 582.904 206.972L581.997 204.62C581.24 204.912 580.553 205.241 579.944 205.612L581.256 207.765ZM582.904 206.972C583.845 206.609 584.686 206.707 585.567 207.321L587.008 205.252C585.462 204.175 583.744 203.946 581.997 204.62L582.904 206.972ZM585.567 207.321C586.567 208.018 587.062 208.888 587.146 210.005L589.66 209.816C589.517 207.907 588.601 206.361 587.008 205.252L585.567 207.321ZM587.146 210.003C587.227 211.105 586.83 212.434 585.718 214.031L587.787 215.472C589.094 213.594 589.798 211.696 589.66 209.818L587.146 210.003Z" fill="black"/>
<path d="M748.719 166.473L754.568 174.302L736.495 187.804L723.056 221.935L720.446 223.885L714.695 216.186L726.148 189.331L696.856 192.305L691.494 185.128L694.104 183.178L730.319 180.218L748.719 166.473Z" fill="black"/>
<path d="M588.139 250.022L551.084 250.395L550.51 193.387L560.283 193.289L560.77 241.746L588.053 241.471L588.139 250.022Z" fill="black"/>
<path d="M420.941 313.488C414.697 313.55 409.85 312.133 406.4 309.236C403.004 306.283 401.275 301.74 401.213 295.604L401.189 293.161L410.962 293.063L410.986 295.506C411.047 301.587 414.335 304.595 420.851 304.529C423.782 304.5 426.136 303.689 427.912 302.096C429.687 300.449 430.559 298.079 430.528 294.984L430.128 255.16L439.901 255.062L440.304 295.211C440.366 301.347 438.593 305.925 434.985 308.948C431.432 311.916 426.75 313.429 420.941 313.488Z" fill="black"/>
<path d="M345.495 198.092L344.654 196.278L342.839 197.12L343.681 198.934L345.495 198.092ZM378.742 182.67L380.557 181.829L379.715 180.015L377.901 180.856L378.742 182.67ZM402.732 234.388L403.574 236.202L405.388 235.361L404.546 233.546L402.732 234.388ZM369.559 249.776L367.745 250.617L368.586 252.431L370.4 251.59L369.559 249.776ZM365.96 242.018L365.119 240.204L363.305 241.045L364.146 242.86L365.96 242.018ZM390.268 230.743L391.109 232.557L392.924 231.716L392.082 229.901L390.268 230.743ZM383.619 216.41L385.433 215.568L384.592 213.754L382.777 214.595L383.619 216.41ZM362.784 226.074L360.97 226.916L361.812 228.73L363.626 227.888L362.784 226.074ZM359.357 218.686L358.516 216.872L356.701 217.713L357.543 219.527L359.357 218.686ZM380.192 209.021L381.034 210.836L382.848 209.994L382.006 208.18L380.192 209.021ZM373.475 194.541L375.289 193.699L374.448 191.885L372.633 192.726L373.475 194.541ZM349.094 205.85L347.279 206.692L348.121 208.506L349.935 207.664L349.094 205.85ZM346.337 199.907L379.584 184.485L377.901 180.856L344.654 196.278L346.337 199.907ZM376.928 183.512L400.918 235.229L404.546 233.546L380.557 181.829L376.928 183.512ZM401.89 232.574L368.717 247.961L370.4 251.59L403.574 236.202L401.89 232.574ZM371.373 248.934L367.775 241.176L364.146 242.86L367.745 250.617L371.373 248.934ZM366.802 243.832L391.109 232.557L389.426 228.928L365.119 240.204L366.802 243.832ZM392.082 229.901L385.433 215.568L381.805 217.251L388.453 231.584L392.082 229.901ZM382.777 214.595L361.943 224.26L363.626 227.888L384.461 218.224L382.777 214.595ZM364.599 225.232L361.172 217.844L357.543 219.527L360.97 226.916L364.599 225.232ZM360.199 220.5L381.034 210.836L379.35 207.207L358.516 216.872L360.199 220.5ZM382.006 208.18L375.289 193.699L371.661 195.382L378.378 209.863L382.006 208.18ZM372.633 192.726L348.252 204.036L349.935 207.664L374.316 196.355L372.633 192.726ZM350.908 205.008L347.31 197.251L343.681 198.934L347.279 206.692L350.908 205.008Z" fill="black"/>
<path d="M155.863 235.508C148.968 235.578 143.493 233.814 139.439 230.217C135.384 226.565 133.325 221.563 133.261 215.211L133.076 196.806C133.012 190.453 134.97 185.438 138.952 181.76C142.932 178.028 148.37 176.127 155.265 176.058C162.16 175.988 167.635 177.779 171.69 181.431C175.744 185.028 177.804 190.003 177.867 196.355L178.053 214.76C178.12 221.438 175.946 226.673 171.532 230.464L178.31 240.414L178.344 243.753L168.897 243.848L162.697 234.707C160.475 235.218 158.198 235.485 155.863 235.508ZM168.285 215.347L168.09 195.965C168.056 192.653 166.917 190.004 164.671 188.017C162.424 185.977 159.319 184.976 155.355 185.016C151.392 185.056 148.308 186.118 146.102 188.204C143.897 190.235 142.81 192.907 142.844 196.219L143.038 215.601C143.072 218.913 144.212 221.589 146.459 223.63C148.705 225.617 151.81 226.59 155.773 226.55C159.736 226.51 162.821 225.475 165.027 223.443C167.232 221.358 168.318 218.659 168.285 215.347Z" fill="black"/>
<path d="M96.023 151.581L88.0683 155.877L86.5205 153.01L78.8965 96.0384L87.3528 91.4722L130.808 129.096L132.356 131.962L123.9 136.529L112.762 126.53L93.8432 136.746L96.023 151.581ZM89.1728 105.299L92.5534 128.186L106.313 120.757L89.1728 105.299Z" fill="black"/>
<path d="M233.901 386.486L224.897 385.025L222.25 330.14L222.772 326.925L232.258 328.463L233.913 370.646L247.838 345.842L253.948 346.834L259.439 375.035L274.223 335.271L283.227 336.732L282.705 339.948L262.843 391.181L253.839 389.72L248.252 361.091L233.901 386.486Z" fill="black"/>
<path d="M344.074 110.08L342.708 134.975L337.19 137.955L315.552 125.481L334.398 160.381L326.085 164.87L298.997 114.705L307.31 110.217L334.368 125.872L336.119 94.6605L344.145 90.3265L371.233 140.491L362.92 144.98L344.074 110.08Z" fill="black"/>
<path d="M221.684 108.524L222.635 110.284L224.394 109.334L223.444 107.574L221.684 108.524ZM213.085 113.168L211.325 114.118L212.275 115.878L214.035 114.928L213.085 113.168ZM185.997 63.0038L185.047 61.2439L183.287 62.1942L184.237 63.954L185.997 63.0038ZM194.597 58.3602L196.357 57.4099L195.406 55.6501L193.646 56.6003L194.597 58.3602ZM206.09 79.6442L204.33 80.5944L205.28 82.3543L207.04 81.404L206.09 79.6442ZM226.872 68.4221L227.822 70.182L229.582 69.2317L228.632 67.4719L226.872 68.4221ZM215.379 47.1381L214.429 45.3783L212.669 46.3286L213.619 48.0884L215.379 47.1381ZM223.979 42.4945L225.738 41.5443L224.788 39.7844L223.028 40.7347L223.979 42.4945ZM251.066 92.6588L252.017 94.4187L253.776 93.4684L252.826 91.7086L251.066 92.6588ZM242.467 97.3024L240.707 98.2527L241.657 100.013L243.417 99.0623L242.467 97.3024ZM230.935 75.9468L232.695 74.9965L231.745 73.2367L229.985 74.187L230.935 75.9468ZM210.153 87.1688L209.202 85.409L207.443 86.3592L208.393 88.1191L210.153 87.1688ZM220.734 106.765L212.135 111.408L214.035 114.928L222.635 110.284L220.734 106.765ZM214.845 112.218L187.757 62.0535L184.237 63.954L211.325 114.118L214.845 112.218ZM186.947 64.7636L195.547 60.12L193.646 56.6003L185.047 61.2439L186.947 64.7636ZM192.837 59.3104L204.33 80.5944L207.849 78.6939L196.357 57.4099L192.837 59.3104ZM207.04 81.404L227.822 70.182L225.922 66.6623L205.139 77.8843L207.04 81.404ZM228.632 67.4719L217.139 46.1879L213.619 48.0884L225.112 69.3724L228.632 67.4719ZM216.329 48.898L224.929 44.2544L223.028 40.7347L214.429 45.3783L216.329 48.898ZM222.219 43.4448L249.306 93.6091L252.826 91.7086L225.738 41.5443L222.219 43.4448ZM250.116 90.899L241.516 95.5426L243.417 99.0623L252.017 94.4187L250.116 90.899ZM244.227 96.3522L232.695 74.9965L229.175 76.897L240.707 98.2527L244.227 96.3522ZM229.985 74.187L209.202 85.409L211.103 88.9286L231.885 77.7066L229.985 74.187ZM208.393 88.1191L219.925 109.475L223.444 107.574L211.913 86.2185L208.393 88.1191Z" fill="black"/>
<path d="M861.651 71.6016L860.4 73.1622L860.416 73.1749L860.432 73.1872L861.651 71.6016ZM855.233 57.0055L855.213 55.0056L853.213 55.0257L853.233 57.0256L855.233 57.0055ZM865.006 56.9073L867.006 56.8872L866.986 54.8873L864.986 54.9074L865.006 56.9073ZM867.189 63.4011L865.649 64.6779L865.676 64.7101L865.704 64.7413L867.189 63.4011ZM885.86 65.4125L884.682 63.7968L884.671 63.8049L884.66 63.8132L885.86 65.4125ZM885.923 55.3938L884.866 57.0918L884.903 57.1152L884.942 57.137L885.923 55.3938ZM876.106 51.0943L876.796 49.2173L876.758 49.2032L876.719 49.1907L876.106 51.0943ZM875.37 50.8574L874.687 52.737L874.722 52.7496L874.757 52.761L875.37 50.8574ZM874.062 50.3818L873.366 52.2569L873.379 52.2614L874.062 50.3818ZM860.637 43.6752L859.351 45.2067L859.37 45.2222L859.388 45.2372L860.637 43.6752ZM861.883 21.7533L863.168 23.2863L863.17 23.2843L861.883 21.7533ZM892.508 21.7711L891.21 23.2934L891.217 23.2988L891.223 23.3042L892.508 21.7711ZM898.271 36.0479L898.291 38.0478L900.291 38.0277L900.271 36.0278L898.271 36.0479ZM888.498 36.1462L886.498 36.1663L886.518 38.1662L888.518 38.1461L888.498 36.1462ZM885.245 28.5228L883.972 30.0655L883.994 30.0835L884.016 30.1009L885.245 28.5228ZM869.195 28.0326L868.069 26.3798L868.058 26.3871L868.047 26.3946L869.195 28.0326ZM868.969 37.9715L867.941 39.6872L867.953 39.6944L867.965 39.7014L868.969 37.9715ZM878.784 42.0267L878.119 43.9131L878.13 43.9168L878.784 42.0267ZM879.928 42.4224L879.274 44.3126L879.289 44.3177L879.304 44.3225L879.928 42.4224ZM887.286 45.1991L886.469 47.0248L886.483 47.031L886.497 47.037L887.286 45.1991ZM893.101 48.3985L894.205 46.7305L894.204 46.7302L893.101 48.3985ZM893.418 71.7708L894.693 73.311L894.696 73.3089L893.418 71.7708ZM877.563 74.4912C871.64 74.5508 866.785 73.0249 862.87 70.0159L860.432 73.1872C865.164 76.8244 870.93 78.5581 877.603 78.491L877.563 74.4912ZM862.902 70.041C859.24 67.1056 857.292 62.8555 857.233 56.9854L853.233 57.0256C853.302 63.8602 855.633 69.3407 860.4 73.1622L862.902 70.041ZM855.253 59.0054L865.026 58.9072L864.986 54.9074L855.213 55.0056L855.253 59.0054ZM863.006 56.9274C863.036 59.9137 863.88 62.5447 865.649 64.6779L868.728 62.1244C867.639 60.8112 867.028 59.113 867.006 56.8872L863.006 56.9274ZM865.704 64.7413C868.707 68.0683 872.943 69.5786 878.083 69.527L878.043 65.5272C873.736 65.5705 870.722 64.3302 868.673 62.061L865.704 64.7413ZM878.083 69.527C881.684 69.4907 884.762 68.7385 887.061 67.0118L884.66 63.8132C883.294 64.8382 881.174 65.4957 878.043 65.5272L878.083 69.527ZM887.039 67.0282C889.417 65.2931 890.686 62.8971 890.657 59.9887L886.657 60.0289C886.672 61.5725 886.077 62.779 884.682 63.7968L887.039 67.0282ZM890.657 59.9887C890.629 57.2084 889.327 55.0139 886.903 53.6506L884.942 57.137C886.122 57.8007 886.643 58.683 886.657 60.0289L890.657 59.9887ZM886.979 53.6957C884.985 52.4545 881.539 50.9619 876.796 49.2173L875.415 52.9713C880.155 54.715 883.254 56.0887 884.866 57.0918L886.979 53.6957ZM876.719 49.1907L875.984 48.9537L874.757 52.761L875.492 52.9979L876.719 49.1907ZM876.054 48.9777L874.746 48.5022L873.379 52.2614L874.687 52.737L876.054 48.9777ZM874.758 48.5068C868.539 46.1986 864.311 44.0519 861.887 42.1133L859.388 45.2372C862.328 47.5885 867.051 49.9129 873.366 52.2569L874.758 48.5068ZM861.924 42.1437C859.786 40.3486 858.586 37.6891 858.548 33.8411L854.548 33.8813C854.595 38.6115 856.122 42.4947 859.351 45.2067L861.924 42.1437ZM858.548 33.8411C858.502 29.3406 860.056 25.8935 863.167 23.2863L860.599 20.2202C856.495 23.6584 854.492 28.2832 854.548 33.8813L858.548 33.8411ZM863.17 23.2843C866.374 20.5908 870.882 19.1018 876.924 19.041L876.883 15.0412C870.22 15.1082 864.714 16.7607 860.596 20.2223L863.17 23.2843ZM876.924 19.041C883.228 18.9776 887.906 20.478 891.21 23.2934L893.805 20.2488C889.551 16.6244 883.826 14.9714 876.883 15.0412L876.924 19.041ZM891.223 23.3042C894.431 25.9918 896.211 30.1194 896.271 36.068L900.271 36.0278C900.203 29.272 898.141 23.8816 893.792 20.238L891.223 23.3042ZM898.251 34.048L888.478 34.1463L888.518 38.1461L898.291 38.0478L898.251 34.048ZM890.498 36.1261C890.459 32.2723 889.213 29.0776 886.474 26.9448L884.016 30.1009C885.546 31.2917 886.468 33.1792 886.498 36.1663L890.498 36.1261ZM886.518 26.9801C883.98 24.8857 880.7 23.9621 876.892 24.0004L876.932 28.0002C880.074 27.9686 882.35 28.7267 883.972 30.0655L886.518 26.9801ZM876.892 24.0004C873.433 24.0352 870.436 24.7674 868.069 26.3798L870.321 29.6855C871.837 28.6525 873.984 28.0298 876.932 28.0002L876.892 24.0004ZM868.047 26.3946C865.712 28.0307 864.367 30.2761 864.395 33.0492L868.394 33.009C868.382 31.7645 868.904 30.6789 870.343 29.6707L868.047 26.3946ZM864.395 33.0492C864.423 35.8978 865.549 38.2539 867.941 39.6872L869.997 36.2559C869.002 35.6599 868.412 34.7211 868.394 33.009L864.395 33.0492ZM867.965 39.7014C869.895 40.8208 873.33 42.226 878.119 43.913L879.448 40.1403C874.647 38.4487 871.539 37.1505 869.973 36.2417L867.965 39.7014ZM878.13 43.9168L879.274 44.3126L880.582 40.5323L879.437 40.1365L878.13 43.9168ZM879.304 44.3225C882.148 45.2567 884.533 46.1583 886.469 47.0248L888.103 43.3734C886.004 42.4343 883.482 41.4848 880.552 40.5223L879.304 44.3225ZM886.497 47.037C888.223 47.7775 890.056 48.7828 891.998 50.0669L894.204 46.7302C892.101 45.34 890.058 44.2124 888.075 43.3612L886.497 47.037ZM891.998 50.0666C895.307 52.2559 896.953 55.3012 896.995 59.4363L900.995 59.396C900.94 53.9755 898.657 49.6758 894.205 46.7305L891.998 50.0666ZM896.995 59.4363C897.04 63.967 895.424 67.5023 892.139 70.2327L894.696 73.3089C898.95 69.7736 901.052 65.0724 900.995 59.396L896.995 59.4363ZM892.142 70.2307C888.901 72.915 884.133 74.4252 877.563 74.4912L877.603 78.491C884.715 78.4195 890.503 76.7828 894.693 73.311L892.142 70.2307Z" fill="black"/>
<path d="M898.349 237.316L878.771 219.868L916.701 177.307L934.638 193.292C938.489 196.724 940.601 200.352 940.975 204.176C941.389 208.036 939.935 211.831 936.611 215.56C932.782 219.857 928.388 221.359 923.43 220.068C926.448 225.74 925.645 231.17 921.022 236.358C917.59 240.209 913.917 242.208 910.003 242.357C906.125 242.464 902.24 240.784 898.349 237.316ZM902.323 208.13L891.757 219.986L902.823 229.848C906.876 233.461 910.637 233.321 914.105 229.43C917.681 225.417 917.442 221.604 913.389 217.992L902.323 208.13ZM918.308 190.193L907.742 202.05L917.166 210.449C921.179 214.025 924.955 213.827 928.496 209.855C932 205.923 931.745 202.169 927.732 198.592L918.308 190.193Z" fill="black"/>
<path d="M853.643 390.499L838.638 395.703L808.279 308.172L822.034 303.401L880.234 350.037L859.547 290.39L874.553 285.186L904.911 372.717L891.156 377.488L832.956 330.853L853.643 390.499Z" fill="black"/>
<path d="M636.647 160.755L636.16 162.694L636.647 160.755ZM604.398 102.117L602.499 101.49L602.499 101.49L604.398 102.117ZM641.88 80.8647L642.266 78.9025L642.264 78.902L641.88 80.8647ZM659.436 95.6027L660.4 97.3552L662.152 96.3914L661.189 94.6389L659.436 95.6027ZM647.669 102.074L645.917 103.038L646.881 104.79L648.633 103.827L647.669 102.074ZM637.629 93.803L637.298 95.7754L637.312 95.7778L637.326 95.78L637.629 93.803ZM617.189 105.172L619.076 105.835L619.081 105.822L619.085 105.808L617.189 105.172ZM640.971 148.415L640.493 150.357L640.507 150.36L640.521 150.363L640.971 148.415ZM661.519 137.242L663.35 138.045L663.356 138.032L663.362 138.019L661.519 137.242ZM659.857 124.235L658.893 122.482L657.141 123.446L658.105 125.199L659.857 124.235ZM671.624 117.763L673.376 116.8L672.412 115.047L670.66 116.011L671.624 117.763ZM674.668 140.483L676.531 141.209L676.532 141.207L674.668 140.483ZM658.951 154.634C650.742 159.149 643.511 160.417 637.134 158.815L636.16 162.694C643.811 164.616 652.092 162.972 660.879 158.139L658.951 154.634ZM637.134 158.815C630.783 157.22 625.521 152.863 621.407 145.381L617.902 147.309C622.416 155.516 628.483 160.766 636.16 162.694L637.134 158.815ZM621.407 145.381L609.219 123.221L605.714 125.148L617.902 147.309L621.407 145.381ZM609.219 123.221C605.104 115.739 604.243 108.963 606.297 102.745L602.499 101.49C600.016 109.006 601.2 116.941 605.714 125.148L609.219 123.221ZM606.297 102.745C608.359 96.5015 613.302 91.0735 621.512 86.5585L619.584 83.0536C610.797 87.8862 604.973 93.999 602.499 101.49L606.297 102.745ZM621.512 86.5585C628.429 82.7541 635.065 81.569 641.496 82.8275L642.264 78.902C634.764 77.4342 627.179 78.8767 619.584 83.0536L621.512 86.5585ZM641.493 82.827C647.846 84.0789 653.079 88.1935 657.144 95.586L660.649 93.6584C656.158 85.4926 650.046 80.4356 642.266 78.9025L641.493 82.827ZM657.144 95.586L657.684 96.5665L661.189 94.6389L660.649 93.6584L657.144 95.586ZM658.472 93.8503L646.706 100.322L648.633 103.827L660.4 97.3552L658.472 93.8503ZM649.422 101.11L648.883 100.13L645.378 102.057L645.917 103.038L649.422 101.11ZM648.883 100.13C646.313 95.4574 642.668 92.5504 637.931 91.8259L637.326 95.78C640.584 96.2781 643.274 98.2315 645.378 102.057L648.883 100.13ZM637.96 91.8305C633.499 91.0821 629.292 91.7634 625.418 93.8937L627.346 97.3986C630.401 95.718 633.692 95.1705 637.298 95.7754L637.96 91.8305ZM625.418 93.8937C620.272 96.7239 616.738 100.229 615.293 104.536L619.085 105.808C620.092 102.807 622.686 99.9611 627.346 97.3986L625.418 93.8937ZM615.302 104.509C613.803 108.774 614.519 113.291 617.049 117.893L620.554 115.965C618.411 112.068 618.052 108.748 619.076 105.835L615.302 104.509ZM617.049 117.893L630.1 141.622L633.605 139.694L620.554 115.965L617.049 117.893ZM630.1 141.622C632.632 146.226 636.074 149.268 640.493 150.357L641.45 146.473C638.383 145.717 635.747 143.589 633.605 139.694L630.1 141.622ZM640.521 150.363C644.89 151.373 649.714 150.231 654.849 147.407L652.921 143.902C648.251 146.471 644.466 147.169 641.422 146.466L640.521 150.363ZM654.849 147.407C658.709 145.284 661.553 142.142 663.35 138.045L659.687 136.438C658.235 139.748 655.991 142.214 652.921 143.902L654.849 147.407ZM663.362 138.019C665.233 133.579 664.719 128.925 662.149 124.251L658.644 126.179C660.747 130.004 660.982 133.367 659.676 136.465L663.362 138.019ZM662.149 124.251L661.61 123.271L658.105 125.199L658.644 126.179L662.149 124.251ZM660.821 125.987L672.588 119.516L670.66 116.011L658.893 122.482L660.821 125.987ZM669.871 118.727L670.411 119.708L673.916 117.78L673.376 116.8L669.871 118.727ZM670.411 119.708C674.476 127.1 675.149 133.723 672.804 139.758L676.532 141.207C679.404 133.816 678.407 125.946 673.916 117.78L670.411 119.708ZM672.805 139.756C670.424 145.86 665.869 150.83 658.951 154.634L660.879 158.139C668.474 153.962 673.754 148.329 676.531 141.209L672.805 139.756Z" fill="black"/>
<path d="M968.227 472.587L969.191 474.339L970.944 473.376L969.98 471.623L968.227 472.587ZM956.461 479.058L954.708 480.022L955.672 481.775L957.425 480.811L956.461 479.058ZM918.711 410.419L917.747 408.667L915.995 409.631L916.959 411.383L918.711 410.419ZM930.478 403.948L932.23 402.984L931.266 401.232L929.514 402.195L930.478 403.948ZM946.494 433.07L944.742 434.034L945.706 435.787L947.458 434.823L946.494 433.07ZM974.931 417.431L975.894 419.184L977.647 418.22L976.683 416.468L974.931 417.431ZM958.914 388.309L957.95 386.556L956.198 387.52L957.162 389.273L958.914 388.309ZM970.681 381.837L972.433 380.874L971.469 379.121L969.717 380.085L970.681 381.837ZM1008.43 450.477L1009.39 452.229L1011.15 451.265L1010.18 449.513L1008.43 450.477ZM996.664 456.948L994.911 457.912L995.875 459.664L997.627 458.7L996.664 456.948ZM980.593 427.727L982.346 426.763L981.382 425.011L979.629 425.975L980.593 427.727ZM952.157 443.366L951.193 441.614L949.441 442.578L950.404 444.33L952.157 443.366ZM967.264 470.835L955.497 477.306L957.425 480.811L969.191 474.339L967.264 470.835ZM958.213 478.095L920.464 409.455L916.959 411.383L954.708 480.022L958.213 478.095ZM919.675 412.172L931.442 405.7L929.514 402.195L917.747 408.667L919.675 412.172ZM928.725 404.912L944.742 434.034L948.247 432.107L932.23 402.984L928.725 404.912ZM947.458 434.823L975.894 419.184L973.967 415.679L945.531 431.318L947.458 434.823ZM976.683 416.468L960.666 387.345L957.162 389.273L973.178 418.395L976.683 416.468ZM959.878 390.061L971.645 383.59L969.717 380.085L957.95 386.556L959.878 390.061ZM968.928 382.801L1006.68 451.44L1010.18 449.513L972.433 380.874L968.928 382.801ZM1007.47 448.724L995.7 455.195L997.627 458.7L1009.39 452.229L1007.47 448.724ZM998.416 455.984L982.346 426.763L978.841 428.691L994.911 457.912L998.416 455.984ZM979.629 425.975L951.193 441.614L953.121 445.119L981.557 429.48L979.629 425.975ZM950.404 444.33L966.475 473.551L969.98 471.623L953.909 442.403L950.404 444.33Z" fill="black"/>
<path d="M470.699 396.753L471.171 398.697L471.184 398.694L471.197 398.691L470.699 396.753ZM456.609 418.025L458.587 417.728L458.585 417.715L458.583 417.702L456.609 418.025ZM497.193 444.907L497.665 446.851L497.678 446.847L497.691 446.844L497.193 444.907ZM511.283 423.635L513.261 423.338L513.259 423.325L513.257 423.312L511.283 423.635ZM443.769 421.198L445.746 420.898L445.745 420.89L445.744 420.883L443.769 421.198ZM468.612 383.693L469.092 385.634L469.099 385.633L469.106 385.631L468.612 383.693ZM524.123 420.462L526.1 420.162L526.099 420.155L526.098 420.147L524.123 420.462ZM499.281 457.968L499.761 459.909L499.768 459.907L499.775 459.906L499.281 457.968ZM505.685 412.025L483.48 397.317L481.271 400.652L503.476 415.36L505.685 412.025ZM483.48 397.317C479.269 394.528 474.801 393.634 470.201 394.816L471.197 398.691C474.578 397.821 477.894 398.415 481.271 400.652L483.48 397.317ZM470.227 394.81C465.549 395.946 461.64 399.108 458.441 403.937L461.776 406.145C464.593 401.893 467.743 399.53 471.171 398.697L470.227 394.81ZM458.441 403.937C455.243 408.765 453.857 413.598 454.635 418.349L458.583 417.702C458.012 414.221 458.96 410.398 461.776 406.145L458.441 403.937ZM454.631 418.322C455.337 423.019 457.903 426.785 462.114 429.574L464.323 426.239C460.946 424.002 459.106 421.181 458.587 417.728L454.631 418.322ZM462.114 429.574L484.319 444.282L486.528 440.947L464.323 426.239L462.114 429.574ZM484.319 444.282C488.53 447.071 493.019 447.979 497.665 446.851L496.721 442.964C493.262 443.804 489.905 443.184 486.528 440.947L484.319 444.282ZM497.691 446.844C502.298 445.66 506.166 442.48 509.357 437.662L506.023 435.453C503.199 439.717 500.069 442.103 496.695 442.97L497.691 446.844ZM509.357 437.662C512.549 432.845 513.968 428.042 513.261 423.338L509.305 423.933C509.823 427.378 508.847 431.19 506.023 435.453L509.357 437.662ZM513.257 423.312C512.484 418.593 509.896 414.814 505.685 412.025L503.476 415.36C506.853 417.597 508.734 420.446 509.309 423.959L513.257 423.312ZM478.552 451.772L457.467 437.805L455.258 441.14L476.343 455.106L478.552 451.772ZM457.467 437.805C450.572 433.238 446.765 427.605 445.746 420.898L441.792 421.498C443.01 429.517 447.599 436.067 455.258 441.14L457.467 437.805ZM445.744 420.883C444.662 414.095 446.482 406.943 451.514 399.348L448.179 397.139C442.746 405.341 440.515 413.493 441.794 421.513L445.744 420.883ZM451.514 399.348C456.545 391.752 462.419 387.286 469.092 385.634L468.131 381.751C460.248 383.702 453.612 388.936 448.179 397.139L451.514 399.348ZM469.106 385.631C475.68 383.952 482.352 385.26 489.247 389.827L491.456 386.492C483.796 381.419 475.976 379.749 468.117 381.755L469.106 385.631ZM489.247 389.827L510.332 403.793L512.541 400.459L491.456 386.492L489.247 389.827ZM510.332 403.793C517.226 408.36 521.07 414.018 522.148 420.777L526.098 420.147C524.815 412.098 520.201 405.532 512.541 400.459L510.332 403.793ZM522.146 420.763C523.171 427.513 521.321 434.649 516.285 442.251L519.62 444.46C525.049 436.264 527.312 428.138 526.1 420.162L522.146 420.763ZM516.285 442.251C511.25 449.853 505.401 454.341 498.786 456.03L499.775 459.906C507.592 457.91 514.191 452.656 519.62 444.46L516.285 442.251ZM498.8 456.026C492.156 457.67 485.446 456.338 478.552 451.772L476.343 455.106C484.003 460.18 491.849 461.867 499.761 459.909L498.8 456.026Z" fill="black"/>
<path d="M374.067 457.907L375.735 459.011L376.839 457.344L375.172 456.239L374.067 457.907ZM366.652 469.102L365.547 470.769L367.215 471.874L368.319 470.207L366.652 469.102ZM311.14 432.333L312.245 430.665L310.577 429.561L309.473 431.228L311.14 432.333ZM298.595 451.272L297.491 452.939L299.158 454.044L300.263 452.376L298.595 451.272ZM288.799 444.783L287.132 443.679L286.027 445.346L287.695 446.45L288.799 444.783ZM321.305 395.709L322.409 394.042L320.742 392.937L319.637 394.605L321.305 395.709ZM331.101 402.198L332.768 403.302L333.873 401.635L332.205 400.53L331.101 402.198ZM318.556 421.137L316.888 420.032L315.784 421.7L317.451 422.804L318.556 421.137ZM372.4 456.802L364.984 467.998L368.319 470.207L375.735 459.011L372.4 456.802ZM367.756 467.435L312.245 430.665L310.036 434L365.547 470.769L367.756 467.435ZM309.473 431.228L296.928 450.167L300.263 452.376L312.808 433.437L309.473 431.228ZM299.7 449.604L289.904 443.116L287.695 446.45L297.491 452.939L299.7 449.604ZM290.467 445.887L322.972 396.813L319.637 394.605L287.132 443.679L290.467 445.887ZM320.2 397.376L329.996 403.865L332.205 400.53L322.409 394.042L320.2 397.376ZM329.433 401.093L316.888 420.032L320.223 422.241L332.768 403.302L329.433 401.093ZM317.451 422.804L372.963 459.574L375.172 456.239L319.66 419.47L317.451 422.804Z" fill="black"/>
<path d="M56.2248 392.356L54.5264 391.3L53.4703 392.999L55.1687 394.055L56.2248 392.356ZM63.3162 380.953L64.3723 379.254L62.6739 378.198L61.6178 379.896L63.3162 380.953ZM129.838 422.319L131.537 423.375L132.593 421.676L130.895 420.62L129.838 422.319ZM97.9114 461.37L97.564 459.401L97.5546 459.402L97.5453 459.404L97.9114 461.37ZM68.0714 442.815L69.9967 442.273L69.9942 442.264L69.9915 442.255L68.0714 442.815ZM81.8834 408.312L83.5818 409.368L84.6379 407.67L82.9395 406.614L81.8834 408.312ZM112.769 427.518L114.467 428.574L115.523 426.875L113.825 425.819L112.769 427.518ZM91.8617 414.517L92.9179 412.818L91.2195 411.762L90.1633 413.461L91.8617 414.517ZM80.9669 438.183L82.8972 437.66L82.8922 437.641L82.887 437.623L80.9669 438.183ZM96.362 447.756L96.0146 445.787L95.9961 445.79L95.9777 445.793L96.362 447.756ZM57.9232 393.413L65.0146 382.009L61.6178 379.896L54.5264 391.3L57.9232 393.413ZM62.26 382.651L128.782 424.017L130.895 420.62L64.3723 379.254L62.26 382.651ZM128.14 421.263L110.234 450.057L113.631 452.169L131.537 423.375L128.14 421.263ZM110.234 450.057C106.851 455.499 102.625 458.508 97.564 459.401L98.2588 463.34C104.644 462.214 109.766 458.385 113.631 452.169L110.234 450.057ZM97.5453 459.404C92.3919 460.364 86.8782 459.139 80.9155 455.431L78.8032 458.828C85.3848 462.92 91.9057 464.523 98.2774 463.337L97.5453 459.404ZM80.9155 455.431C74.9528 451.723 71.4156 447.32 69.9967 442.273L66.146 443.356C67.9003 449.595 72.2217 454.735 78.8032 458.828L80.9155 455.431ZM69.9915 442.255C68.5536 437.321 69.3837 432.201 72.7675 426.759L69.3707 424.647C65.5057 430.862 64.3373 437.15 66.1513 443.374L69.9915 442.255ZM72.7675 426.759L83.5818 409.368L80.185 407.256L69.3707 424.647L72.7675 426.759ZM82.9395 406.614L57.281 390.658L55.1687 394.055L80.8273 410.01L82.9395 406.614ZM113.825 425.819L92.9179 412.818L90.8056 416.215L111.713 429.216L113.825 425.819ZM90.1633 413.461L80.59 428.856L83.9869 430.968L93.5602 415.573L90.1633 413.461ZM80.59 428.856C78.6308 432.007 78.0572 435.347 79.0467 438.742L82.887 437.623C82.2506 435.44 82.558 433.266 83.9869 430.968L80.59 428.856ZM79.0366 438.706C79.9796 442.184 82.4267 445.004 86.0128 447.234L88.125 443.837C85.1222 441.97 83.5013 439.888 82.8972 437.66L79.0366 438.706ZM86.0128 447.234C89.5988 449.464 93.2099 450.411 96.7464 449.719L95.9777 445.793C93.7122 446.237 91.1279 445.704 88.125 443.837L86.0128 447.234ZM96.7094 449.726C100.193 449.111 102.935 447.12 104.894 443.969L101.497 441.857C100.068 444.154 98.2546 445.392 96.0146 445.787L96.7094 449.726ZM104.894 443.969L114.467 428.574L111.07 426.461L101.497 441.857L104.894 443.969Z" fill="black"/>
<path d="M759.515 329.415L760.03 327.482L759.515 329.415ZM727.712 270.66L729.603 271.314L729.605 271.306L729.607 271.299L727.712 270.66ZM765.729 248.986L766.074 247.016L765.729 248.986ZM782.942 262.635L783.906 264.388L785.658 263.424L784.694 261.672L782.942 262.635ZM771.175 269.107L769.423 270.071L770.386 271.823L772.139 270.859L771.175 269.107ZM762.022 261.752L762.451 259.799L762.451 259.799L762.022 261.752ZM740.602 273.661L742.482 274.342L740.602 273.661ZM763.972 316.619L763.465 318.554L763.465 318.554L763.972 316.619ZM784.196 307.412L785.885 308.483L785.89 308.476L785.894 308.469L784.196 307.412ZM786.976 297.837L788.976 297.837L788.976 297.323L788.728 296.873L786.976 297.837ZM782.123 289.012L783.875 288.048L782.911 286.296L781.159 287.26L782.123 289.012ZM768.591 296.454L766.838 297.418L767.802 299.17L769.555 298.207L768.591 296.454ZM763.198 286.649L762.234 284.896L760.482 285.86L761.446 287.612L763.198 286.649ZM788.496 272.735L790.249 271.771L789.285 270.019L787.533 270.983L788.496 272.735ZM808.45 309.016L809.414 310.768L811.166 309.804L810.202 308.052L808.45 309.016ZM802.076 312.521L800.999 314.206L802 314.846L803.04 314.274L802.076 312.521ZM794.987 307.991L796.064 306.306L793.555 304.702L793.02 307.631L794.987 307.991ZM780.937 323.78C773.213 328.028 766.284 329.149 760.03 327.482L759 331.348C766.513 333.349 774.508 331.881 782.865 327.285L780.937 323.78ZM760.03 327.482C753.789 325.82 748.64 321.514 744.633 314.228L741.128 316.156C745.534 324.167 751.474 329.343 759 331.348L760.03 327.482ZM744.633 314.228L732.283 291.773L728.778 293.701L741.128 316.156L744.633 314.228ZM732.283 291.773C728.216 284.377 727.426 277.608 729.603 271.314L725.822 270.006C723.2 277.59 724.29 285.539 728.778 293.701L732.283 291.773ZM729.607 271.299C731.765 264.906 736.797 259.389 745.066 254.841L743.139 251.336C734.281 256.208 728.387 262.406 725.817 270.021L729.607 271.299ZM745.066 254.841C751.982 251.038 758.732 249.79 765.383 250.956L766.074 247.016C758.403 245.671 750.735 247.159 743.139 251.336L745.066 254.841ZM765.383 250.956C771.831 252.086 777.034 256.043 780.974 263.207L784.479 261.279C780.078 253.278 773.949 248.396 766.074 247.016L765.383 250.956ZM780.974 263.207L781.189 263.599L784.694 261.672L784.479 261.279L780.974 263.207ZM781.978 260.883L770.211 267.354L772.139 270.859L783.906 264.388L781.978 260.883ZM772.928 268.143L772.712 267.751L769.207 269.678L769.423 270.071L772.928 268.143ZM772.712 267.751C770.377 263.506 766.942 260.785 762.451 259.799L761.593 263.706C764.848 264.42 767.371 266.34 769.207 269.678L772.712 267.751ZM762.451 259.799C757.984 258.819 753.328 259.781 748.581 262.392L750.508 265.897C754.651 263.619 758.313 262.986 761.593 263.706L762.451 259.799ZM748.581 262.392C743.703 265.075 740.315 268.579 738.721 272.98L742.482 274.342C743.66 271.088 746.234 268.248 750.508 265.897L748.581 262.392ZM738.721 272.98C737.111 277.425 737.649 281.964 740.114 286.445L743.619 284.517C741.625 280.892 741.32 277.551 742.482 274.342L738.721 272.98ZM740.114 286.445L752.895 309.684L756.4 307.757L743.619 284.517L740.114 286.445ZM752.895 309.684C755.436 314.306 758.946 317.37 763.465 318.554L764.479 314.684C761.239 313.835 758.532 311.633 756.4 307.757L752.895 309.684ZM763.465 318.554C767.976 319.736 772.735 318.808 777.619 316.121L775.692 312.616C771.424 314.963 767.727 315.536 764.479 314.684L763.465 318.554ZM777.619 316.121C781.095 314.21 783.867 311.665 785.885 308.483L782.507 306.341C780.877 308.912 778.622 311.005 775.692 312.616L777.619 316.121ZM785.894 308.469C787.938 305.184 788.976 301.628 788.976 297.837L784.976 297.837C784.976 300.858 784.16 303.685 782.498 306.355L785.894 308.469ZM788.728 296.873L783.875 288.048L780.37 289.976L785.224 298.801L788.728 296.873ZM781.159 287.26L767.627 294.702L769.555 298.207L783.086 290.765L781.159 287.26ZM770.343 295.49L764.95 285.685L761.446 287.612L766.838 297.418L770.343 295.49ZM764.162 288.401L789.46 274.488L787.533 270.983L762.234 284.896L764.162 288.401ZM786.744 273.699L806.697 309.98L810.202 308.052L790.249 271.771L786.744 273.699ZM807.486 307.263L801.112 310.769L803.04 314.274L809.414 310.768L807.486 307.263ZM803.153 310.836L796.064 306.306L793.91 309.676L800.999 314.206L803.153 310.836ZM793.02 307.631C791.734 314.66 787.775 320.019 780.937 323.78L782.865 327.285C790.67 322.993 795.435 316.657 796.954 308.351L793.02 307.631Z" fill="black"/>
</svg>
