<svg width="734" height="688" viewBox="0 0 734 688" fill="none" xmlns="http://www.w3.org/2000/svg">
<path d="M214.355 323.597V328.29H219.049V323.597H214.355ZM142.744 211.74H147.438V207.047H142.744V211.74ZM121.927 211.74H117.234V216.434H121.927V211.74ZM121.927 177.6V172.907H117.234V177.6H121.927ZM142.744 177.6V182.294H147.438V177.6H142.744ZM142.744 147.069V142.375H138.051V147.069H142.744ZM182.158 147.069H186.852V142.375H182.158V147.069ZM182.158 177.6H177.464V182.294H182.158V177.6ZM214.355 177.6H219.049V172.907H214.355V177.6ZM214.355 211.74V216.434H219.049V211.74H214.355ZM182.158 211.74V207.047H177.464V211.74H182.158ZM186.876 284.461L183.378 287.591L183.465 287.688L183.557 287.78L186.876 284.461ZM214.355 289.457H219.049V284.763H214.355V289.457ZM214.355 318.903H197.979V328.29H214.355V318.903ZM197.979 318.903C180.339 318.903 167.96 314.325 159.937 305.98C151.881 297.6 147.438 284.615 147.438 266.142H138.051C138.051 285.972 142.814 301.714 153.169 312.486C163.558 323.292 178.796 328.29 197.979 328.29V318.903ZM147.438 266.142V211.74H138.051V266.142H147.438ZM142.744 207.047H121.927V216.434H142.744V207.047ZM126.621 211.74V177.6H117.234V211.74H126.621ZM121.927 182.294H142.744V172.907H121.927V182.294ZM147.438 177.6V147.069H138.051V177.6H147.438ZM142.744 151.763H182.158V142.375H142.744V151.763ZM177.464 147.069V177.6H186.852V147.069H177.464ZM182.158 182.294H214.355V172.907H182.158V182.294ZM209.661 177.6V211.74H219.049V177.6H209.661ZM214.355 207.047H182.158V216.434H214.355V207.047ZM177.464 211.74V266.142H186.852V211.74H177.464ZM177.464 266.142C177.464 275.128 179.034 282.735 183.378 287.591L190.374 281.331C188.427 279.155 186.852 274.55 186.852 266.142H177.464ZM183.557 287.78C188.1 292.323 194.616 294.151 202.142 294.151V284.763C195.976 284.763 192.314 283.26 190.195 281.142L183.557 287.78ZM202.142 294.151H214.355V284.763H202.142V294.151ZM209.661 289.457V323.597H219.049V289.457H209.661ZM313.333 323.597V328.29H318.027V323.597H313.333ZM241.723 211.74H246.416V207.047H241.723V211.74ZM220.906 211.74H216.212V216.434H220.906V211.74ZM220.906 177.6V172.907H216.212V177.6H220.906ZM241.723 177.6V182.294H246.416V177.6H241.723ZM241.723 147.069V142.375H237.029V147.069H241.723ZM281.136 147.069H285.83V142.375H281.136V147.069ZM281.136 177.6H276.442V182.294H281.136V177.6ZM313.333 177.6H318.027V172.907H313.333V177.6ZM313.333 211.74V216.434H318.027V211.74H313.333ZM281.136 211.74V207.047H276.442V211.74H281.136ZM285.854 284.461L282.356 287.591L282.443 287.688L282.535 287.78L285.854 284.461ZM313.333 289.457H318.027V284.763H313.333V289.457ZM313.333 318.903H296.957V328.29H313.333V318.903ZM296.957 318.903C279.317 318.903 266.938 314.325 258.915 305.98C250.859 297.6 246.416 284.615 246.416 266.142H237.029C237.029 285.972 241.792 301.714 252.147 312.486C262.536 323.292 277.774 328.29 296.957 328.29V318.903ZM246.416 266.142V211.74H237.029V266.142H246.416ZM241.723 207.047H220.906V216.434H241.723V207.047ZM225.599 211.74V177.6H216.212V211.74H225.599ZM220.906 182.294H241.723V172.907H220.906V182.294ZM246.416 177.6V147.069H237.029V177.6H246.416ZM241.723 151.763H281.136V142.375H241.723V151.763ZM276.442 147.069V177.6H285.83V147.069H276.442ZM281.136 182.294H313.333V172.907H281.136V182.294ZM308.639 177.6V211.74H318.027V177.6H308.639ZM313.333 207.047H281.136V216.434H313.333V207.047ZM276.442 211.74V266.142H285.83V211.74H276.442ZM276.442 266.142C276.442 275.128 278.012 282.735 282.356 287.591L289.352 281.331C287.406 279.155 285.83 274.55 285.83 266.142H276.442ZM282.535 287.78C287.078 292.323 293.594 294.151 301.12 294.151V284.763C294.954 284.763 291.292 283.26 289.173 281.142L282.535 287.78ZM301.12 294.151H313.333V284.763H301.12V294.151ZM308.639 289.457V323.597H318.027V289.457H308.639Z" fill="white" fill-opacity="0.6"/>
<path d="M479.551 325.055V329.748H484.245V325.055H479.551ZM440.138 325.055H435.444V329.748H440.138V325.055ZM440.138 213.198H444.832V208.505H440.138V213.198ZM416.823 213.198H412.129V217.892H416.823V213.198ZM416.823 179.058V174.365H412.129V179.058H416.823ZM440.138 179.058V183.752H444.832V179.058H440.138ZM440.138 129.375V124.682H435.444V129.375H440.138ZM479.551 129.375H484.245V124.682H479.551V129.375ZM479.551 179.058H474.858V183.752H479.551V179.058ZM502.866 179.058H507.56V174.365H502.866V179.058ZM502.866 213.198V217.892H507.56V213.198H502.866ZM479.551 213.198V208.505H474.858V213.198H479.551ZM479.551 320.361H440.138V329.748H479.551V320.361ZM444.832 325.055V213.198H435.444V325.055H444.832ZM440.138 208.505H416.823V217.892H440.138V208.505ZM421.517 213.198V179.058H412.129V213.198H421.517ZM416.823 183.752H440.138V174.365H416.823V183.752ZM444.832 179.058V129.375H435.444V179.058H444.832ZM440.138 134.069H479.551V124.682H440.138V134.069ZM474.858 129.375V179.058H484.245V129.375H474.858ZM479.551 183.752H502.866V174.365H479.551V183.752ZM498.173 179.058V213.198H507.56V179.058H498.173ZM502.866 208.505H479.551V217.892H502.866V208.505ZM474.858 213.198V325.055H484.245V213.198H474.858ZM572.566 325.055V329.748H577.26V325.055H572.566ZM533.153 325.055H528.459V329.748H533.153V325.055ZM533.153 213.198H537.847V208.505H533.153V213.198ZM509.838 213.198H505.144V217.892H509.838V213.198ZM509.838 179.058V174.365H505.144V179.058H509.838ZM533.153 179.058V183.752H537.847V179.058H533.153ZM533.153 129.375V124.682H528.459V129.375H533.153ZM572.566 129.375H577.26V124.682H572.566V129.375ZM572.566 179.058H567.872V183.752H572.566V179.058ZM595.881 179.058H600.575V174.365H595.881V179.058ZM595.881 213.198V217.892H600.575V213.198H595.881ZM572.566 213.198V208.505H567.872V213.198H572.566ZM572.566 320.361H533.153V329.748H572.566V320.361ZM537.847 325.055V213.198H528.459V325.055H537.847ZM533.153 208.505H509.838V217.892H533.153V208.505ZM514.532 213.198V179.058H505.144V213.198H514.532ZM509.838 183.752H533.153V174.365H509.838V183.752ZM537.847 179.058V129.375H528.459V179.058H537.847ZM533.153 134.069H572.566V124.682H533.153V134.069ZM567.872 129.375V179.058H577.26V129.375H567.872ZM572.566 183.752H595.881V174.365H572.566V183.752ZM591.187 179.058V213.198H600.575V179.058H591.187ZM595.881 208.505H572.566V217.892H595.881V208.505ZM567.872 213.198V325.055H577.26V213.198H567.872Z" fill="white" fill-opacity="0.6"/>
<line x1="346.076" y1="215.973" x2="387.689" y2="215.973" stroke="white" stroke-width="5.45002"/>
<rect x="256.115" y="268.115" width="88.7708" height="71.7708" fill="black" stroke="white" stroke-width="2.22924"/>
<mask id="mask0_137_321" style="mask-type:alpha" maskUnits="userSpaceOnUse" x="92" y="103" width="250" height="230">
<path d="M212.501 333V339.112H218.613V333H212.501ZM119.252 187.343H125.364V181.231H119.252V187.343ZM92.1443 187.343H86.0322V193.456H92.1443V187.343ZM92.1443 142.888V136.775H86.0322V142.888H92.1443ZM119.252 142.888V149H125.364V142.888H119.252ZM119.252 103.13V97.0181H113.14V103.13H119.252ZM170.575 103.13H176.687V97.0181H170.575V103.13ZM170.575 142.888H164.463V149H170.575V142.888ZM212.501 142.888H218.613V136.775H212.501V142.888ZM212.501 187.343V193.456H218.613V187.343H212.501ZM170.575 187.343V181.231H164.463V187.343H170.575ZM176.719 282.038L172.164 286.114L172.277 286.24L172.397 286.36L176.719 282.038ZM212.501 288.544H218.613V282.432H212.501V288.544ZM212.501 326.888H191.176V339.112H212.501V326.888ZM191.176 326.888C168.206 326.888 152.086 320.927 141.639 310.06C131.149 299.148 125.364 282.239 125.364 258.184H113.14C113.14 284.006 119.342 304.505 132.827 318.532C146.354 332.603 166.197 339.112 191.176 339.112V326.888ZM125.364 258.184V187.343H113.14V258.184H125.364ZM119.252 181.231H92.1443V193.456H119.252V181.231ZM98.2564 187.343V142.888H86.0322V187.343H98.2564ZM92.1443 149H119.252V136.775H92.1443V149ZM125.364 142.888V103.13H113.14V142.888H125.364ZM119.252 109.242H170.575V97.0181H119.252V109.242ZM164.463 103.13V142.888H176.687V103.13H164.463ZM170.575 149H212.501V136.775H170.575V149ZM206.389 142.888V187.343H218.613V142.888H206.389ZM212.501 181.231H170.575V193.456H212.501V181.231ZM164.463 187.343V258.184H176.687V187.343H164.463ZM164.463 258.184C164.463 269.885 166.507 279.791 172.164 286.114L181.274 277.963C178.739 275.129 176.687 269.133 176.687 258.184H164.463ZM172.397 286.36C178.313 292.276 186.797 294.656 196.598 294.656V282.432C188.568 282.432 183.8 280.475 181.041 277.716L172.397 286.36ZM196.598 294.656H212.501V282.432H196.598V294.656ZM206.389 288.544V333H218.613V288.544H206.389ZM341.387 333V339.112H347.499V333H341.387ZM248.138 187.343H254.25V181.231H248.138V187.343ZM221.031 187.343H214.919V193.456H221.031V187.343ZM221.031 142.888V136.775H214.919V142.888H221.031ZM248.138 142.888V149H254.25V142.888H248.138ZM248.138 103.13V97.0181H242.026V103.13H248.138ZM299.461 103.13H305.574V97.0181H299.461V103.13ZM299.461 142.888H293.349V149H299.461V142.888ZM341.387 142.888H347.499V136.775H341.387V142.888ZM341.387 187.343V193.456H347.499V187.343H341.387ZM299.461 187.343V181.231H293.349V187.343H299.461ZM305.606 282.038L301.051 286.114L301.164 286.24L301.284 286.36L305.606 282.038ZM341.387 288.544H347.499V282.432H341.387V288.544ZM341.387 326.888H320.063V339.112H341.387V326.888ZM320.063 326.888C297.093 326.888 280.973 320.927 270.526 310.06C260.035 299.148 254.25 282.239 254.25 258.184H242.026C242.026 284.006 248.229 304.505 261.713 318.532C275.241 332.603 295.083 339.112 320.063 339.112V326.888ZM254.25 258.184V187.343H242.026V258.184H254.25ZM248.138 181.231H221.031V193.456H248.138V181.231ZM227.143 187.343V142.888H214.919V187.343H227.143ZM221.031 149H248.138V136.775H221.031V149ZM254.25 142.888V103.13H242.026V142.888H254.25ZM248.138 109.242H299.461V97.0181H248.138V109.242ZM293.349 103.13V142.888H305.574V103.13H293.349ZM299.461 149H341.387V136.775H299.461V149ZM335.275 142.888V187.343H347.499V142.888H335.275ZM341.387 181.231H299.461V193.456H341.387V181.231ZM293.349 187.343V258.184H305.574V187.343H293.349ZM293.349 258.184C293.349 269.885 295.394 279.791 301.051 286.114L310.161 277.963C307.625 275.129 305.574 269.133 305.574 258.184H293.349ZM301.284 286.36C307.199 292.276 315.684 294.656 325.484 294.656V282.432C317.455 282.432 312.686 280.475 309.928 277.716L301.284 286.36ZM325.484 294.656H341.387V282.432H325.484V294.656ZM335.275 288.544V333H347.499V288.544H335.275Z" fill="white"/>
</mask>
<g mask="url(#mask0_137_321)">
<rect x="255" y="270" width="86" height="69" fill="white"/>
</g>
<rect x="545.115" y="268.115" width="75.7708" height="71.7708" fill="black" stroke="white" stroke-width="2.22924"/>
<mask id="mask1_137_321" style="mask-type:alpha" maskUnits="userSpaceOnUse" x="403" y="78" width="234" height="255">
<path d="M485.376 333V339.112H491.488V333H485.376ZM434.053 333H427.941V339.112H434.053V333ZM434.053 187.343H440.165V181.231H434.053V187.343ZM403.693 187.343H397.58V193.456H403.693V187.343ZM403.693 142.888V136.775H397.58V142.888H403.693ZM434.053 142.888V149H440.165V142.888H434.053ZM434.053 78.1915V72.0794H427.941V78.1915H434.053ZM485.376 78.1915H491.488V72.0794H485.376V78.1915ZM485.376 142.888H479.264V149H485.376V142.888ZM515.736 142.888H521.848V136.775H515.736V142.888ZM515.736 187.343V193.456H521.848V187.343H515.736ZM485.376 187.343V181.231H479.264V187.343H485.376ZM485.376 326.888H434.053V339.112H485.376V326.888ZM440.165 333V187.343H427.941V333H440.165ZM434.053 181.231H403.693V193.456H434.053V181.231ZM409.805 187.343V142.888H397.58V187.343H409.805ZM403.693 149H434.053V136.775H403.693V149ZM440.165 142.888V78.1915H427.941V142.888H440.165ZM434.053 84.3035H485.376V72.0794H434.053V84.3035ZM479.264 78.1915V142.888H491.488V78.1915H479.264ZM485.376 149H515.736V136.775H485.376V149ZM509.624 142.888V187.343H521.848V142.888H509.624ZM515.736 181.231H485.376V193.456H515.736V181.231ZM479.264 187.343V333H491.488V187.343H479.264ZM606.497 333V339.112H612.609V333H606.497ZM555.174 333H549.062V339.112H555.174V333ZM555.174 187.343H561.286V181.231H555.174V187.343ZM524.814 187.343H518.702V193.456H524.814V187.343ZM524.814 142.888V136.775H518.702V142.888H524.814ZM555.174 142.888V149H561.286V142.888H555.174ZM555.174 78.1915V72.0794H549.062V78.1915H555.174ZM606.497 78.1915H612.609V72.0794H606.497V78.1915ZM606.497 142.888H600.385V149H606.497V142.888ZM636.858 142.888H642.97V136.775H636.858V142.888ZM636.858 187.343V193.456H642.97V187.343H636.858ZM606.497 187.343V181.231H600.385V187.343H606.497ZM606.497 326.888H555.174V339.112H606.497V326.888ZM561.286 333V187.343H549.062V333H561.286ZM555.174 181.231H524.814V193.456H555.174V181.231ZM530.926 187.343V142.888H518.702V187.343H530.926ZM524.814 149H555.174V136.775H524.814V149ZM561.286 142.888V78.1915H549.062V142.888H561.286ZM555.174 84.3035H606.497V72.0794H555.174V84.3035ZM600.385 78.1915V142.888H612.609V78.1915H600.385ZM606.497 149H636.858V136.775H606.497V149ZM630.745 142.888V187.343H642.97V142.888H630.745ZM636.858 181.231H606.497V193.456H636.858V181.231ZM600.385 187.343V333H612.609V187.343H600.385Z" fill="white"/>
</mask>
<g mask="url(#mask1_137_321)">
<rect x="543.693" y="266.999" width="78.0232" height="69.8494" fill="white"/>
</g>
<line x1="328.078" y1="472.973" x2="369.691" y2="472.973" stroke="white" stroke-width="5.45002"/>
<path d="M63.5611 590V594.694H68.2548V590H63.5611ZM24.1477 590H19.4539V594.694H24.1477V590ZM24.1477 478.144H28.8414V473.45H24.1477V478.144ZM3.33071 478.144H-1.36305V482.837H3.33071V478.144ZM3.33071 444.004V439.31H-1.36305V444.004H3.33071ZM24.1477 444.004V448.698H28.8414V444.004H24.1477ZM40.2461 406.811L43.2387 410.427L43.257 410.412L43.2752 410.396L40.2461 406.811ZM94.0926 393.766H98.7864V389.34L94.3682 389.08L94.0926 393.766ZM94.0926 427.35V432.044H98.7864V427.35H94.0926ZM63.5611 444.004H58.8673V448.698H63.5611V444.004ZM91.8721 444.004H96.5659V439.31H91.8721V444.004ZM91.8721 478.144V482.837H96.5659V478.144H91.8721ZM63.5611 478.144V473.45H58.8673V478.144H63.5611ZM63.5611 585.306H24.1477V594.694H63.5611V585.306ZM28.8414 590V478.144H19.4539V590H28.8414ZM24.1477 473.45H3.33071V482.837H24.1477V473.45ZM8.02447 478.144V444.004H-1.36305V478.144H8.02447ZM3.33071 448.698H24.1477V439.31H3.33071V448.698ZM28.8414 444.004C28.8414 429.266 33.7448 418.284 43.2387 410.427L37.2535 403.195C25.2828 413.102 19.4539 426.915 19.4539 444.004H28.8414ZM43.2752 410.396C52.9393 402.232 66.1917 397.904 83.5454 397.904V388.517C64.6312 388.517 49.0175 393.256 37.217 403.225L43.2752 410.396ZM83.5454 397.904C83.5448 397.904 83.5504 397.904 83.5635 397.904C83.5763 397.905 83.5939 397.905 83.6168 397.905C83.6632 397.906 83.7242 397.908 83.8017 397.91C83.9573 397.915 84.161 397.923 84.417 397.934C84.9286 397.957 85.618 397.991 86.4906 398.036C88.2341 398.128 90.6747 398.266 93.817 398.451L94.3682 389.08C88.1874 388.716 84.4654 388.517 83.5454 388.517V397.904ZM89.3989 393.766V427.35H98.7864V393.766H89.3989ZM94.0926 422.656H87.4312V432.044H94.0926V422.656ZM87.4312 422.656C79.073 422.656 71.9685 424.088 66.8429 427.664C61.41 431.455 58.8673 437.174 58.8673 444.004H68.2548C68.2548 439.731 69.6906 437.124 72.2143 435.363C75.0454 433.388 79.876 432.044 87.4312 432.044V422.656ZM63.5611 448.698H91.8721V439.31H63.5611V448.698ZM87.1784 444.004V478.144H96.5659V444.004H87.1784ZM91.8721 473.45H63.5611V482.837H91.8721V473.45ZM58.8673 478.144V590H68.2548V478.144H58.8673ZM150.006 590V594.694H154.699V590H150.006ZM110.592 590H105.898V594.694H110.592V590ZM110.592 444.004V439.31H105.898V444.004H110.592ZM150.006 444.004H154.699V439.31H150.006V444.004ZM150.006 424.852V429.546H154.699V424.852H150.006ZM110.592 424.852H105.898V429.546H110.592V424.852ZM110.592 394.321V389.627H105.898V394.321H110.592ZM150.006 394.321H154.699V389.627H150.006V394.321ZM150.006 585.306H110.592V594.694H150.006V585.306ZM115.286 590V444.004H105.898V590H115.286ZM110.592 448.698H150.006V439.31H110.592V448.698ZM145.312 444.004V590H154.699V444.004H145.312ZM150.006 420.158H110.592V429.546H150.006V420.158ZM115.286 424.852V394.321H105.898V424.852H115.286ZM110.592 399.014H150.006V389.627H110.592V399.014ZM145.312 394.321V424.852H154.699V394.321H145.312ZM225.196 590V594.694H229.89V590H225.196ZM185.783 590H181.089V594.694H185.783V590ZM185.783 478.144H190.476V473.45H185.783V478.144ZM164.966 478.144H160.272V482.837H164.966V478.144ZM164.966 444.004V439.31H160.272V444.004H164.966ZM185.783 444.004V448.698H190.476V444.004H185.783ZM201.881 406.811L204.874 410.427L204.892 410.412L204.91 410.396L201.881 406.811ZM255.728 393.766H260.421V389.34L256.003 389.08L255.728 393.766ZM255.728 427.35V432.044H260.421V427.35H255.728ZM225.196 444.004H220.502V448.698H225.196V444.004ZM253.507 444.004H258.201V439.31H253.507V444.004ZM253.507 478.144V482.837H258.201V478.144H253.507ZM225.196 478.144V473.45H220.502V478.144H225.196ZM225.196 585.306H185.783V594.694H225.196V585.306ZM190.476 590V478.144H181.089V590H190.476ZM185.783 473.45H164.966V482.837H185.783V473.45ZM169.659 478.144V444.004H160.272V478.144H169.659ZM164.966 448.698H185.783V439.31H164.966V448.698ZM190.476 444.004C190.476 429.266 195.38 418.284 204.874 410.427L198.888 403.195C186.918 413.102 181.089 426.915 181.089 444.004H190.476ZM204.91 410.396C214.574 402.232 227.827 397.904 245.18 397.904V388.517C226.266 388.517 210.652 393.256 198.852 403.225L204.91 410.396ZM245.18 397.904C245.18 397.904 245.185 397.904 245.198 397.904C245.211 397.905 245.229 397.905 245.252 397.905C245.298 397.906 245.359 397.908 245.437 397.91C245.592 397.915 245.796 397.923 246.052 397.934C246.564 397.957 247.253 397.991 248.126 398.036C249.869 398.128 252.31 398.266 255.452 398.451L256.003 389.08C249.822 388.716 246.1 388.517 245.18 388.517V397.904ZM251.034 393.766V427.35H260.421V393.766H251.034ZM255.728 422.656H249.066V432.044H255.728V422.656ZM249.066 422.656C240.708 422.656 233.603 424.088 228.478 427.664C223.045 431.455 220.502 437.174 220.502 444.004H229.89C229.89 439.731 231.326 437.124 233.849 435.363C236.68 433.388 241.511 432.044 249.066 432.044V422.656ZM225.196 448.698H253.507V439.31H225.196V448.698ZM248.813 444.004V478.144H258.201V444.004H248.813ZM253.507 473.45H225.196V482.837H253.507V473.45ZM220.502 478.144V590H229.89V478.144H220.502ZM311.641 590V594.694H316.334V590H311.641ZM272.227 590H267.533V594.694H272.227V590ZM272.227 444.004V439.31H267.533V444.004H272.227ZM311.641 444.004H316.334V439.31H311.641V444.004ZM311.641 424.852V429.546H316.334V424.852H311.641ZM272.227 424.852H267.533V429.546H272.227V424.852ZM272.227 394.321V389.627H267.533V394.321H272.227ZM311.641 394.321H316.334V389.627H311.641V394.321ZM311.641 585.306H272.227V594.694H311.641V585.306ZM276.921 590V444.004H267.533V590H276.921ZM272.227 448.698H311.641V439.31H272.227V448.698ZM306.947 444.004V590H316.334V444.004H306.947ZM311.641 420.158H272.227V429.546H311.641V420.158ZM276.921 424.852V394.321H267.533V424.852H276.921ZM272.227 399.014H311.641V389.627H272.227V399.014ZM306.947 394.321V424.852H316.334V394.321H306.947Z" fill="white" fill-opacity="0.6"/>
<rect x="230.408" y="436.494" width="60.2586" height="53.7601" fill="black" stroke="white" stroke-width="1.77231"/>
<mask id="mask2_137_321" style="mask-type:alpha" maskUnits="userSpaceOnUse" x="152" y="395" width="153" height="204">
<path d="M214.803 599V603.859H219.662V599H214.803ZM173.999 599H169.14V603.859H173.999V599ZM173.999 483.199H178.859V478.339H173.999V483.199ZM152.448 483.199H147.589V488.058H152.448V483.199ZM152.448 447.855V442.995H147.589V447.855H152.448ZM173.999 447.855V452.714H178.859V447.855H173.999ZM190.666 409.35L193.764 413.094L193.783 413.078L193.801 413.062L190.666 409.35ZM246.411 395.845H251.27V391.263L246.697 390.994L246.411 395.845ZM246.411 430.614V435.473H251.27V430.614H246.411ZM214.803 447.855H209.944V452.714H214.803V447.855ZM244.112 447.855H248.972V442.995H244.112V447.855ZM244.112 483.199V488.058H248.972V483.199H244.112ZM214.803 483.199V478.339H209.944V483.199H214.803ZM214.803 594.141H173.999V603.859H214.803V594.141ZM178.859 599V483.199H169.14V599H178.859ZM173.999 478.339H152.448V488.058H173.999V478.339ZM157.307 483.199V447.855H147.589V483.199H157.307ZM152.448 452.714H173.999V442.995H152.448V452.714ZM178.859 447.855C178.859 432.597 183.935 421.228 193.764 413.094L187.567 405.606C175.175 415.863 169.14 430.163 169.14 447.855H178.859ZM193.801 413.062C203.806 404.609 217.526 400.129 235.492 400.129V390.411C215.911 390.411 199.746 395.317 187.53 405.638L193.801 413.062ZM235.492 400.129C235.491 400.129 235.497 400.129 235.511 400.129C235.524 400.13 235.542 400.13 235.566 400.13C235.614 400.131 235.677 400.133 235.757 400.136C235.918 400.141 236.129 400.149 236.394 400.161C236.924 400.184 237.638 400.219 238.541 400.266C240.346 400.361 242.873 400.504 246.126 400.696L246.697 390.994C240.298 390.617 236.444 390.411 235.492 390.411V400.129ZM241.552 395.845V430.614H251.27V395.845H241.552ZM246.411 425.754H239.515V435.473H246.411V425.754ZM239.515 425.754C230.862 425.754 223.507 427.237 218.2 430.939C212.576 434.863 209.944 440.784 209.944 447.855H219.662C219.662 443.431 221.148 440.732 223.761 438.909C226.692 436.864 231.693 435.473 239.515 435.473V425.754ZM214.803 452.714H244.112V442.995H214.803V452.714ZM239.253 447.855V483.199H248.972V447.855H239.253ZM244.112 478.339H214.803V488.058H244.112V478.339ZM209.944 483.199V599H219.662V483.199H209.944ZM304.296 599V603.859H309.155V599H304.296ZM263.493 599H258.633V603.859H263.493V599ZM263.493 447.855V442.995H258.633V447.855H263.493ZM304.296 447.855H309.155V442.995H304.296V447.855ZM304.296 428.028V432.887H309.155V428.028H304.296ZM263.493 428.028H258.633V432.887H263.493V428.028ZM263.493 396.419V391.56H258.633V396.419H263.493ZM304.296 396.419H309.155V391.56H304.296V396.419ZM304.296 594.141H263.493V603.859H304.296V594.141ZM268.352 599V447.855H258.633V599H268.352ZM263.493 452.714H304.296V442.995H263.493V452.714ZM299.437 447.855V599H309.155V447.855H299.437ZM304.296 423.168H263.493V432.887H304.296V423.168ZM268.352 428.028V396.419H258.633V428.028H268.352ZM263.493 401.279H304.296V391.56H263.493V401.279ZM299.437 396.419V428.028H309.155V396.419H299.437Z" fill="white"/>
</mask>
<g mask="url(#mask2_137_321)">
<rect x="229.521" y="435.608" width="62.0309" height="55.5324" fill="white"/>
</g>
<path d="M540.597 590V594.694H545.29V590H540.597ZM501.183 590H496.489V594.694H501.183V590ZM501.183 478.144H505.877V473.45H501.183V478.144ZM444.561 478.144V473.45H439.867V478.144H444.561ZM444.561 590V594.694H449.255V590H444.561ZM405.148 590H400.454V594.694H405.148V590ZM405.148 478.144H409.841V473.45H405.148V478.144ZM384.331 478.144H379.637V482.837H384.331V478.144ZM384.331 444.004V439.31H379.637V444.004H384.331ZM405.148 444.004V448.698H409.841V444.004H405.148ZM421.246 406.811L424.239 410.427L424.257 410.412L424.275 410.396L421.246 406.811ZM475.093 393.766H479.786V389.34L475.368 389.08L475.093 393.766ZM475.093 427.35V432.044H479.786V427.35H475.093ZM444.561 444.004H439.867V448.698H444.561V444.004ZM540.597 444.004H545.29V439.31H540.597V444.004ZM540.597 424.852V429.546H545.29V424.852H540.597ZM501.183 424.852H496.489V429.546H501.183V424.852ZM501.183 394.321V389.627H496.489V394.321H501.183ZM540.597 394.321H545.29V389.627H540.597V394.321ZM540.597 585.306H501.183V594.694H540.597V585.306ZM505.877 590V478.144H496.489V590H505.877ZM501.183 473.45H444.561V482.837H501.183V473.45ZM439.867 478.144V590H449.255V478.144H439.867ZM444.561 585.306H405.148V594.694H444.561V585.306ZM409.841 590V478.144H400.454V590H409.841ZM405.148 473.45H384.331V482.837H405.148V473.45ZM389.024 478.144V444.004H379.637V478.144H389.024ZM384.331 448.698H405.148V439.31H384.331V448.698ZM409.841 444.004C409.841 429.266 414.745 418.284 424.239 410.427L418.254 403.195C406.283 413.102 400.454 426.915 400.454 444.004H409.841ZM424.275 410.396C433.939 402.232 447.192 397.904 464.545 397.904V388.517C445.631 388.517 430.017 393.256 418.217 403.225L424.275 410.396ZM464.545 397.904C464.545 397.904 464.55 397.904 464.563 397.904C464.576 397.905 464.594 397.905 464.617 397.905C464.663 397.906 464.724 397.908 464.802 397.91C464.957 397.915 465.161 397.923 465.417 397.934C465.929 397.957 466.618 397.991 467.491 398.036C469.234 398.128 471.675 398.266 474.817 398.451L475.368 389.08C469.187 388.716 465.465 388.517 464.545 388.517V397.904ZM470.399 393.766V427.35H479.786V393.766H470.399ZM475.093 422.656H468.431V432.044H475.093V422.656ZM468.431 422.656C460.073 422.656 452.968 424.088 447.843 427.664C442.41 431.455 439.867 437.174 439.867 444.004H449.255C449.255 439.731 450.691 437.124 453.214 435.363C456.045 433.388 460.876 432.044 468.431 432.044V422.656ZM444.561 448.698H540.597V439.31H444.561V448.698ZM535.903 444.004V590H545.29V444.004H535.903ZM540.597 420.158H501.183V429.546H540.597V420.158ZM505.877 424.852V394.321H496.489V424.852H505.877ZM501.183 399.014H540.597V389.627H501.183V399.014ZM535.903 394.321V424.852H545.29V394.321H535.903ZM711.946 590V594.694H716.64V590H711.946ZM672.533 590H667.839V594.694H672.533V590ZM672.533 478.144H677.226V473.45H672.533V478.144ZM615.911 478.144V473.45H611.217V478.144H615.911ZM615.911 590V594.694H620.604V590H615.911ZM576.497 590H571.803V594.694H576.497V590ZM576.497 478.144H581.191V473.45H576.497V478.144ZM555.68 478.144H550.986V482.837H555.68V478.144ZM555.68 444.004V439.31H550.986V444.004H555.68ZM576.497 444.004V448.698H581.191V444.004H576.497ZM592.596 406.811L595.588 410.427L595.607 410.412L595.625 410.396L592.596 406.811ZM646.442 393.766H651.136V389.34L646.718 389.08L646.442 393.766ZM646.442 427.35V432.044H651.136V427.35H646.442ZM615.911 444.004H611.217V448.698H615.911V444.004ZM711.946 444.004H716.64V439.31H711.946V444.004ZM711.946 424.852V429.546H716.64V424.852H711.946ZM672.533 424.852H667.839V429.546H672.533V424.852ZM672.533 394.321V389.627H667.839V394.321H672.533ZM711.946 394.321H716.64V389.627H711.946V394.321ZM711.946 585.306H672.533V594.694H711.946V585.306ZM677.226 590V478.144H667.839V590H677.226ZM672.533 473.45H615.911V482.837H672.533V473.45ZM611.217 478.144V590H620.604V478.144H611.217ZM615.911 585.306H576.497V594.694H615.911V585.306ZM581.191 590V478.144H571.803V590H581.191ZM576.497 473.45H555.68V482.837H576.497V473.45ZM560.374 478.144V444.004H550.986V478.144H560.374ZM555.68 448.698H576.497V439.31H555.68V448.698ZM581.191 444.004C581.191 429.266 586.094 418.284 595.588 410.427L589.603 403.195C577.632 413.102 571.803 426.915 571.803 444.004H581.191ZM595.625 410.396C605.289 402.232 618.541 397.904 635.895 397.904V388.517C616.981 388.517 601.367 393.256 589.566 403.225L595.625 410.396ZM635.895 397.904C635.894 397.904 635.9 397.904 635.913 397.904C635.926 397.905 635.943 397.905 635.966 397.905C636.013 397.906 636.074 397.908 636.151 397.91C636.307 397.915 636.511 397.923 636.767 397.934C637.278 397.957 637.968 397.991 638.84 398.036C640.584 398.128 643.024 398.266 646.167 398.451L646.718 389.08C640.537 388.716 636.815 388.517 635.895 388.517V397.904ZM641.748 393.766V427.35H651.136V393.766H641.748ZM646.442 422.656H639.781V432.044H646.442V422.656ZM639.781 422.656C631.423 422.656 624.318 424.088 619.192 427.664C613.76 431.455 611.217 437.174 611.217 444.004H620.604C620.604 439.731 622.04 437.124 624.564 435.363C627.395 433.388 632.226 432.044 639.781 432.044V422.656ZM615.911 448.698H711.946V439.31H615.911V448.698ZM707.252 444.004V590H716.64V444.004H707.252ZM711.946 420.158H672.533V429.546H711.946V420.158ZM677.226 424.852V394.321H667.839V424.852H677.226ZM672.533 399.014H711.946V389.627H672.533V399.014ZM707.252 394.321V424.852H716.64V394.321H707.252Z" fill="white" fill-opacity="0.6"/>
<rect x="611.408" y="436.494" width="60.2586" height="53.7601" fill="black" stroke="white" stroke-width="1.77231"/>
<mask id="mask3_137_321" style="mask-type:alpha" maskUnits="userSpaceOnUse" x="533" y="395" width="163" height="204">
<path d="M695.225 599V603.859H700.085V599H695.225ZM654.422 599H649.563V603.859H654.422V599ZM654.422 483.199H659.281V478.339H654.422V483.199ZM595.803 483.199V478.339H590.944V483.199H595.803ZM595.803 599V603.859H600.662V599H595.803ZM554.999 599H550.14V603.859H554.999V599ZM554.999 483.199H559.859V478.339H554.999V483.199ZM533.448 483.199H528.589V488.058H533.448V483.199ZM533.448 447.855V442.995H528.589V447.855H533.448ZM554.999 447.855V452.714H559.859V447.855H554.999ZM571.666 409.35L574.764 413.094L574.783 413.078L574.801 413.062L571.666 409.35ZM627.411 395.845H632.27V391.263L627.697 390.994L627.411 395.845ZM627.411 430.614V435.473H632.27V430.614H627.411ZM595.803 447.855H590.944V452.714H595.803V447.855ZM695.225 447.855H700.085V442.995H695.225V447.855ZM695.225 428.028V432.887H700.085V428.028H695.225ZM654.422 428.028H649.563V432.887H654.422V428.028ZM654.422 396.419V391.56H649.563V396.419H654.422ZM695.225 396.419H700.085V391.56H695.225V396.419ZM695.225 594.141H654.422V603.859H695.225V594.141ZM659.281 599V483.199H649.563V599H659.281ZM654.422 478.339H595.803V488.058H654.422V478.339ZM590.944 483.199V599H600.662V483.199H590.944ZM595.803 594.141H554.999V603.859H595.803V594.141ZM559.859 599V483.199H550.14V599H559.859ZM554.999 478.339H533.448V488.058H554.999V478.339ZM538.307 483.199V447.855H528.589V483.199H538.307ZM533.448 452.714H554.999V442.995H533.448V452.714ZM559.859 447.855C559.859 432.597 564.935 421.228 574.764 413.094L568.567 405.606C556.175 415.863 550.14 430.163 550.14 447.855H559.859ZM574.801 413.062C584.806 404.609 598.526 400.129 616.492 400.129V390.411C596.911 390.411 580.746 395.317 568.53 405.638L574.801 413.062ZM616.492 400.129C616.491 400.129 616.497 400.129 616.511 400.129C616.524 400.13 616.542 400.13 616.566 400.13C616.614 400.131 616.677 400.133 616.757 400.136C616.918 400.141 617.129 400.149 617.394 400.161C617.924 400.184 618.638 400.219 619.541 400.266C621.346 400.361 623.873 400.504 627.126 400.696L627.697 390.994C621.298 390.617 617.444 390.411 616.492 390.411V400.129ZM622.552 395.845V430.614H632.27V395.845H622.552ZM627.411 425.754H620.515V435.473H627.411V425.754ZM620.515 425.754C611.862 425.754 604.507 427.237 599.2 430.939C593.576 434.863 590.944 440.784 590.944 447.855H600.662C600.662 443.431 602.148 440.732 604.761 438.909C607.692 436.864 612.693 435.473 620.515 435.473V425.754ZM595.803 452.714H695.225V442.995H595.803V452.714ZM690.366 447.855V599H700.085V447.855H690.366ZM695.225 423.168H654.422V432.887H695.225V423.168ZM659.281 428.028V396.419H649.563V428.028H659.281ZM654.422 401.279H695.225V391.56H654.422V401.279ZM690.366 396.419V428.028H700.085V396.419H690.366Z" fill="white"/>
</mask>
<g mask="url(#mask3_137_321)">
<rect x="610.521" y="435.608" width="62.0309" height="55.5324" fill="white"/>
</g>
</svg>
