<svg width="899" height="201" viewBox="0 0 899 201" fill="none" xmlns="http://www.w3.org/2000/svg">
<path d="M890.293 130.707C890.683 131.098 891.317 131.098 891.707 130.707L898.071 124.343C898.462 123.953 898.462 123.319 898.071 122.929C897.681 122.538 897.047 122.538 896.657 122.929L891 128.586L885.343 122.929C884.953 122.538 884.319 122.538 883.929 122.929C883.538 123.319 883.538 123.953 883.929 124.343L890.293 130.707ZM891.707 66.2929C891.317 65.9024 890.683 65.9024 890.293 66.2929L883.929 72.6569C883.538 73.0474 883.538 73.6805 883.929 74.0711C884.319 74.4616 884.953 74.4616 885.343 74.0711L891 68.4142L896.657 74.0711C897.047 74.4616 897.681 74.4616 898.071 74.0711C898.462 73.6805 898.462 73.0474 898.071 72.6569L891.707 66.2929ZM892 130L892 67L890 67L890 130L892 130Z" fill="black"/>
<circle cx="655.5" cy="25.5" r="24.5" stroke="#646464" stroke-width="2"/>
<circle cx="407.5" cy="96.5" r="24.5" stroke="#646464" stroke-width="2"/>
<circle cx="25.5" cy="175.5" r="24.5" stroke="#646464" stroke-width="2"/>
</svg>
