<svg width="16" height="65" viewBox="0 0 16 65" fill="none" xmlns="http://www.w3.org/2000/svg">
<path d="M7.29289 64.7071C7.68342 65.0976 8.31658 65.0976 8.70711 64.7071L15.0711 58.3431C15.4616 57.9526 15.4616 57.3195 15.0711 56.9289C14.6805 56.5384 14.0474 56.5384 13.6569 56.9289L8 62.5858L2.34315 56.9289C1.95262 56.5384 1.31946 56.5384 0.928932 56.9289C0.538408 57.3195 0.538408 57.9526 0.928932 58.3431L7.29289 64.7071ZM8.70711 0.292892C8.31659 -0.0976333 7.68342 -0.0976334 7.2929 0.292892L0.928935 6.65685C0.53841 7.04738 0.53841 7.68054 0.928935 8.07107C1.31946 8.46159 1.95262 8.46159 2.34315 8.07107L8 2.41422L13.6569 8.07107C14.0474 8.46159 14.6805 8.46159 15.0711 8.07107C15.4616 7.68054 15.4616 7.04738 15.0711 6.65685L8.70711 0.292892ZM9 64L9 1L7 1L7 64L9 64Z" fill="black"/>
</svg>
