<svg width="176" height="76" viewBox="0 0 176 76" fill="none" xmlns="http://www.w3.org/2000/svg">
<path fill-rule="evenodd" clip-rule="evenodd" d="M8.55649 21.066H5.08915V37.3309H0V0.325195H5.08915V15.1473H8.55649V0.325195H13.6451V37.3309H8.55649V21.066Z" fill="white"/>
<path fill-rule="evenodd" clip-rule="evenodd" d="M22.5674 37.8172H21.5649C17.4642 37.8172 15.2773 35.3764 15.2773 30.7918V23.3675H20.3805V29.8456C20.3805 31.5397 20.8815 32.4359 22.0664 32.4359C23.2963 32.4359 23.7522 31.5397 23.7522 29.2473V28.4003C23.7522 25.7601 23.5243 24.8134 21.6566 22.1726L18.3755 17.5885C16.1887 14.499 15.5509 12.1075 15.5509 8.42031V7.22487C15.5509 2.29176 17.8284 0 21.884 0H22.8409C27.0778 0 28.7181 2.04246 28.7181 6.42771V12.5064H23.7522V7.17501C23.7522 5.92912 23.5243 4.98239 22.2938 4.98239C21.0639 4.98239 20.7903 5.8294 20.7903 7.5733V8.27132C20.7903 10.3642 21.1551 11.5098 22.886 13.9511L26.1665 18.5851C28.4901 21.8735 29.2191 23.7675 29.2191 27.9521V29.1488C29.2191 34.5787 27.0778 37.8172 22.5674 37.8172Z" fill="white"/>
<path fill-rule="evenodd" clip-rule="evenodd" d="M42.4446 0.325195V5.69646H35.9479V15.3961H41.0456V21.0168H35.9479V31.7107H42.7149V37.3309H30.8496V0.325195H42.4446Z" fill="white"/>
<path fill-rule="evenodd" clip-rule="evenodd" d="M56.0285 24.8469L54.6463 11.1679L53.3107 24.8469H56.0285ZM56.5805 30.3669H52.8043L52.1134 37.3309H47.4609L51.652 0.325195H57.8244L62.2926 37.3309H57.2724L56.5805 30.3669Z" fill="white"/>
<path fill-rule="evenodd" clip-rule="evenodd" d="M68.2213 15.5448H69.598C71.0206 15.5448 71.4798 14.55 71.4798 12.9087V7.73594C71.4798 6.14441 71.1583 5.34864 69.598 5.34864H68.2213V15.5448ZM68.2213 37.3309H63.0352V0.325195H71.4344C74.876 0.325195 76.6201 1.91672 76.6201 6.04486V12.6101C76.6201 15.6942 75.2888 16.8875 74.3714 17.3355C75.5184 17.8824 76.6201 18.8778 76.6201 21.3641V34.3463C76.6201 35.8383 76.8951 36.5339 77.1252 37.0808V37.3309H71.9844C71.7548 36.9327 71.4798 36.2862 71.4798 34.2965V23.1553C71.4798 21.5134 71.2048 20.8172 69.5521 20.8172H68.2213V37.3309Z" fill="white"/>
<path fill-rule="evenodd" clip-rule="evenodd" d="M86.7725 5.69646V37.3309H81.7124V5.69646H77.4199V0.325195H91.065V5.69646H86.7725Z" fill="white"/>
<path fill-rule="evenodd" clip-rule="evenodd" d="M102.898 24.8469L101.516 11.1679L100.18 24.8469H102.898ZM103.45 30.3669H99.6731L98.9822 37.3309H94.3301L98.5218 0.325195H104.693L109.162 37.3309H104.141L103.45 30.3669Z" fill="white"/>
<path fill-rule="evenodd" clip-rule="evenodd" d="M114.66 0.325195L119.043 20.1707V0.325195H123.696V37.3309H119.54L114.66 16.042V37.3309H110.051V0.325195H114.66Z" fill="white"/>
<path fill-rule="evenodd" clip-rule="evenodd" d="M130.911 31.9584H132.139C133.686 31.9584 134.141 31.0637 134.141 29.0746V8.23365C134.141 6.09464 133.641 5.34864 132.366 5.34864H130.911V31.9584ZM125.771 0.325195H133.641C138.052 0.325195 139.417 3.06031 139.417 7.43789V29.9693C139.417 34.495 137.87 37.3309 133.641 37.3309H125.771V0.325195Z" fill="white"/>
<path fill-rule="evenodd" clip-rule="evenodd" d="M5.13987 70.1005H6.36769C7.91409 70.1005 8.36923 69.2058 8.36923 67.2166V46.3754C8.36923 44.2369 7.86911 43.4903 6.59525 43.4903H5.13987V70.1005ZM0 38.4668H7.86911C12.2802 38.4668 13.6451 41.2025 13.6451 45.579V68.112C13.6451 72.6372 12.0987 75.4725 7.86911 75.4725H0V38.4668Z" fill="white"/>
<path fill-rule="evenodd" clip-rule="evenodd" d="M27.1667 38.4668V43.8387H20.6705V53.5374H25.7683V59.1587H20.6705V69.8528H27.4376V75.4725H15.5723V38.4668H27.1667Z" fill="white"/>
<path fill-rule="evenodd" clip-rule="evenodd" d="M35.7666 75.9593H34.7641C30.6634 75.9593 28.4766 73.518 28.4766 68.9335V61.51H33.5797V67.9874C33.5797 69.6814 34.0807 70.5782 35.2651 70.5782C36.4955 70.5782 36.9515 69.6814 36.9515 67.3897V66.5427C36.9515 63.902 36.7235 62.9553 34.8558 60.3146L31.5747 55.7301C29.3879 52.6412 28.7501 50.2504 28.7501 46.5639V45.3673C28.7501 40.4344 31.0276 38.1421 35.0832 38.1421H36.0401C40.2771 38.1421 41.9173 40.1862 41.9173 44.5696V50.6493H36.9515V45.3175C36.9515 44.0716 36.7235 43.1249 35.493 43.1249C34.2631 43.1249 33.9895 43.9719 33.9895 45.7157V46.4137C33.9895 48.506 34.3543 49.6527 36.0852 52.0934L39.3657 56.7266C41.6894 60.0155 42.4183 61.9089 42.4183 66.0945V67.2905C42.4183 72.7203 40.2771 75.9593 35.7666 75.9593Z" fill="white"/>
<mask id="mask0_137_645" style="mask-type:alpha" maskUnits="userSpaceOnUse" x="43" y="38" width="22" height="38">
<path d="M43.7715 38.1577H64.5817V75.9247H43.7715V38.1577Z" fill="white"/>
</mask>
<g mask="url(#mask0_137_645)">
<path fill-rule="evenodd" clip-rule="evenodd" d="M43.7715 75.4624H48.9626V38.5063H43.7715V75.4624Z" fill="white"/>
<path fill-rule="evenodd" clip-rule="evenodd" d="M55.7146 75.9594C52.6829 75.9594 50.7539 73.029 50.7539 69.204V46.1054C50.7539 41.9833 52.2238 38.1577 57.1391 38.1577H58.1493C63.7081 38.1577 64.3511 42.0821 64.3511 46.4539V50.2292H59.2979V46.0557C59.2979 44.4171 58.9302 43.523 57.6447 43.523C56.542 43.523 56.0364 44.4171 56.0364 46.0557V67.6643C56.0364 69.4023 56.6794 70.297 57.7361 70.297C59.0686 70.297 59.6651 69.3034 59.6651 67.9123V58.6734H57.3224V53.0104H64.5804V75.4623H61.6406C61.5947 75.2635 61.1815 73.4261 60.7678 71.8367C60.4 73.0788 58.6544 75.9594 56.0364 75.9594H55.7146Z" fill="white"/>
</g>
<path fill-rule="evenodd" clip-rule="evenodd" d="M70.9055 38.4668L75.2886 58.312V38.4668H79.942V75.4725H75.7855L70.9055 54.1838V75.4725H66.2969V38.4668H70.9055Z" fill="white"/>
<path fill-rule="evenodd" clip-rule="evenodd" d="M93.4619 75.9593H92.4594C88.3593 75.9593 86.1719 73.518 86.1719 68.9335V61.51H91.2751V67.9874C91.2751 69.6814 91.776 70.5782 92.9609 70.5782C94.1908 70.5782 94.6462 69.6814 94.6462 67.3897V66.5427C94.6462 63.902 94.4188 62.9553 92.55 60.3146L89.27 55.7301C87.0832 52.6412 86.4454 50.2504 86.4454 46.5639V45.3673C86.4454 40.4344 88.7235 38.1421 92.7785 38.1421H93.7355C97.9724 38.1421 99.6126 40.1862 99.6126 44.5696V50.6493H94.6462V45.3175C94.6462 44.0716 94.4188 43.1249 93.1883 43.1249C91.9584 43.1249 91.6854 43.9719 91.6854 45.7157V46.4137C91.6854 48.506 92.0496 49.6527 93.7805 52.0934L97.0611 56.7266C99.3847 60.0155 100.114 61.9089 100.114 66.0945V67.2905C100.114 72.7203 97.9724 75.9593 93.4619 75.9593Z" fill="white"/>
<path fill-rule="evenodd" clip-rule="evenodd" d="M109.933 67.9979V59.3897H114.944V67.9481C114.944 71.9297 113.77 75.9593 108.85 75.9593H107.721C102.575 75.9593 101.447 71.8793 101.447 68.1478V45.5564C101.447 41.7757 102.936 38.1421 107.541 38.1421H108.715C114.312 38.1421 114.944 42.2233 114.944 45.8557V52.4728H109.933V45.9547C109.933 44.3626 109.482 43.5167 108.219 43.5167C106.954 43.5167 106.638 44.3133 106.638 45.9547V67.9481C106.638 69.59 107.135 70.4857 108.263 70.4857C109.482 70.4857 109.933 69.4905 109.933 67.9979Z" fill="white"/>
<path fill-rule="evenodd" clip-rule="evenodd" d="M125.132 59.2085H121.665V75.4725H116.576V38.4668H121.665V53.2891H125.132V38.4668H130.221V75.4725H125.132V59.2085Z" fill="white"/>
<path fill-rule="evenodd" clip-rule="evenodd" d="M140.996 46.3531C140.996 44.4123 140.404 43.5167 139.218 43.5167C137.896 43.5167 137.394 44.4627 137.394 46.3531V67.6499C137.394 69.2421 137.805 70.4857 139.264 70.4857C140.632 70.4857 140.996 69.2421 140.996 67.6499V46.3531ZM146.24 67.2522C146.24 72.4264 144.644 75.9593 139.674 75.9593H138.807C133.883 75.9593 132.15 72.4264 132.15 67.2522V46.6512C132.15 41.5262 133.929 38.1421 138.762 38.1421H139.629C144.644 38.1421 146.24 41.5262 146.24 46.6014V67.2522Z" fill="white"/>
<path fill-rule="evenodd" clip-rule="evenodd" d="M156.569 46.3531C156.569 44.4123 155.976 43.5167 154.791 43.5167C153.468 43.5167 152.966 44.4627 152.966 46.3531V67.6499C152.966 69.2421 153.377 70.4857 154.836 70.4857C156.204 70.4857 156.569 69.2421 156.569 67.6499V46.3531ZM161.813 67.2522C161.813 72.4264 160.217 75.9593 155.246 75.9593H154.38C149.455 75.9593 147.723 72.4264 147.723 67.2522V46.6512C147.723 41.5262 149.501 38.1421 154.334 38.1421H155.201C160.217 38.1421 161.813 41.5262 161.813 46.6014V67.2522Z" fill="white"/>
<path fill-rule="evenodd" clip-rule="evenodd" d="M168.884 38.4668V69.7527H175.163V75.4725H163.742V38.4668H168.884Z" fill="white"/>
</svg>
